<?xml version="1.0" standalone="no"?>
<!DOCTYPE svg PUBLIC "-//W3C//DTD SVG 1.1//EN" "http://www.w3.org/Graphics/SVG/1.1/DTD/svg11.dtd" >
<svg xmlns="http://www.w3.org/2000/svg" xmlns:xlink="http://www.w3.org/1999/xlink" version="1.1">
<metadata>
Created by FontForge 20170731 at Sun Apr 15 17:29:43 2018
 By Aleksey,,,
Copyright (c) 2018 by Alfredo Marco Pradil. All rights reserved.
</metadata>
<defs>
<font id="HKGrotesk-BoldLegacy" horiz-adv-x="0" >
  <font-face 
    font-family="HK Grotesk Legacy"
    font-weight="700"
    font-stretch="normal"
    units-per-em="2048"
    panose-1="0 0 8 0 0 0 0 0 0 0"
    ascent="1434"
    descent="-614"
    x-height="999"
    cap-height="1413"
    bbox="-986 -522 2648 2239"
    underline-thickness="82"
    underline-position="-410"
    unicode-range="U+0020-FB02"
  />
<missing-glyph horiz-adv-x="1110" 
d="M145 0v954h820v-954h-820zM248 102h614v750h-614v-750z" />
    <glyph glyph-name="fi" unicode="fi" horiz-adv-x="1133" 
d="M989 999v-999h-225v795h-336v-795h-244v795h-164v204h164v72q0 111 59 195t154 126t209 42q122 0 213 -26t174 -79l-112 -172q-116 80 -263 80q-95 0 -142.5 -46t-47.5 -124v-68h561z" />
    <glyph glyph-name="fl" unicode="fl" horiz-adv-x="1235" 
d="M1010 -20q-97 0 -153 48.5t-56 170.5v1003q-81 35 -183 35q-95 0 -142.5 -46t-47.5 -124v-68h203l-2 -204h-201v-795h-244v795h-164v204h164v72q0 111 59 195t154 126t209 42q130 0 217.5 -20.5t220.5 -86.5v-1061q0 -67 80 -67q28 0 68 6v-205q-102 -20 -182 -20z" />
    <glyph glyph-name="f_f" unicode="ff" horiz-adv-x="1249" 
d="M184 0v795h-164v204h164v72q0 111 59 195t154 126t209 42q153 0 266 -70q93 70 213 70q89 0 181 -41l-80 -201q-41 25 -78 25q-40 0 -66 -27t-26 -82v-109h233v-204h-233v-795h-252v795h-336v-795h-244zM428 999h338v134q0 36 6 69q-68 35 -154 35q-95 0 -142.5 -46
t-47.5 -124v-68z" />
    <glyph glyph-name="f_f_i" unicode="ffi" horiz-adv-x="1726" 
d="M1587 999v-999h-244v795h-335v-795h-244v795h-336v-795h-244v795h-164v204h164v72q0 111 59 195t154 126t209 42q172 0 296 -87q116 87 284 87q121 0 212 -26t175 -79l-113 -172q-116 80 -262 80q-95 0 -142.5 -46t-47.5 -124v-68h579zM764 999v72q0 63 21 124
q-74 42 -167 42q-95 0 -142.5 -46t-47.5 -124v-68h336z" />
    <glyph glyph-name="f_f_l" unicode="ffl" horiz-adv-x="1778" 
d="M1552 -20q-97 0 -153 48.5t-56 170.5v1015q-69 23 -145 23q-95 0 -142.5 -46t-47.5 -124v-68h190v-204h-190v-795h-244v795h-336v-795h-244v795h-164v204h164v72q0 111 59 195t154 126t209 42q170 0 295 -86q119 86 285 86q122 0 214.5 -26.5t186.5 -84.5v-1057
q0 -67 80 -67q27 0 68 6v-205q-104 -20 -183 -20zM428 999h336v72q0 61 20 123q-71 43 -166 43t-142.5 -46t-47.5 -124v-68z" />
    <glyph glyph-name="h_d_c_o.liga" unicode="hdco" horiz-adv-x="1712" 
d="M856 -61q-158 0 -301 61t-247 165t-165 247t-61 301t61 301t165 247t247 165t301 61t301 -61t247 -165t165 -247t61 -301t-61 -301t-165 -247t-247 -165t-301 -61zM856 10q191 0 353 94t256 256t94 353q0 143 -55.5 273t-149.5 224t-224.5 149.5t-273.5 55.5t-273 -55.5
t-224 -149.5t-149.5 -224t-55.5 -273t55.5 -273.5t149.5 -224.5t224 -149.5t273 -55.5zM453 410q-15 0 -25 9.5t-10 24.5v537q0 15 10.5 26t24.5 11q15 0 25.5 -11t10.5 -26v-537q0 -15 -10.5 -24.5t-25.5 -9.5zM856 410q-15 0 -25 9.5t-10 24.5v537q0 15 10 26t25 11
t25 -11t10 -26v-537q0 -15 -9.5 -24.5t-25.5 -9.5zM1257 410q-15 0 -22 10l-270 268q-9 10 -9 25q0 16 9 24l270 269q9 12 22 12q14 0 25.5 -11.5t11.5 -25.5t-10 -25l-244 -243l244 -244q10 -10 10 -25q0 -13 -11.5 -23.5t-25.5 -10.5zM588 678q-16 0 -25.5 9.5t-9.5 25.5
q0 15 9.5 25t25.5 10h133q15 0 26 -10t11 -25t-11 -25t-26 -10h-133z" />
    <glyph glyph-name=".notdef" horiz-adv-x="1110" 
d="M145 0v954h820v-954h-820zM248 102h614v750h-614v-750z" />
    <glyph glyph-name=".null" 
 />
    <glyph glyph-name="nonmarkingreturn" horiz-adv-x="682" 
 />
    <glyph glyph-name="space" unicode=" " horiz-adv-x="494" 
 />
    <glyph glyph-name="exclam" unicode="!" horiz-adv-x="635" 
d="M225 428l-28 985h241l-28 -985h-185zM184 0v264h267v-264h-267z" />
    <glyph glyph-name="quotedbl" unicode="&#x22;" horiz-adv-x="958" 
d="M203 866v547h205v-547h-205zM551 866v547h205v-547h-205z" />
    <glyph glyph-name="numbersign" unicode="#" horiz-adv-x="1382" 
d="M223 0l88 414h-231v172h268l55 262h-241v180h278l90 385h193l-88 -393h250l84 393h192l-90 -393h234v-172h-271l-57 -262h246v-172h-283l-88 -414h-190l88 414h-250l-86 -414h-191zM541 586h250l53 262h-250z" />
    <glyph glyph-name="dollar" unicode="$" horiz-adv-x="1137" 
d="M1077 412q0 -179 -120.5 -293t-307.5 -132v-247l-102 -2v247q-90 5 -172 34t-151 79t-116 127.5t-63 173.5l252 64q11 -114 79 -177.5t171 -74.5v417q-163 63 -231 107q-168 107 -177 289v20q0 172 116.5 276t291.5 113v226h102v-229q240 -30 361 -244l-211 -129
q-52 103 -150 138v-351q162 -63 228 -102q174 -103 196 -274q4 -27 4 -56zM393 1057q0 -57 39.5 -97t114.5 -74v321q-67 -7 -110.5 -48t-43.5 -102zM649 213q83 14 128.5 62t45.5 114q0 68 -45 113t-129 83v-372z" />
    <glyph glyph-name="percent" unicode="%" horiz-adv-x="1427" 
d="M375 780q-130 0 -211.5 92.5t-81.5 235.5q0 142 80 234t207 92q125 0 207.5 -94t82.5 -234q0 -139 -81 -232.5t-203 -93.5zM203 0l852 1413h172l-852 -1413h-172zM375 944q52 0 86.5 46t34.5 116q0 73 -35.5 118.5t-91.5 45.5q-57 0 -90 -44t-33 -118q0 -75 34.5 -119.5
t94.5 -44.5zM1061 -20q-130 0 -211.5 92t-81.5 235q0 142 80 234t207 92q126 0 208.5 -93.5t82.5 -234.5q0 -139 -81 -232t-204 -93zM1061 143q52 0 86.5 46t34.5 116q0 73 -35.5 118.5t-91.5 45.5q-57 0 -90 -44t-33 -118q0 -75 34.5 -119.5t94.5 -44.5z" />
    <glyph glyph-name="ampersand" unicode="&#x26;" horiz-adv-x="1382" 
d="M1327 78l-172 -154l-186 213q-184 -160 -426 -160q-131 0 -234.5 40t-166 121t-62.5 192q0 62 18.5 118t47.5 98.5t74.5 84.5t87.5 71t99 63q-167 167 -167 333q0 99 58 176.5t146.5 116.5t186.5 39q155 0 265 -95.5t110 -234.5q0 -118 -67.5 -206.5t-187.5 -169.5
l200 -224q34 96 34 196l238 -24q-11 -196 -106 -358zM475 1094q0 -83 119 -221q90 54 138 106.5t48 116.5q0 60 -39 101.5t-108 41.5q-66 0 -112 -38.5t-46 -106.5zM537 184q167 0 289 117l-267 305q-58 -35 -95.5 -62.5t-75 -63t-55.5 -74t-18 -80.5q0 -69 60 -105.5
t162 -36.5z" />
    <glyph glyph-name="quotesingle" unicode="'" horiz-adv-x="610" 
d="M203 895v518h205v-518h-205z" />
    <glyph glyph-name="parenleft" unicode="(" horiz-adv-x="573" 
d="M346 -125q-111 116 -178.5 354.5t-67.5 477.5q0 281 65 491t177 336h219q-268 -330 -268 -832q0 -270 62.5 -456.5t203.5 -370.5h-213z" />
    <glyph glyph-name="parenright" unicode=")" horiz-adv-x="573" 
d="M227 -125h-213q141 184 203.5 370.5t62.5 456.5q0 502 -268 832h219q112 -126 177 -336t65 -491q0 -239 -67.5 -477.5t-178.5 -354.5z" />
    <glyph glyph-name="asterisk" unicode="*" horiz-adv-x="901" 
d="M340 834l-158 102l158 160l-227 30l61 168l209 -82l-29 201h195l-29 -201l209 82l59 -168l-227 -30l158 -160l-158 -102l-110 208z" />
    <glyph glyph-name="plus" unicode="+" horiz-adv-x="1192" 
d="M504 106v426h-426v185h426v426h184v-426h426v-185h-426v-426h-184z" />
    <glyph glyph-name="comma" unicode="," horiz-adv-x="635" 
d="M135 -303l135 567h281l-254 -567h-162z" />
    <glyph glyph-name="hyphen" unicode="-" horiz-adv-x="866" 
d="M141 508v184h584v-184h-584z" />
    <glyph glyph-name="period" unicode="." horiz-adv-x="647" 
d="M201 0v264h245v-264h-245z" />
    <glyph glyph-name="slash" unicode="/" horiz-adv-x="897" 
d="M-35 -430l740 1843h227l-739 -1843h-228z" />
    <glyph glyph-name="zero" unicode="0" horiz-adv-x="1188" 
d="M604 -20q-91 0 -165 25t-124 66t-88 101.5t-59 122t-34 138t-17 139.5t-4 135q0 73 4 136t16 139.5t32.5 138t57 122.5t85.5 102t121 66t161 25q113 0 200 -43t140.5 -112.5t88 -167t47.5 -196.5t13 -212t-12.5 -211t-46 -195t-85.5 -165.5t-136.5 -111t-194.5 -42.5z
M598 219q45 0 80 16.5t57.5 40.5t38.5 67t24.5 79t12.5 94t5 95t1 98t-1 99.5t-5.5 94.5t-13 92t-25.5 77t-40.5 64.5t-59.5 39.5t-82 16t-82 -16t-60 -39.5t-40.5 -64.5t-25.5 -77.5t-13.5 -93t-5.5 -95.5t-1 -99q0 -46 0.5 -77t3 -75.5t7 -75t12.5 -68.5t20 -63.5t30 -52
t41 -41.5t54 -25t68 -10z" />
    <glyph glyph-name="one" unicode="1" horiz-adv-x="1188" 
d="M571 1413h240v-1413h-250v999h-330v193h189q151 0 151 135v86z" />
    <glyph glyph-name="two" unicode="2" horiz-adv-x="1188" 
d="M511 229h593v-229h-1010v201q87 52 168.5 108t180 139.5t169.5 166t119.5 185t48.5 199.5q0 91 -49.5 148t-148.5 57q-66 0 -115 -26.5t-75.5 -72.5t-40 -96.5t-15.5 -109.5l-248 16q0 79 21 154.5t63 141t100 115t137.5 78t170.5 28.5q201 0 327.5 -116t126.5 -323
q0 -109 -51.5 -229.5t-131.5 -221.5t-168.5 -182.5t-171.5 -130.5z" />
    <glyph glyph-name="three" unicode="3" horiz-adv-x="1188" 
d="M582 -20q-85 0 -162.5 18t-144 56t-115 92.5t-76 131t-27.5 168.5l242 15q0 -116 80.5 -182t206.5 -66q117 0 197.5 58t80.5 165q0 33 -7 60t-18 47t-29.5 36t-36.5 26t-45 17.5t-48.5 11.5t-53.5 6t-53.5 2.5t-54.5 0.5v193q70 0 119 8.5t78 23t45 38.5t21 49t5 61
q0 89 -57 135.5t-147 46.5q-97 0 -156.5 -54t-60.5 -147l-240 17q0 129 63 226t164.5 145.5t225.5 48.5q119 0 221 -45t166.5 -135t64.5 -207q0 -205 -184 -291q134 -36 197 -126.5t63 -213.5q0 -104 -43 -188.5t-116 -137.5t-166.5 -81.5t-198.5 -28.5z" />
    <glyph glyph-name="four" unicode="4" horiz-adv-x="1188" 
d="M928 563h225v-231h-225v-332h-250v332h-653v147l690 934h213v-850zM350 563h328v462z" />
    <glyph glyph-name="five" unicode="5" horiz-adv-x="1188" 
d="M621 971q130 0 241 -66t175.5 -179t64.5 -245t-70 -247.5t-190 -184.5t-258 -69q-187 0 -329 123.5t-181 306.5l235 65q11 -52 31 -96.5t51.5 -84t81 -62.5t111.5 -23q111 0 185.5 83.5t74.5 190.5q0 110 -70 185t-190 75q-70 0 -136 -35.5t-104 -95.5l-229 58l137 743
h786v-233h-585l-51 -264q103 55 219 55z" />
    <glyph glyph-name="six" unicode="6" horiz-adv-x="1188" 
d="M780 932q145 -54 237.5 -178.5t92.5 -280.5q0 -134 -69 -247.5t-187.5 -179.5t-257.5 -66q-140 0 -259 66t-188 179t-69 246q0 136 78 262l422 680h290l-282 -446q101 2 192 -35zM596 215q110 0 188 76t78 182t-78 182t-188 76q-112 0 -190 -76t-78 -182t78 -182t190 -76
z" />
    <glyph glyph-name="seven" unicode="7" horiz-adv-x="1188" 
d="M86 1413h1020v-129l-627 -1284h-280l599 1182h-712v231z" />
    <glyph glyph-name="eight" unicode="8" horiz-adv-x="1188" 
d="M592 -20q-103 0 -195.5 27t-166 78.5t-117 134.5t-43.5 186q0 116 54 208.5t150 149.5q-133 112 -133 285q0 118 64.5 207.5t166 133.5t220.5 44q118 0 219.5 -44.5t166 -133.5t64.5 -205q0 -173 -133 -287q100 -59 152.5 -150t52.5 -206q0 -105 -43.5 -188.5
t-117.5 -134.5t-166 -78t-195 -27zM596 838q92 0 148.5 51t56.5 141t-57.5 141.5t-147.5 51.5q-88 0 -146.5 -49t-58.5 -140q0 -89 55.5 -142.5t149.5 -53.5zM590 197q119 0 195.5 60t76.5 175q0 112 -76 176t-196 64q-122 0 -197.5 -63.5t-75.5 -174.5q0 -116 77.5 -176.5
t195.5 -60.5z" />
    <glyph glyph-name="nine" unicode="9" horiz-adv-x="1188" 
d="M592 1433q140 0 259 -66t188 -179t69 -246q0 -136 -78 -262l-422 -680h-290l282 446q-101 -2 -192 35q-145 54 -237.5 178.5t-92.5 280.5q0 134 69 247.5t187.5 179.5t257.5 66zM592 682q112 0 190 76t78 182t-78 182t-190 76q-110 0 -188 -76t-78 -182t78 -182t188 -76z
" />
    <glyph glyph-name="colon" unicode=":" horiz-adv-x="676" 
d="M205 690v264h266v-264h-266zM205 0v264h266v-264h-266z" />
    <glyph glyph-name="semicolon" unicode=";" horiz-adv-x="659" 
d="M242 690v264h266v-264h-266zM100 -303l136 567h280l-254 -567h-162z" />
    <glyph glyph-name="less" unicode="&#x3c;" horiz-adv-x="1307" 
d="M1126 -29l-1087 621l1087 620l93 -159l-807 -461l807 -461z" />
    <glyph glyph-name="equal" unicode="=" horiz-adv-x="1268" 
d="M219 793v206h830v-206h-830zM219 344v207h830v-207h-830z" />
    <glyph glyph-name="greater" unicode="&#x3e;" horiz-adv-x="1307" 
d="M181 -29l-93 160l807 461l-807 461l93 159l1087 -620z" />
    <glyph glyph-name="question" unicode="?" horiz-adv-x="997" 
d="M387 424v145q0 67 18.5 117t48 79.5t65 51.5t71 41t65 40.5t48 56.5t18.5 83q0 97 -62 145t-170 48q-229 0 -229 -240h-215q0 208 118.5 325.5t317.5 117.5q124 0 225 -44.5t164.5 -137t63.5 -218.5q0 -74 -19 -133t-48.5 -95.5t-66 -64.5t-73 -47t-66 -36.5t-48.5 -40
t-19 -50.5v-143h-207zM360 0v264h267v-264h-267z" />
    <glyph glyph-name="at" unicode="@" horiz-adv-x="2015" 
d="M999 -348q-147 0 -282.5 38.5t-247 113.5t-194.5 179t-129 242t-46 295q0 189 66.5 356.5t185 290t290.5 194t374 71.5q204 0 376 -72.5t286 -194.5t177.5 -282.5t63.5 -337.5q0 -94 -18 -183t-55.5 -169t-91.5 -139.5t-131 -94.5t-169 -35q-191 0 -256 139
q-18 44 -24 97q-126 -117 -293 -117q-109 0 -187 57t-113.5 146t-35.5 198q0 82 20.5 167.5t62 166t98 143.5t136 101.5t168.5 38.5q90 0 156.5 -36.5t103.5 -98.5l19 86h196q-15 -78 -56 -246.5t-68 -305.5t-27 -224q0 -64 19.5 -88.5t74.5 -24.5q73 0 129.5 38t88.5 101.5
t47.5 136t15.5 150.5q0 138 -49 263.5t-138.5 222t-225.5 153.5t-298 57t-299.5 -56.5t-230.5 -154t-145 -229.5t-52 -281q0 -126 37 -234.5t102.5 -188.5t154 -137.5t194.5 -86.5t222 -29q119 0 242 39l68 -182q-147 -53 -312 -53zM897 238q76 0 140.5 40.5t104 105
t61.5 140t22 148.5q0 194 -166 194q-77 0 -141.5 -40.5t-104.5 -104t-62 -138t-22 -147.5q0 -198 168 -198z" />
    <glyph glyph-name="A" unicode="A" horiz-adv-x="1343" 
d="M12 0l566 1413h190l563 -1413h-274l-113 307h-541l-114 -307h-277zM483 524h381l-190 516z" />
    <glyph glyph-name="B" unicode="B" horiz-adv-x="1274" 
d="M182 0v1413h490q67 0 129.5 -12t122 -41t103.5 -71.5t70.5 -108.5t26.5 -148q0 -91 -46 -166t-111 -110q96 -38 161.5 -138.5t65.5 -207.5q0 -127 -66 -222t-169.5 -141.5t-225.5 -46.5h-551zM436 844h260q195 0 195 174q0 80 -60 123t-155 43h-240v-340zM436 242h301
q100 0 153.5 49t53.5 147q0 78 -60 132.5t-157 54.5h-291v-383z" />
    <glyph glyph-name="C" unicode="C" horiz-adv-x="1432" 
d="M766 -20q-169 0 -302 58.5t-215 160t-124.5 231t-42.5 277.5q0 118 26 224.5t80.5 199t134 160.5t192.5 106.5t249 38.5q211 0 372 -104.5t246 -301.5l-237 -94q-74 258 -383 258q-109 0 -192.5 -37.5t-134 -103.5t-76 -150.5t-25.5 -185.5q0 -108 25.5 -196.5
t76.5 -156.5t135 -105.5t195 -37.5q140 0 233.5 61.5t149.5 200.5l235 -96q-83 -197 -244.5 -302t-373.5 -105z" />
    <glyph glyph-name="D" unicode="D" horiz-adv-x="1409" 
d="M182 0v1413h410q359 0 547 -185.5t188 -531.5q0 -332 -191 -514t-546 -182h-408zM436 233h129q121 0 211.5 25t158.5 79.5t103 147t35 222.5q0 252 -112.5 362.5t-372.5 110.5h-152v-947z" />
    <glyph glyph-name="E" unicode="E" horiz-adv-x="1245" 
d="M182 0v1413h940v-233h-686v-357h639v-233h-639v-350h686v-240h-940z" />
    <glyph glyph-name="F" unicode="F" horiz-adv-x="1235" 
d="M182 0v1413h1002v-233h-748v-357h660v-233h-660v-590h-254z" />
    <glyph glyph-name="G" unicode="G" horiz-adv-x="1534" 
d="M840 764h567v-764h-201l-22 199q-58 -101 -168.5 -160t-249.5 -59q-169 0 -302 58.5t-215 160t-124.5 231t-42.5 277.5q0 118 25.5 224.5t80.5 199t134 160.5t192.5 106.5t249.5 38.5q210 0 370.5 -104.5t245.5 -301.5l-225 -94q-47 140 -150 209t-243 69
q-108 0 -192 -40.5t-134.5 -110.5t-76 -157.5t-25.5 -188.5q0 -108 25.5 -198.5t76.5 -161.5t135.5 -110.5t194.5 -39.5q170 0 274.5 91.5t110.5 260.5h-311v205z" />
    <glyph glyph-name="H" unicode="H" horiz-adv-x="1491" 
d="M182 0v1413h254v-590h619v590h254v-1413h-254v590h-619v-590h-254z" />
    <glyph glyph-name="I" unicode="I" horiz-adv-x="618" 
d="M182 0v1413h254v-1413h-254z" />
    <glyph glyph-name="J" unicode="J" horiz-adv-x="1139" 
d="M508 -20q-140 0 -247 63.5t-164 166.5t-66 230l250 29q8 -113 64 -183.5t163 -70.5q130 0 176.5 70.5t46.5 220.5v674h-532v233h786v-903q0 -116 -26.5 -210t-81.5 -167t-149 -113t-220 -40z" />
    <glyph glyph-name="K" unicode="K" horiz-adv-x="1491" 
d="M182 0v1413h254v-737l688 737h340l-565 -579l576 -834h-316l-436 664l-287 -297v-367h-254z" />
    <glyph glyph-name="L" unicode="L" horiz-adv-x="1063" 
d="M182 0v1413h254v-1173h604v-240h-858z" />
    <glyph glyph-name="M" unicode="M" horiz-adv-x="1798" 
d="M1274 1413h342v-1413h-244v1055l-350 -932h-246l-350 932v-1055h-244v1413h342l375 -1005z" />
    <glyph glyph-name="N" unicode="N" horiz-adv-x="1454" 
d="M1028 1413h244v-1413h-254l-592 993v-993h-244v1413h252l594 -988v988z" />
    <glyph glyph-name="O" unicode="O" horiz-adv-x="1528" 
d="M764 -20q-136 0 -249.5 38.5t-192.5 106t-134 160t-80.5 199t-25.5 223.5t25.5 223.5t80.5 199t134 160t192.5 106t249.5 38.5t249.5 -38.5t192.5 -106t134 -160t80.5 -199t25.5 -223.5t-25.5 -223.5t-80.5 -199t-134 -160t-192.5 -106t-249.5 -38.5zM764 205
q88 0 159 27t118 73t78.5 110.5t45 136.5t13.5 155q0 82 -13.5 154.5t-45 136.5t-78.5 110t-118 73t-159 27t-159 -27t-118 -73t-78.5 -110t-45 -136.5t-13.5 -154.5q0 -83 13.5 -155t45 -136.5t78.5 -110.5t118 -73t159 -27z" />
    <glyph glyph-name="P" unicode="P" horiz-adv-x="1167" 
d="M182 0v1413h443q222 0 360.5 -111t138.5 -307q0 -193 -138.5 -301t-360.5 -108h-191v-586h-252zM434 823h191q128 0 187.5 43t59.5 129q0 181 -247 181h-191v-353z" />
    <glyph glyph-name="Q" unicode="Q" horiz-adv-x="1573" 
d="M1346 -119l-203 203q-158 -104 -379 -104q-136 0 -249.5 38.5t-192.5 106t-134 160t-80.5 199t-25.5 223.5t25.5 223.5t80.5 199t134 160t192.5 106t249.5 38.5t249.5 -39t192.5 -106.5t134 -160.5t80.5 -199.5t25.5 -223.5q0 -136 -36 -260.5t-103 -217.5l202 -192z
M764 219q110 0 199 41l-193 176l164 150l188 -174q70 126 70 295q0 103 -25 189t-75 154t-134 106t-194 38t-194 -38t-134 -106t-75 -154t-25 -189t25 -189.5t75 -154.5t134 -106t194 -38z" />
    <glyph glyph-name="R" unicode="R" horiz-adv-x="1268" 
d="M182 0v1413h457q100 0 188 -28t155.5 -80t106.5 -131.5t39 -176.5q0 -130 -76 -227.5t-200 -140.5l393 -629h-291l-348 604h-82h-88v-604h-254zM438 811h224q101 4 158 53t57 129q0 88 -64 140.5t-172 52.5h-203v-375z" />
    <glyph glyph-name="S" unicode="S" horiz-adv-x="1137" 
d="M586 -16q-95 0 -184 26.5t-163 76.5t-126 130.5t-68 181.5l252 64q13 -126 93.5 -190t199.5 -64q110 0 171.5 51t61.5 129q0 52 -29.5 93.5t-77.5 68t-109.5 53.5t-125.5 50t-125.5 58t-109.5 76.5t-77.5 107.5t-29.5 148q0 121 61 211t160 134.5t220 44.5
q136 0 248 -61.5t182 -186.5l-211 -129q-37 72 -97 111.5t-131 39.5q-76 0 -127 -42t-51 -109q0 -42 23.5 -76.5t63 -58.5t91 -46t108 -43.5t113 -46t108 -58.5t91 -76t63 -103.5t23.5 -136.5q0 -130 -66.5 -228.5t-177.5 -149t-247 -50.5z" />
    <glyph glyph-name="T" unicode="T" horiz-adv-x="1180" 
d="M463 0v1186h-443v227h1139v-227h-442v-1186h-254z" />
    <glyph glyph-name="U" unicode="U" horiz-adv-x="1380" 
d="M690 -20q-275 0 -407.5 150.5t-132.5 420.5v862h253v-833q0 -182 62.5 -268.5t224.5 -86.5q163 0 225 86.5t62 268.5v833h254v-852q0 -277 -132.5 -429t-408.5 -152z" />
    <glyph glyph-name="V" unicode="V" horiz-adv-x="1343" 
d="M1053 1413h278l-563 -1413h-190l-566 1413h281l381 -1001z" />
    <glyph glyph-name="W" unicode="W" horiz-adv-x="2003" 
d="M449 0l-424 1413h264l301 -1040l313 958h197l313 -958l301 1040h264l-424 -1413h-245l-308 930l-307 -930h-245z" />
    <glyph glyph-name="X" unicode="X" horiz-adv-x="1343" 
d="M25 0l473 707l-471 706h303l342 -545l342 545h303l-471 -706l473 -707h-303l-346 537l-342 -537h-303z" />
    <glyph glyph-name="Y" unicode="Y" horiz-adv-x="1319" 
d="M528 0v551l-530 862h307l352 -618l355 618h309l-528 -862v-551h-265z" />
    <glyph glyph-name="Z" unicode="Z" horiz-adv-x="1272" 
d="M1198 1413v-184l-785 -1000h785v-229h-1139v176l788 1004h-743v233h1094z" />
    <glyph glyph-name="bracketleft" unicode="[" horiz-adv-x="641" 
d="M176 -164v1737h432v-162h-235v-1411h235v-164h-432z" />
    <glyph glyph-name="backslash" unicode="\" horiz-adv-x="934" 
d="M743 -430l-780 1946h227l781 -1946h-228z" />
    <glyph glyph-name="bracketright" unicode="]" horiz-adv-x="641" 
d="M465 -164h-432v164h235v1411h-235v162h432v-1737z" />
    <glyph glyph-name="asciicircum" unicode="^" horiz-adv-x="1231" 
d="M49 420l565 1077l568 -1077h-258l-310 620l-307 -620h-258z" />
    <glyph glyph-name="underscore" unicode="_" horiz-adv-x="1247" 
d="M199 -184v184h850v-184h-850z" />
    <glyph glyph-name="grave" unicode="`" horiz-adv-x="532" 
d="M322 1124l-308 289h260l226 -289h-178z" />
    <glyph glyph-name="a" unicode="a" horiz-adv-x="1061" 
d="M514 1020q201 0 316.5 -114t115.5 -300v-606h-201l-15 133q-46 -74 -133.5 -113.5t-178.5 -39.5q-159 0 -261 87t-102 240q0 64 20 113.5t55 82t86 54t109 30.5t128 9h271q-4 115 -48 163t-160 48q-80 0 -139.5 -39.5t-95.5 -101.5l-187 135q160 219 420 219zM467 186
q107 0 176.5 66t81.5 160v8h-258q-79 0 -120.5 -35t-41.5 -86t41.5 -82t120.5 -31z" />
    <glyph glyph-name="b" unicode="b" horiz-adv-x="1176" 
d="M684 -20q-84 0 -159.5 29.5t-125.5 90.5v-100h-252v1413h252v-514q98 121 281 121q102 0 185.5 -42t136.5 -114t81.5 -165.5t28.5 -198.5q0 -141 -48 -257.5t-147 -189.5t-233 -73zM623 205q121 0 182 81.5t61 213.5t-61.5 215.5t-181.5 83.5q-121 0 -183.5 -83
t-62.5 -216q0 -132 62.5 -213.5t183.5 -81.5z" />
    <glyph glyph-name="c" unicode="c" horiz-adv-x="1004" 
d="M541 -20q-118 0 -212.5 43.5t-152.5 116.5t-88.5 165t-30.5 193t30 192.5t88 166t152 119t212 44.5q152 0 264 -74.5t168 -220.5l-232 -90q-20 74 -73.5 119t-126.5 45q-49 0 -89 -17t-66.5 -46t-44.5 -68t-26 -81.5t-8 -88.5q0 -59 13 -110.5t40 -94.5t73.5 -67.5
t107.5 -24.5q72 0 126 43.5t74 115.5l222 -84q-50 -140 -161 -218t-259 -78z" />
    <glyph glyph-name="d" unicode="d" horiz-adv-x="1171" 
d="M496 -20q-136 0 -236 72.5t-148.5 189t-48.5 258.5q0 141 48.5 257.5t147.5 189.5t233 73q84 0 159.5 -30t124.5 -91v514h248v-1413h-227l-11 113q-97 -133 -290 -133zM555 201q121 0 181.5 82t60.5 217q0 134 -61 216.5t-181 82.5t-182 -83.5t-62 -215.5
q0 -133 61.5 -216t182.5 -83z" />
    <glyph glyph-name="e" unicode="e" horiz-adv-x="1069" 
d="M563 -20q-125 0 -223.5 42.5t-159 115t-92 164t-31.5 194.5q0 100 30 192t87.5 167t154 120t218.5 45q101 0 182 -31.5t132.5 -81.5t86 -117.5t48.5 -135t14 -138.5t-9 -96h-686q35 -219 250 -219q145 0 240 106l168 -147q-162 -180 -410 -180zM315 596h455q0 36 -8 63
q-18 75 -76.5 115.5t-140.5 40.5q-190 0 -230 -219z" />
    <glyph glyph-name="f" unicode="f" horiz-adv-x="688" 
d="M203 0v795h-183v204h185v134q0 139 93 220t226 81q89 0 181 -41l-80 -201q-41 25 -78 25q-40 0 -66 -27t-26 -82v-109h233v-204h-233v-795h-252z" />
    <glyph glyph-name="g" unicode="g" horiz-adv-x="1071" 
d="M653 172q51 0 97.5 -7.5t95.5 -28t85 -52.5t58.5 -85t22.5 -122q0 -156 -115 -246t-342 -90q-138 0 -249.5 33t-185 108.5t-73.5 184.5q0 52 16 92l137 54q-132 83 -132 223q0 139 123 215q-60 90 -60 202q0 161 117 264t291 103q129 0 232 -61l153 131l125 -156
l-146 -117q41 -79 41 -172q0 -162 -116.5 -262t-288.5 -100q-115 0 -209 47q-35 -25 -35 -70q0 -25 11.5 -43t26.5 -26.5t39 -13t37 -5t33 -0.5h211zM543 827q-79 0 -123.5 -50.5t-44.5 -127.5q0 -76 44.5 -124t123.5 -48q78 0 122 48t44 124q0 77 -44.5 127.5t-121.5 50.5z
M539 -272q239 0 239 129q0 27 -8.5 46.5t-28 31t-37 18.5t-48.5 10t-49 3.5t-52 0.5h-195l-86 -73v-23q0 -17 1.5 -29t15.5 -35.5t39.5 -39t79.5 -27.5t129 -12z" />
    <glyph glyph-name="h" unicode="h" horiz-adv-x="1169" 
d="M147 0v1413h248v-530q57 70 133.5 103.5t155.5 33.5q76 0 138.5 -23.5t104.5 -64t71 -94.5t42 -114t13 -124v-600h-248v569q0 50 -8 88.5t-26.5 72t-55.5 51.5t-90 18q-113 0 -171.5 -81t-58.5 -212v-506h-248z" />
    <glyph glyph-name="i" unicode="i" horiz-adv-x="535" 
d="M139 1188v225h256v-225h-256zM145 0v999h244v-999h-244z" />
    <glyph glyph-name="j" unicode="j" horiz-adv-x="543" 
d="M143 1188v225h258v-225h-258zM104 -438q-92 0 -174 32l62 211q55 -22 88 -22q70 0 70 94v1122h245v-1103q0 -146 -73.5 -240t-217.5 -94z" />
    <glyph glyph-name="k" unicode="k" horiz-adv-x="1118" 
d="M147 0v1413h244v-829l377 415h317l-374 -387l415 -612h-288l-293 463l-154 -170v-293h-244z" />
    <glyph glyph-name="l" unicode="l" horiz-adv-x="573" 
d="M348 -20q-97 0 -153 48.5t-56 170.5v1214h244v-1147q0 -67 80 -67q28 0 67 6v-205q-102 -20 -182 -20z" />
    <glyph glyph-name="m" unicode="m" horiz-adv-x="1741" 
d="M147 0l-2 999h236v-125q85 146 270 146q61 0 114 -15.5t103 -56.5t78 -104q109 176 320 176q92 0 162.5 -35.5t112 -96t62.5 -133.5t21 -155v-600h-244v569q0 224 -163 224q-96 0 -152.5 -70t-56.5 -174v-549h-244v573q0 220 -162 220q-97 0 -154 -70t-57 -174v-549h-244
z" />
    <glyph glyph-name="n" unicode="n" horiz-adv-x="1163" 
d="M145 0v999h244v-116q57 69 135 103t158 34q94 0 166.5 -35.5t114.5 -96.5t63 -133.5t21 -154.5v-600h-244v569q0 101 -50 163.5t-141 62.5q-106 0 -164.5 -60.5t-58.5 -187.5v-547h-244z" />
    <glyph glyph-name="o" unicode="o" horiz-adv-x="1128" 
d="M563 -20q-113 0 -210 42t-162.5 113t-102.5 166t-37 201q0 141 62.5 258.5t181 188.5t268.5 71t268.5 -71t181 -188.5t62.5 -258.5q0 -106 -37 -201t-102.5 -166t-162.5 -113t-210 -42zM563 190q130 0 194 88.5t64 223.5q0 86 -25 153t-84.5 110.5t-148.5 43.5
q-130 0 -194 -86.5t-64 -220.5q0 -86 25 -154t85 -113t148 -45z" />
    <glyph glyph-name="p" unicode="p" horiz-adv-x="1176" 
d="M147 -414v1413h252v-100q50 61 125.5 91t159.5 30q101 0 183.5 -42.5t135 -114.5t81 -165t28.5 -198q0 -106 -28.5 -199.5t-81.5 -165t-136.5 -113.5t-185.5 -42q-183 0 -281 120v-514h-252zM623 201q120 0 181.5 83.5t61.5 215.5t-61 213.5t-182 81.5t-183.5 -81.5
t-62.5 -213.5q0 -133 62.5 -216t183.5 -83z" />
    <glyph glyph-name="q" unicode="q" horiz-adv-x="1176" 
d="M1029 -414h-252v514q-98 -120 -281 -120q-102 0 -185.5 42t-136.5 113.5t-81.5 165t-28.5 199.5q0 105 28.5 198t81 165t135 114.5t183.5 42.5q84 0 159.5 -30t125.5 -91v100h252v-1413zM553 201q121 0 183.5 83t62.5 216q0 132 -62.5 213.5t-183.5 81.5t-182 -81.5
t-61 -213.5t61.5 -215.5t181.5 -83.5z" />
    <glyph glyph-name="r" unicode="r" horiz-adv-x="815" 
d="M145 0v999h238v-168q31 88 106 138.5t162 50.5q112 0 183 -72l-111 -200q-51 34 -109 34q-95 0 -164 -91t-69 -269v-422h-236z" />
    <glyph glyph-name="s" unicode="s" horiz-adv-x="909" 
d="M446 -20q-153 0 -267 80t-152 200l194 86q61 -164 213 -164q78 0 120 36.5t42 82.5q0 34 -27.5 56.5t-72 36.5t-98 26.5t-107 33t-98 49.5t-72 81.5t-27.5 124.5q0 101 53.5 173.5t135.5 105t182 32.5q127 0 224 -57t155 -160l-189 -103q-70 127 -198 127
q-58 0 -93.5 -25t-35.5 -61q0 -30 28 -51.5t73 -35.5t99 -28.5t108 -37.5t99 -55.5t73 -88.5t28 -131q0 -67 -22.5 -123t-60.5 -94t-88.5 -65t-105.5 -39t-113 -12z" />
    <glyph glyph-name="t" unicode="t" horiz-adv-x="754" 
d="M498 -20q-146 0 -229 79.5t-83 216.5v519h-161v204h165v248l240 174v-422h250v-204h-250v-476q0 -124 111 -124q65 0 139 36v-221q-79 -30 -182 -30z" />
    <glyph glyph-name="u" unicode="u" horiz-adv-x="1161" 
d="M479 -20q-94 0 -166 35.5t-113.5 96t-62 133t-20.5 154.5v600h241v-569q0 -101 50 -163t141 -62q107 0 166 61t59 187v546h242v-999h-242v117q-56 -70 -135 -103.5t-160 -33.5z" />
    <glyph glyph-name="v" unicode="v" horiz-adv-x="999" 
d="M399 0l-407 999h266l242 -684l243 684h265l-408 -999h-201z" />
    <glyph glyph-name="w" unicode="w" horiz-adv-x="1466" 
d="M317 0l-307 999h260l170 -626l189 626h209l188 -624l172 624h260l-309 -999h-219l-197 655l-196 -655h-220z" />
    <glyph glyph-name="x" unicode="x" horiz-adv-x="1030" 
d="M10 0l342 504l-342 495h297l207 -329l207 329h299l-344 -495l344 -504h-299l-207 336l-207 -336h-297z" />
    <glyph glyph-name="y" unicode="y" horiz-adv-x="1032" 
d="M201 -430l184 457l-391 972h268l252 -694l256 694h268l-571 -1429h-266z" />
    <glyph glyph-name="z" unicode="z" horiz-adv-x="1004" 
d="M934 999v-174l-542 -620h542v-205h-881v162l565 633h-536v204h852z" />
    <glyph glyph-name="braceleft" unicode="{" horiz-adv-x="618" 
d="M408 -156q-110 0 -167 75.5t-57 207.5v299q0 35 -9 62.5t-18.5 42.5t-33 29.5t-33 18.5t-37.5 15v160q26 10 37.5 14.5t33.5 18.5t32 29.5t19 43t9 62.5v299q0 133 58.5 207.5t165.5 74.5h157v-157h-73q-101 0 -101 -129v-299q0 -98 -36.5 -153t-104.5 -85v-12
q69 -32 105 -86.5t36 -151.5v-299q0 -129 101 -129h73v-158h-157z" />
    <glyph glyph-name="bar" unicode="|" horiz-adv-x="623" 
d="M221 -512v2046h180v-2046h-180z" />
    <glyph glyph-name="braceright" unicode="}" horiz-adv-x="618" 
d="M210 -156h-157v158h73q101 0 101 129v299q0 97 36 151.5t105 86.5v12q-68 30 -104.5 85t-36.5 153v299q0 129 -101 129h-73v157h157q107 0 165.5 -74.5t58.5 -207.5v-299q0 -35 9 -62.5t19 -43t32 -29.5t33.5 -18.5t37.5 -14.5v-160q-28 -11 -37.5 -15t-33 -18.5
t-33 -29.5t-18.5 -42.5t-9 -62.5v-299q0 -132 -57 -207.5t-167 -75.5z" />
    <glyph glyph-name="asciitilde" unicode="~" horiz-adv-x="1223" 
d="M788 332q-49 0 -88 12.5t-64.5 33t-46 44.5t-37 48.5t-33 45t-38.5 33t-49 12.5q-42 0 -66 -46.5t-24 -125.5h-184q0 151 75 243.5t199 92.5q69 0 119.5 -23.5t78 -57.5t50 -67.5t49 -57t59.5 -23.5q42 0 68.5 55t26.5 139h184q0 -159 -77 -258.5t-202 -99.5z" />
    <glyph glyph-name="uni00A0" unicode="&#xa0;" horiz-adv-x="563" 
 />
    <glyph glyph-name="exclamdown" unicode="&#xa1;" horiz-adv-x="635" 
d="M184 1413h267v-264h-267v264zM225 985h185l28 -985h-241z" />
    <glyph glyph-name="cent" unicode="&#xa2;" horiz-adv-x="1118" 
d="M516 -213v199q-99 13 -177.5 61t-127.5 118.5t-74.5 155.5t-25.5 177t25.5 177.5t74 157t127.5 120.5t178 63v184h123v-182q134 -11 233.5 -85t151.5 -208l-231 -90q-18 61 -58 103t-96 55v-586q56 12 96 53t58 100l221 -84q-46 -129 -144.5 -205.5t-230.5 -88.5v-193z
M516 213v573q-80 -27 -119 -106.5t-39 -181.5q0 -103 39 -181t119 -104z" />
    <glyph glyph-name="sterling" unicode="&#xa3;" horiz-adv-x="1200" 
d="M464 205h714v-205h-1041v207q101 43 173.5 117t72.5 151q0 62 -21 129h-221v205h172q-37 95 -37 227q0 177 114.5 293.5t316.5 116.5q144 0 251 -88.5t154 -222.5l-190 -70q-31 83 -87 129.5t-128 46.5q-109 0 -167.5 -52t-58.5 -157q0 -119 43 -223h477v-205h-430
q13 -58 13 -125q0 -174 -120 -274z" />
    <glyph glyph-name="currency" unicode="&#xa4;" horiz-adv-x="1348" 
d="M303 129l-129 135l107 105q-81 117 -81 261.5t81 262.5l-105 102l129 135l107 -108q118 81 262 82t262 -80l106 104l132 -129l-107 -104q82 -118 82 -264t-82 -264l107 -103l-130 -135l-108 109q-117 -82 -262.5 -82t-263.5 82zM465 426q88 -88 208 -88t206 88
q84 87 84.5 206t-84.5 204q-86 84 -206 83.5t-206 -85.5q-83 -85 -84 -205t82 -203z" />
    <glyph glyph-name="yen" unicode="&#xa5;" horiz-adv-x="1425" 
d="M582 0v211h-316v197h316v133h-316v196h201l-416 676h307l353 -618l354 618h309l-413 -676h196v-196h-311v-133h311v-197h-311v-211h-264z" />
    <glyph glyph-name="brokenbar" unicode="&#xa6;" horiz-adv-x="643" 
d="M221 731v744h201v-744h-201zM221 -307v727h201v-727h-201z" />
    <glyph glyph-name="section" unicode="&#xa7;" horiz-adv-x="1112" 
d="M561 -18q-77 0 -147 17t-130.5 51.5t-103 92.5t-57.5 133l233 70q20 -89 73.5 -128.5t148.5 -39.5q85 0 137.5 28.5t52.5 84.5q0 37 -25.5 63.5t-67.5 40.5t-96 28.5t-110 25.5t-110 33t-96 50.5t-67.5 78.5t-25.5 116q0 114 86 207q-84 76 -84 190q0 74 33 134t88 97.5
t124 58t144 20.5q130 0 233 -55t146 -136l-195 -113q-18 53 -68 84t-124 31q-85 0 -131.5 -37.5t-46.5 -87.5q0 -39 33 -64t85.5 -39t116.5 -26.5t128 -32.5t116.5 -50t85.5 -86t33 -134q0 -118 -80 -205q80 -74 80 -192q0 -80 -36 -141.5t-96.5 -97t-131.5 -53t-148 -17.5z
M684 571q40 14 62 43.5t22 67.5q0 31 -15.5 55t-36 39t-63 30t-72.5 23t-89 21q-23 5 -35 8q-41 -19 -61.5 -54t-20.5 -69t20.5 -59t59.5 -41.5t82.5 -28.5t100.5 -25q10 -2 15.5 -3t14.5 -3t16 -4z" />
    <glyph glyph-name="dieresis" unicode="&#xa8;" horiz-adv-x="842" 
d="M141 1188v225h205v-225h-205zM537 1188v225h204v-225h-204z" />
    <glyph glyph-name="copyright" unicode="&#xa9;" horiz-adv-x="1686" 
d="M844 -29q-156 0 -297 58t-243 156.5t-162 235t-60 286.5t60 286t162 234.5t243.5 156.5t296.5 58t295.5 -58t242.5 -156.5t162 -234.5t60 -286t-60 -286.5t-162 -235t-242.5 -156.5t-295.5 -58zM844 125q165 0 305 78t221.5 212t81.5 292t-81.5 292t-221.5 211.5
t-305 77.5q-125 0 -238 -46t-194.5 -124t-130 -185.5t-48.5 -225.5q0 -158 81.5 -292t222.5 -212t307 -78zM864 279q-97 0 -174.5 35.5t-125 96t-72.5 135.5t-25 159q0 83 24.5 158t72 136t124.5 97.5t174 36.5q126 0 218 -60.5t139 -181.5l-191 -74q-17 60 -61.5 97.5
t-104.5 37.5q-65 0 -110 -37.5t-63.5 -91t-18.5 -118.5q0 -104 47.5 -174t144.5 -70q61 0 105 36t61 95l180 -70q-40 -115 -130.5 -179t-213.5 -64z" />
    <glyph glyph-name="ordfeminine" unicode="&#xaa;" horiz-adv-x="954" 
d="M393 709q-102 0 -175 60.5t-73 158.5q0 111 77 165t202 54h194q0 30 -6 51q-24 100 -149 100q-104 0 -178 -106l-119 80q63 86 133 124t168 38q138 0 216.5 -78t78.5 -207v-426h-133l-4 84q-89 -98 -232 -98zM420 846q56 0 104 30t74 76q17 33 20 62h-184
q-60 0 -94.5 -23t-34.5 -63q0 -33 36 -57.5t79 -24.5z" />
    <glyph glyph-name="guillemotleft" unicode="&#xab;" horiz-adv-x="1028" 
d="M448 156l-428 354l428 356v-211l-180 -145l180 -143v-211zM883 156l-428 354l428 356v-211l-181 -145l181 -143v-211z" />
    <glyph glyph-name="logicalnot" unicode="&#xac;" horiz-adv-x="1300" 
d="M850 291v289h-715v217h948v-506h-233z" />
    <glyph glyph-name="uni00AD" unicode="&#xad;" horiz-adv-x="1010" 
d="M141 508v184h727v-184h-727z" />
    <glyph glyph-name="registered" unicode="&#xae;" horiz-adv-x="1686" 
d="M844 -29q-156 0 -297 58t-243 156.5t-162 235t-60 286.5t60 286t162 234.5t243.5 156.5t296.5 58t295.5 -58t242.5 -156.5t162 -234.5t60 -286t-60 -286.5t-162 -235t-242.5 -156.5t-295.5 -58zM844 125q165 0 305 78t221.5 212t81.5 292t-81.5 292t-221.5 211.5
t-305 77.5q-125 0 -238 -46t-194.5 -124t-130 -185.5t-48.5 -225.5q0 -158 81.5 -292t222.5 -212t307 -78zM590 289v835h270q129 0 211 -68.5t82 -178.5q0 -74 -42.5 -132t-115.5 -86l230 -370h-185l-202 354h-43h-45v-354h-160zM750 774h124q56 3 87.5 30t31.5 70
q0 50 -35 78.5t-96 28.5h-112v-207z" />
    <glyph glyph-name="macron" unicode="&#xaf;" horiz-adv-x="838" 
d="M139 1147v143h559v-143h-559z" />
    <glyph glyph-name="degree" unicode="&#xb0;" horiz-adv-x="877" 
d="M438 848q-120 0 -206.5 86t-86.5 207t86.5 207t206.5 86q122 0 207.5 -86t85.5 -207t-85.5 -207t-207.5 -86zM438 1012q55 0 93 37.5t38 91.5t-38 91.5t-93 37.5q-53 0 -91 -38t-38 -91q0 -54 38 -91.5t91 -37.5z" />
    <glyph glyph-name="plusminus" unicode="&#xb1;" horiz-adv-x="1319" 
d="M567 188v426h-456v185h456v426h185v-426h456v-185h-456v-426h-185zM111 -184v184h1097v-184h-1097z" />
    <glyph glyph-name="acute" unicode="&#xb4;" horiz-adv-x="537" 
d="M33 1124l225 289h260l-307 -289h-178z" />
    <glyph glyph-name="uni00B5" unicode="&#xb5;" horiz-adv-x="1298" 
d="M219 -328v1327h242v-569q0 -101 49.5 -163t140.5 -62q107 0 166.5 61t59.5 187v546h241v-999h-241v117q-56 -70 -135.5 -103.5t-159.5 -33.5q-96 0 -166 34v-342h-197z" />
    <glyph glyph-name="paragraph" unicode="&#xb6;" horiz-adv-x="1303" 
d="M518 -246v869q-119 0 -220.5 45.5t-166.5 137.5t-65 212t65 212t166.5 137.5t220.5 45.5h170v-1659h-170zM909 -246v1659h172v-1659h-172z" />
    <glyph glyph-name="periodcentered" unicode="&#xb7;" horiz-adv-x="616" 
d="M307 590q-62 0 -104.5 43.5t-42.5 105.5t43 105t104 43q62 0 106 -43t44 -105t-43.5 -105.5t-106.5 -43.5z" />
    <glyph glyph-name="cedilla" unicode="&#xb8;" horiz-adv-x="561" 
d="M256 -522q-63 0 -117.5 36t-79.5 93l136 57q8 -20 26 -33.5t41 -13.5q35 0 57.5 22t22.5 56q0 48 -47 79t-121 31h-70l123 193h144l-76 -98q33 -3 55 -13q66 -21 100.5 -68.5t34.5 -115.5q0 -96 -65.5 -160.5t-163.5 -64.5z" />
    <glyph glyph-name="ordmasculine" unicode="&#xba;" horiz-adv-x="991" 
d="M496 711q-157 0 -258 105t-101 257q0 151 101 256t258 105q155 0 255.5 -105t100.5 -256q0 -152 -100 -257t-256 -105zM496 856q96 0 142 59.5t46 157.5t-46 157.5t-142 59.5q-98 0 -144.5 -59.5t-46.5 -157.5t46.5 -157.5t144.5 -59.5z" />
    <glyph glyph-name="guillemotright" unicode="&#xbb;" horiz-adv-x="1028" 
d="M145 156v211l181 143l-181 145v211l428 -356zM580 156v211l180 143l-180 145v211l428 -356z" />
    <glyph glyph-name="questiondown" unicode="&#xbf;" horiz-adv-x="997" 
d="M637 1413v-264h-267v264h267zM610 989v-145q0 -67 -18.5 -117t-48 -79.5t-65 -51.5t-71 -41t-65 -40.5t-48 -56.5t-18.5 -83q0 -97 62 -145t170 -48q229 0 229 240h215q0 -208 -118.5 -325.5t-317.5 -117.5q-124 0 -225 44.5t-164.5 137t-63.5 218.5q0 74 19 133
t48.5 95.5t66 64.5t73 47t66 36.5t48.5 40t19 50.5v143h207z" />
    <glyph glyph-name="Agrave" unicode="&#xc0;" horiz-adv-x="1343" 
d="M582 1536l-308 289h260l226 -289h-178zM12 0l566 1413h190l563 -1413h-274l-113 307h-541l-114 -307h-277zM483 524h381l-190 516z" />
    <glyph glyph-name="Aacute" unicode="&#xc1;" horiz-adv-x="1343" 
d="M553 1536l225 289h260l-307 -289h-178zM12 0l566 1413h190l563 -1413h-274l-113 307h-541l-114 -307h-277zM483 524h381l-190 516z" />
    <glyph glyph-name="Acircumflex" unicode="&#xc2;" horiz-adv-x="1343" 
d="M354 1510l316 352l317 -352h-188l-129 145l-127 -145h-189zM12 0l566 1413h190l563 -1413h-274l-113 307h-541l-114 -307h-277zM483 524h381l-190 516z" />
    <glyph glyph-name="Atilde" unicode="&#xc3;" horiz-adv-x="1343" 
d="M799 1517q-44 0 -80 15t-59 36t-42 42t-39 36t-40 15q-31 0 -48 -35.5t-17 -101.5h-140q0 137 57 211.5t156 74.5q48 0 89.5 -22t65 -48.5t50.5 -48.5t49 -22q27 0 44.5 35.5t17.5 99.5h145q0 -137 -55.5 -212t-153.5 -75zM12 0l566 1413h190l563 -1413h-274l-113 307
h-541l-114 -307h-277zM483 524h381l-190 516z" />
    <glyph glyph-name="Adieresis" unicode="&#xc4;" horiz-adv-x="1343" 
d="M371 1600v225h205v-225h-205zM767 1600v225h204v-225h-204zM12 0l566 1413h190l563 -1413h-274l-113 307h-541l-114 -307h-277zM483 524h381l-190 516z" />
    <glyph glyph-name="Aring" unicode="&#xc5;" horiz-adv-x="1343" 
d="M670 1481q-96 0 -162.5 68.5t-66.5 162.5q0 95 67 162.5t162 67.5t163.5 -67t68.5 -163q0 -97 -67.5 -164t-164.5 -67zM670 1612q45 0 73 29t28 74q0 42 -27 69t-74 27q-44 0 -71 -27t-27 -69q0 -45 28 -74t70 -29zM12 0l566 1413h190l563 -1413h-274l-113 307h-541
l-114 -307h-277zM483 524h381l-190 516z" />
    <glyph glyph-name="AE" unicode="&#xc6;" horiz-adv-x="1982" 
d="M12 0l559 1413h1289v-223h-707v-377h619v-213h-619v-371h707v-229h-961v307h-500l-110 -307h-277zM479 504h420v696h-170z" />
    <glyph glyph-name="Ccedilla" unicode="&#xc7;" horiz-adv-x="1432" 
d="M1384 387q-75 -178 -215 -281.5t-324 -121.5l-65 -84q33 -3 55 -13q66 -21 100.5 -68.5t34.5 -115.5q0 -96 -65.5 -160.5t-163.5 -64.5q-63 0 -117.5 36t-79.5 93l136 57q8 -20 26 -33.5t41 -13.5q35 0 57.5 22t22.5 56q0 48 -47 79t-121 31h-70l113 177
q-153 11 -273.5 73.5t-195 162t-113 224t-38.5 265.5q0 118 26 224.5t80.5 199t134 160.5t192.5 106.5t249 38.5q211 0 372 -104.5t246 -301.5l-237 -94q-74 258 -383 258q-109 0 -192.5 -37.5t-134 -103.5t-76 -150.5t-25.5 -185.5q0 -108 25.5 -196.5t76.5 -156.5
t135 -105.5t195 -37.5q140 0 233.5 61.5t149.5 200.5z" />
    <glyph glyph-name="Egrave" unicode="&#xc8;" horiz-adv-x="1245" 
d="M563 1536l-308 289h260l226 -289h-178zM182 0v1413h940v-233h-686v-357h639v-233h-639v-350h686v-240h-940z" />
    <glyph glyph-name="Eacute" unicode="&#xc9;" horiz-adv-x="1245" 
d="M534 1536l225 289h260l-307 -289h-178zM182 0v1413h940v-233h-686v-357h639v-233h-639v-350h686v-240h-940z" />
    <glyph glyph-name="Ecircumflex" unicode="&#xca;" horiz-adv-x="1245" 
d="M335 1510l316 352l317 -352h-188l-129 145l-127 -145h-189zM182 0v1413h940v-233h-686v-357h639v-233h-639v-350h686v-240h-940z" />
    <glyph glyph-name="Edieresis" unicode="&#xcb;" horiz-adv-x="1245" 
d="M352 1600v225h205v-225h-205zM748 1600v225h204v-225h-204zM182 0v1413h940v-233h-686v-357h639v-233h-639v-350h686v-240h-940z" />
    <glyph glyph-name="Igrave" unicode="&#xcc;" horiz-adv-x="618" 
d="M219 1536l-308 289h260l226 -289h-178zM182 0v1413h254v-1413h-254z" />
    <glyph glyph-name="Iacute" unicode="&#xcd;" horiz-adv-x="618" 
d="M190 1536l225 289h260l-307 -289h-178zM182 0v1413h254v-1413h-254z" />
    <glyph glyph-name="Icircumflex" unicode="&#xce;" horiz-adv-x="618" 
d="M-9 1510l316 352l317 -352h-188l-129 145l-127 -145h-189zM182 0v1413h254v-1413h-254z" />
    <glyph glyph-name="Idieresis" unicode="&#xcf;" horiz-adv-x="618" 
d="M8 1600v225h205v-225h-205zM404 1600v225h204v-225h-204zM182 0v1413h254v-1413h-254z" />
    <glyph glyph-name="Eth" unicode="&#xd0;" horiz-adv-x="1409" 
d="M592 1413q359 0 547 -185.5t188 -531.5q0 -332 -191 -514t-546 -182h-408v625h-146v164h146v624h410zM565 233q121 0 211.5 25t158.5 79.5t103 147t35 222.5q0 252 -112.5 362.5t-372.5 110.5h-152v-391h235v-164h-235v-392h129z" />
    <glyph glyph-name="Ntilde" unicode="&#xd1;" horiz-adv-x="1454" 
d="M594 1661q-31 0 -48 -35.5t-17 -101.5h-140q0 137 57 211.5t156 74.5q48 0 89.5 -22t65 -48.5t50.5 -48.5t49 -22q27 0 44.5 35.5t17.5 99.5h145q0 -137 -55.5 -212t-153.5 -75q-44 0 -80 15t-59 36t-42 42t-39 36t-40 15zM1028 1413h244v-1413h-254l-592 993v-993h-244
v1413h252l594 -988v988z" />
    <glyph glyph-name="Ograve" unicode="&#xd2;" horiz-adv-x="1528" 
d="M674 1536l-308 289h260l226 -289h-178zM764 -20q-136 0 -249.5 38.5t-192.5 106t-134 160t-80.5 199t-25.5 223.5t25.5 223.5t80.5 199t134 160t192.5 106t249.5 38.5t249.5 -38.5t192.5 -106t134 -160t80.5 -199t25.5 -223.5t-25.5 -223.5t-80.5 -199t-134 -160
t-192.5 -106t-249.5 -38.5zM764 205q88 0 159 27t118 73t78.5 110.5t45 136.5t13.5 155q0 82 -13.5 154.5t-45 136.5t-78.5 110t-118 73t-159 27t-159 -27t-118 -73t-78.5 -110t-45 -136.5t-13.5 -154.5q0 -83 13.5 -155t45 -136.5t78.5 -110.5t118 -73t159 -27z" />
    <glyph glyph-name="Oacute" unicode="&#xd3;" horiz-adv-x="1528" 
d="M645 1536l225 289h260l-307 -289h-178zM764 -20q-136 0 -249.5 38.5t-192.5 106t-134 160t-80.5 199t-25.5 223.5t25.5 223.5t80.5 199t134 160t192.5 106t249.5 38.5t249.5 -38.5t192.5 -106t134 -160t80.5 -199t25.5 -223.5t-25.5 -223.5t-80.5 -199t-134 -160
t-192.5 -106t-249.5 -38.5zM764 205q88 0 159 27t118 73t78.5 110.5t45 136.5t13.5 155q0 82 -13.5 154.5t-45 136.5t-78.5 110t-118 73t-159 27t-159 -27t-118 -73t-78.5 -110t-45 -136.5t-13.5 -154.5q0 -83 13.5 -155t45 -136.5t78.5 -110.5t118 -73t159 -27z" />
    <glyph glyph-name="Ocircumflex" unicode="&#xd4;" horiz-adv-x="1528" 
d="M446 1510l316 352l317 -352h-188l-129 145l-127 -145h-189zM764 -20q-136 0 -249.5 38.5t-192.5 106t-134 160t-80.5 199t-25.5 223.5t25.5 223.5t80.5 199t134 160t192.5 106t249.5 38.5t249.5 -38.5t192.5 -106t134 -160t80.5 -199t25.5 -223.5t-25.5 -223.5
t-80.5 -199t-134 -160t-192.5 -106t-249.5 -38.5zM764 205q88 0 159 27t118 73t78.5 110.5t45 136.5t13.5 155q0 82 -13.5 154.5t-45 136.5t-78.5 110t-118 73t-159 27t-159 -27t-118 -73t-78.5 -110t-45 -136.5t-13.5 -154.5q0 -83 13.5 -155t45 -136.5t78.5 -110.5
t118 -73t159 -27z" />
    <glyph glyph-name="Otilde" unicode="&#xd5;" horiz-adv-x="1528" 
d="M891 1517q-44 0 -80 15t-59 36t-42 42t-39 36t-40 15q-31 0 -48 -35.5t-17 -101.5h-140q0 137 57 211.5t156 74.5q48 0 89.5 -22t65 -48.5t50.5 -48.5t49 -22q27 0 44.5 35.5t17.5 99.5h145q0 -137 -55.5 -212t-153.5 -75zM764 -20q-136 0 -249.5 38.5t-192.5 106
t-134 160t-80.5 199t-25.5 223.5t25.5 223.5t80.5 199t134 160t192.5 106t249.5 38.5t249.5 -38.5t192.5 -106t134 -160t80.5 -199t25.5 -223.5t-25.5 -223.5t-80.5 -199t-134 -160t-192.5 -106t-249.5 -38.5zM764 205q88 0 159 27t118 73t78.5 110.5t45 136.5t13.5 155
q0 82 -13.5 154.5t-45 136.5t-78.5 110t-118 73t-159 27t-159 -27t-118 -73t-78.5 -110t-45 -136.5t-13.5 -154.5q0 -83 13.5 -155t45 -136.5t78.5 -110.5t118 -73t159 -27z" />
    <glyph glyph-name="Odieresis" unicode="&#xd6;" horiz-adv-x="1528" 
d="M463 1600v225h205v-225h-205zM859 1600v225h204v-225h-204zM764 -20q-136 0 -249.5 38.5t-192.5 106t-134 160t-80.5 199t-25.5 223.5t25.5 223.5t80.5 199t134 160t192.5 106t249.5 38.5t249.5 -38.5t192.5 -106t134 -160t80.5 -199t25.5 -223.5t-25.5 -223.5
t-80.5 -199t-134 -160t-192.5 -106t-249.5 -38.5zM764 205q88 0 159 27t118 73t78.5 110.5t45 136.5t13.5 155q0 82 -13.5 154.5t-45 136.5t-78.5 110t-118 73t-159 27t-159 -27t-118 -73t-78.5 -110t-45 -136.5t-13.5 -154.5q0 -83 13.5 -155t45 -136.5t78.5 -110.5
t118 -73t159 -27z" />
    <glyph glyph-name="multiply" unicode="&#xd7;" horiz-adv-x="1073" 
d="M838 173l-301 302l-301 -302l-131 131l301 301l-301 302l130 130l301 -302l302 302l131 -131l-302 -301l302 -302z" />
    <glyph glyph-name="Oslash" unicode="&#xd8;" horiz-adv-x="1528" 
d="M1207 1288q118 -99 178.5 -250.5t60.5 -330.5q0 -117 -25.5 -223.5t-80.5 -199t-134 -160t-192.5 -106t-249.5 -38.5q-173 0 -312 63l-26 -43h-182l77 126q-118 99 -178.5 251t-60.5 330q0 117 25.5 223.5t80.5 199t134 160t192.5 106t249.5 38.5q172 0 311 -63l25 42
h182zM350 707q0 -231 102 -363l500 825q-81 39 -188 39q-88 0 -159 -27t-118 -73t-78.5 -110t-45 -136.5t-13.5 -154.5zM764 205q88 0 159 27t118 73t78.5 110.5t45 136.5t13.5 155q0 231 -103 364l-501 -826q82 -40 190 -40z" />
    <glyph glyph-name="Ugrave" unicode="&#xd9;" horiz-adv-x="1380" 
d="M596 1536l-308 289h260l226 -289h-178zM690 -20q-275 0 -407.5 150.5t-132.5 420.5v862h253v-833q0 -182 62.5 -268.5t224.5 -86.5q163 0 225 86.5t62 268.5v833h254v-852q0 -277 -132.5 -429t-408.5 -152z" />
    <glyph glyph-name="Uacute" unicode="&#xda;" horiz-adv-x="1380" 
d="M567 1536l225 289h260l-307 -289h-178zM690 -20q-275 0 -407.5 150.5t-132.5 420.5v862h253v-833q0 -182 62.5 -268.5t224.5 -86.5q163 0 225 86.5t62 268.5v833h254v-852q0 -277 -132.5 -429t-408.5 -152z" />
    <glyph glyph-name="Ucircumflex" unicode="&#xdb;" horiz-adv-x="1380" 
d="M368 1510l316 352l317 -352h-188l-129 145l-127 -145h-189zM690 -20q-275 0 -407.5 150.5t-132.5 420.5v862h253v-833q0 -182 62.5 -268.5t224.5 -86.5q163 0 225 86.5t62 268.5v833h254v-852q0 -277 -132.5 -429t-408.5 -152z" />
    <glyph glyph-name="Udieresis" unicode="&#xdc;" horiz-adv-x="1380" 
d="M385 1600v225h205v-225h-205zM781 1600v225h204v-225h-204zM690 -20q-275 0 -407.5 150.5t-132.5 420.5v862h253v-833q0 -182 62.5 -268.5t224.5 -86.5q163 0 225 86.5t62 268.5v833h254v-852q0 -277 -132.5 -429t-408.5 -152z" />
    <glyph glyph-name="Yacute" unicode="&#xdd;" horiz-adv-x="1319" 
d="M538 1538l225 289h260l-307 -289h-178zM528 0v551l-530 862h307l352 -618l355 618h309l-528 -862v-551h-265z" />
    <glyph glyph-name="Thorn" unicode="&#xde;" horiz-adv-x="1151" 
d="M182 0v1413h232v-194h256q210 0 322 -107t112 -293q0 -206 -134 -314t-356 -108h-200v-397h-232zM414 608h200q258 0 258 203q0 209 -258 209h-200v-412z" />
    <glyph glyph-name="germandbls" unicode="&#xdf;" horiz-adv-x="1186" 
d="M729 -18q-98 0 -203 36l84 207q56 -22 113 -22q63 0 100 33t37 83q0 44 -30.5 85t-74 76t-86.5 73t-73.5 92t-30.5 117q0 54 22.5 94t54.5 63.5t63.5 44.5t54 50t22.5 67q0 58 -47 101t-139 43q-102 0 -154.5 -55t-52.5 -150v-1020h-242v1020q0 96 36 175.5t96.5 131
t138.5 79.5t164 28q111 0 211 -44t165.5 -130t65.5 -195q0 -65 -24 -113.5t-58.5 -75t-68.5 -45.5t-58 -38t-24 -41q0 -25 32.5 -53.5t78.5 -60t92.5 -71.5t79 -104t32.5 -141q0 -149 -107.5 -244.5t-269.5 -95.5z" />
    <glyph glyph-name="agrave" unicode="&#xe0;" horiz-adv-x="1061" 
d="M592 1124h-178l-308 289h260zM514 1020q201 0 316.5 -114t115.5 -300v-606h-201l-15 133q-46 -74 -133.5 -113.5t-178.5 -39.5q-159 0 -261 87t-102 240q0 64 20 113.5t55 82t86 54t109 30.5t128 9h271q-4 115 -48 163t-160 48q-80 0 -139.5 -39.5t-95.5 -101.5l-187 135
q160 219 420 219zM467 186q107 0 176.5 66t81.5 160v8h-258q-79 0 -120.5 -35t-41.5 -86t41.5 -82t120.5 -31z" />
    <glyph glyph-name="aacute" unicode="&#xe1;" horiz-adv-x="1061" 
d="M870 1413l-307 -289h-178l225 289h260zM514 1020q201 0 316.5 -114t115.5 -300v-606h-201l-15 133q-46 -74 -133.5 -113.5t-178.5 -39.5q-159 0 -261 87t-102 240q0 64 20 113.5t55 82t86 54t109 30.5t128 9h271q-4 115 -48 163t-160 48q-80 0 -139.5 -39.5t-95.5 -101.5
l-187 135q160 219 420 219zM467 186q107 0 176.5 66t81.5 160v8h-258q-79 0 -120.5 -35t-41.5 -86t41.5 -82t120.5 -31z" />
    <glyph glyph-name="acircumflex" unicode="&#xe2;" horiz-adv-x="1061" 
d="M502 1243l-127 -145h-189l316 352l317 -352h-188zM514 1020q201 0 316.5 -114t115.5 -300v-606h-201l-15 133q-46 -74 -133.5 -113.5t-178.5 -39.5q-159 0 -261 87t-102 240q0 64 20 113.5t55 82t86 54t109 30.5t128 9h271q-4 115 -48 163t-160 48q-80 0 -139.5 -39.5
t-95.5 -101.5l-187 135q160 219 420 219zM467 186q107 0 176.5 66t81.5 160v8h-258q-79 0 -120.5 -35t-41.5 -86t41.5 -82t120.5 -31z" />
    <glyph glyph-name="atilde" unicode="&#xe3;" horiz-adv-x="1061" 
d="M371 1249q-31 0 -48 -35.5t-17 -101.5h-140q0 137 57 211.5t156 74.5q48 0 89.5 -22t65 -48.5t50.5 -48.5t49 -22q27 0 44.5 35.5t17.5 99.5h145q0 -137 -55.5 -212t-153.5 -75q-44 0 -80 15t-59 36t-42 42t-39 36t-40 15zM514 1020q201 0 316.5 -114t115.5 -300v-606
h-201l-15 133q-46 -74 -133.5 -113.5t-178.5 -39.5q-159 0 -261 87t-102 240q0 64 20 113.5t55 82t86 54t109 30.5t128 9h271q-4 115 -48 163t-160 48q-80 0 -139.5 -39.5t-95.5 -101.5l-187 135q160 219 420 219zM467 186q107 0 176.5 66t81.5 160v8h-258q-79 0 -120.5 -35
t-41.5 -86t41.5 -82t120.5 -31z" />
    <glyph glyph-name="adieresis" unicode="&#xe4;" horiz-adv-x="1061" 
d="M408 1413v-225h-205v225h205zM803 1413v-225h-204v225h204zM514 1020q201 0 316.5 -114t115.5 -300v-606h-201l-15 133q-46 -74 -133.5 -113.5t-178.5 -39.5q-159 0 -261 87t-102 240q0 64 20 113.5t55 82t86 54t109 30.5t128 9h271q-4 115 -48 163t-160 48
q-80 0 -139.5 -39.5t-95.5 -101.5l-187 135q160 219 420 219zM467 186q107 0 176.5 66t81.5 160v8h-258q-79 0 -120.5 -35t-41.5 -86t41.5 -82t120.5 -31z" />
    <glyph glyph-name="aring" unicode="&#xe5;" horiz-adv-x="1061" 
d="M502 1069q-96 0 -162.5 68.5t-66.5 162.5q0 95 67 162.5t162 67.5t163.5 -67t68.5 -163q0 -97 -67.5 -164t-164.5 -67zM502 1399q-44 0 -71 -27t-27 -69q0 -45 28 -74t70 -29q45 0 73 29t28 74q0 42 -27 69t-74 27zM514 1020q201 0 316.5 -114t115.5 -300v-606h-201
l-15 133q-46 -74 -133.5 -113.5t-178.5 -39.5q-159 0 -261 87t-102 240q0 64 20 113.5t55 82t86 54t109 30.5t128 9h271q-4 115 -48 163t-160 48q-80 0 -139.5 -39.5t-95.5 -101.5l-187 135q160 219 420 219zM467 186q107 0 176.5 66t81.5 160v8h-258q-79 0 -120.5 -35
t-41.5 -86t41.5 -82t120.5 -31z" />
    <glyph glyph-name="ae" unicode="&#xe6;" horiz-adv-x="1677" 
d="M399 -20q-146 0 -250 86.5t-104 226.5q0 82 30.5 142t86 94.5t125.5 50.5t157 16h271q0 44 -10 86q-17 65 -67.5 96t-139.5 31q-74 0 -136.5 -36.5t-99.5 -90.5l-172 125q77 105 177.5 157t238.5 52q111 0 201 -43.5t141 -120.5q127 160 319 160q99 0 177.5 -29t129 -78
t84 -116.5t47 -139.5t13.5 -153q0 -14 -2.5 -33t-5.5 -31l-2 -12h-662q21 -215 217 -215q81 0 138.5 23.5t109.5 78.5l170 -147q-87 -92 -187.5 -132t-228.5 -40q-249 0 -358 164q-76 -83 -166 -127.5t-242 -44.5zM944 596h434q0 34 -10 72q-19 67 -76 103t-145 36
q-97 0 -150 -63t-53 -148zM438 160q98 0 167 37t128 110q-14 44 -18 113h-256q-85 0 -135 -35t-50 -90q0 -59 45.5 -97t118.5 -38z" />
    <glyph glyph-name="ccedilla" unicode="&#xe7;" horiz-adv-x="1004" 
d="M539 201q72 0 126 43.5t74 115.5l222 -84q-44 -125 -138.5 -201.5t-222.5 -91.5l-65 -83q33 -3 55 -13q66 -21 100.5 -68.5t34.5 -115.5q0 -96 -65.5 -160.5t-163.5 -64.5q-63 0 -117.5 36t-79.5 93l136 57q8 -20 26 -33.5t41 -13.5q35 0 57.5 22t22.5 56q0 48 -47 79
t-121 31h-70l115 181q-130 18 -223 95.5t-136 184.5t-43 232q0 101 30 192.5t88 166t152 119t212 44.5q152 0 264 -74.5t168 -220.5l-232 -90q-20 74 -73.5 119t-126.5 45q-49 0 -89 -17t-66.5 -46t-44.5 -68t-26 -81.5t-8 -88.5q0 -59 13 -110.5t40 -94.5t73.5 -67.5
t107.5 -24.5z" />
    <glyph glyph-name="egrave" unicode="&#xe8;" horiz-adv-x="1069" 
d="M438 1124l-308 289h260l226 -289h-178zM563 -20q-125 0 -223.5 42.5t-159 115t-92 164t-31.5 194.5q0 100 30 192t87.5 167t154 120t218.5 45q101 0 182 -31.5t132.5 -81.5t86 -117.5t48.5 -135t14 -138.5t-9 -96h-686q35 -219 250 -219q145 0 240 106l168 -147
q-162 -180 -410 -180zM315 596h455q0 36 -8 63q-18 75 -76.5 115.5t-140.5 40.5q-190 0 -230 -219z" />
    <glyph glyph-name="eacute" unicode="&#xe9;" horiz-adv-x="1069" 
d="M409 1124l225 289h260l-307 -289h-178zM563 -20q-125 0 -223.5 42.5t-159 115t-92 164t-31.5 194.5q0 100 30 192t87.5 167t154 120t218.5 45q101 0 182 -31.5t132.5 -81.5t86 -117.5t48.5 -135t14 -138.5t-9 -96h-686q35 -219 250 -219q145 0 240 106l168 -147
q-162 -180 -410 -180zM315 596h455q0 36 -8 63q-18 75 -76.5 115.5t-140.5 40.5q-190 0 -230 -219z" />
    <glyph glyph-name="ecircumflex" unicode="&#xea;" horiz-adv-x="1069" 
d="M210 1098l316 352l317 -352h-188l-129 145l-127 -145h-189zM563 -20q-125 0 -223.5 42.5t-159 115t-92 164t-31.5 194.5q0 100 30 192t87.5 167t154 120t218.5 45q101 0 182 -31.5t132.5 -81.5t86 -117.5t48.5 -135t14 -138.5t-9 -96h-686q35 -219 250 -219
q145 0 240 106l168 -147q-162 -180 -410 -180zM315 596h455q0 36 -8 63q-18 75 -76.5 115.5t-140.5 40.5q-190 0 -230 -219z" />
    <glyph glyph-name="edieresis" unicode="&#xeb;" horiz-adv-x="1069" 
d="M227 1188v225h205v-225h-205zM623 1188v225h204v-225h-204zM563 -20q-125 0 -223.5 42.5t-159 115t-92 164t-31.5 194.5q0 100 30 192t87.5 167t154 120t218.5 45q101 0 182 -31.5t132.5 -81.5t86 -117.5t48.5 -135t14 -138.5t-9 -96h-686q35 -219 250 -219
q145 0 240 106l168 -147q-162 -180 -410 -180zM315 596h455q0 36 -8 63q-18 75 -76.5 115.5t-140.5 40.5q-190 0 -230 -219z" />
    <glyph glyph-name="igrave" unicode="&#xec;" horiz-adv-x="535" 
d="M178 1124l-308 289h260l226 -289h-178zM145 0v999h244v-999h-244z" />
    <glyph glyph-name="iacute" unicode="&#xed;" horiz-adv-x="535" 
d="M149 1124l225 289h260l-307 -289h-178zM145 0v999h244v-999h-244z" />
    <glyph glyph-name="icircumflex" unicode="&#xee;" horiz-adv-x="535" 
d="M-50 1098l316 352l317 -352h-188l-129 145l-127 -145h-189zM145 0v999h244v-999h-244z" />
    <glyph glyph-name="idieresis" unicode="&#xef;" horiz-adv-x="535" 
d="M-33 1188v225h205v-225h-205zM363 1188v225h204v-225h-204zM145 0v999h244v-999h-244z" />
    <glyph glyph-name="eth" unicode="&#xf0;" horiz-adv-x="1178" 
d="M563 -20q-109 0 -206 40.5t-164.5 108.5t-106.5 158.5t-39 187.5q0 134 70 243.5t187.5 169.5t256.5 60h31l-92 139l-47 -53h-131l122 140l-157 239h270l47 -65l53 65h129l-122 -139l337 -557q76 -122 76 -250q0 -133 -68.5 -245t-187 -177t-258.5 -65zM561 217
q111 0 189.5 75t78.5 181t-78.5 181t-189.5 75q-109 0 -187.5 -75t-78.5 -181t78.5 -181t187.5 -75z" />
    <glyph glyph-name="ntilde" unicode="&#xf1;" horiz-adv-x="1163" 
d="M715 1105q-44 0 -80 15t-59 36t-42 42t-39 36t-40 15q-31 0 -48 -35.5t-17 -101.5h-140q0 137 57 211.5t156 74.5q48 0 89.5 -22t65 -48.5t50.5 -48.5t49 -22q27 0 44.5 35.5t17.5 99.5h145q0 -137 -55.5 -212t-153.5 -75zM145 0v999h244v-116q57 69 135 103t158 34
q94 0 166.5 -35.5t114.5 -96.5t63 -133.5t21 -154.5v-600h-244v569q0 101 -50 163.5t-141 62.5q-106 0 -164.5 -60.5t-58.5 -187.5v-547h-244z" />
    <glyph glyph-name="ograve" unicode="&#xf2;" horiz-adv-x="1128" 
d="M473 1124l-308 289h260l226 -289h-178zM563 -20q-113 0 -210 42t-162.5 113t-102.5 166t-37 201q0 141 62.5 258.5t181 188.5t268.5 71t268.5 -71t181 -188.5t62.5 -258.5q0 -106 -37 -201t-102.5 -166t-162.5 -113t-210 -42zM563 190q130 0 194 88.5t64 223.5
q0 86 -25 153t-84.5 110.5t-148.5 43.5q-130 0 -194 -86.5t-64 -220.5q0 -86 25 -154t85 -113t148 -45z" />
    <glyph glyph-name="oacute" unicode="&#xf3;" horiz-adv-x="1128" 
d="M444 1124l225 289h260l-307 -289h-178zM563 -20q-113 0 -210 42t-162.5 113t-102.5 166t-37 201q0 141 62.5 258.5t181 188.5t268.5 71t268.5 -71t181 -188.5t62.5 -258.5q0 -106 -37 -201t-102.5 -166t-162.5 -113t-210 -42zM563 190q130 0 194 88.5t64 223.5
q0 86 -25 153t-84.5 110.5t-148.5 43.5q-130 0 -194 -86.5t-64 -220.5q0 -86 25 -154t85 -113t148 -45z" />
    <glyph glyph-name="ocircumflex" unicode="&#xf4;" horiz-adv-x="1128" 
d="M245 1098l316 352l317 -352h-188l-129 145l-127 -145h-189zM563 -20q-113 0 -210 42t-162.5 113t-102.5 166t-37 201q0 141 62.5 258.5t181 188.5t268.5 71t268.5 -71t181 -188.5t62.5 -258.5q0 -106 -37 -201t-102.5 -166t-162.5 -113t-210 -42zM563 190q130 0 194 88.5
t64 223.5q0 86 -25 153t-84.5 110.5t-148.5 43.5q-130 0 -194 -86.5t-64 -220.5q0 -86 25 -154t85 -113t148 -45z" />
    <glyph glyph-name="otilde" unicode="&#xf5;" horiz-adv-x="1128" 
d="M690 1105q-44 0 -80 15t-59 36t-42 42t-39 36t-40 15q-31 0 -48 -35.5t-17 -101.5h-140q0 137 57 211.5t156 74.5q48 0 89.5 -22t65 -48.5t50.5 -48.5t49 -22q27 0 44.5 35.5t17.5 99.5h145q0 -137 -55.5 -212t-153.5 -75zM563 -20q-113 0 -210 42t-162.5 113t-102.5 166
t-37 201q0 141 62.5 258.5t181 188.5t268.5 71t268.5 -71t181 -188.5t62.5 -258.5q0 -106 -37 -201t-102.5 -166t-162.5 -113t-210 -42zM563 190q130 0 194 88.5t64 223.5q0 86 -25 153t-84.5 110.5t-148.5 43.5q-130 0 -194 -86.5t-64 -220.5q0 -86 25 -154t85 -113
t148 -45z" />
    <glyph glyph-name="odieresis" unicode="&#xf6;" horiz-adv-x="1128" 
d="M262 1188v225h205v-225h-205zM658 1188v225h204v-225h-204zM563 -20q-113 0 -210 42t-162.5 113t-102.5 166t-37 201q0 141 62.5 258.5t181 188.5t268.5 71t268.5 -71t181 -188.5t62.5 -258.5q0 -106 -37 -201t-102.5 -166t-162.5 -113t-210 -42zM563 190q130 0 194 88.5
t64 223.5q0 86 -25 153t-84.5 110.5t-148.5 43.5q-130 0 -194 -86.5t-64 -220.5q0 -86 25 -154t85 -113t148 -45z" />
    <glyph glyph-name="divide" unicode="&#xf7;" horiz-adv-x="1020" 
d="M377 834v264h266v-264h-266zM84 537v184h852v-184h-852zM377 143v265h266v-265h-266z" />
    <glyph glyph-name="oslash" unicode="&#xf8;" horiz-adv-x="1128" 
d="M879 917q93 -71 144.5 -180t51.5 -235q0 -106 -37 -201t-102.5 -166t-162.5 -113t-210 -42q-120 0 -223 47l-17 -28h-129l52 86q-92 72 -143.5 181.5t-51.5 235.5q0 141 62.5 258.5t181 188.5t268.5 71q117 0 222 -46l15 25h129zM305 502q0 -135 61 -219l306 505
q-46 21 -109 21q-130 0 -194 -86.5t-64 -220.5zM563 190q130 0 194 88.5t64 223.5q0 136 -61 217l-308 -507q50 -22 111 -22z" />
    <glyph glyph-name="ugrave" unicode="&#xf9;" horiz-adv-x="1161" 
d="M492 1124l-308 289h260l226 -289h-178zM479 -20q-94 0 -166 35.5t-113.5 96t-62 133t-20.5 154.5v600h241v-569q0 -101 50 -163t141 -62q107 0 166 61t59 187v546h242v-999h-242v117q-56 -70 -135 -103.5t-160 -33.5z" />
    <glyph glyph-name="uacute" unicode="&#xfa;" horiz-adv-x="1161" 
d="M463 1124l225 289h260l-307 -289h-178zM479 -20q-94 0 -166 35.5t-113.5 96t-62 133t-20.5 154.5v600h241v-569q0 -101 50 -163t141 -62q107 0 166 61t59 187v546h242v-999h-242v117q-56 -70 -135 -103.5t-160 -33.5z" />
    <glyph glyph-name="ucircumflex" unicode="&#xfb;" horiz-adv-x="1161" 
d="M264 1098l316 352l317 -352h-188l-129 145l-127 -145h-189zM479 -20q-94 0 -166 35.5t-113.5 96t-62 133t-20.5 154.5v600h241v-569q0 -101 50 -163t141 -62q107 0 166 61t59 187v546h242v-999h-242v117q-56 -70 -135 -103.5t-160 -33.5z" />
    <glyph glyph-name="udieresis" unicode="&#xfc;" horiz-adv-x="1161" 
d="M281 1188v225h205v-225h-205zM677 1188v225h204v-225h-204zM479 -20q-94 0 -166 35.5t-113.5 96t-62 133t-20.5 154.5v600h241v-569q0 -101 50 -163t141 -62q107 0 166 61t59 187v546h242v-999h-242v117q-56 -70 -135 -103.5t-160 -33.5z" />
    <glyph glyph-name="yacute" unicode="&#xfd;" horiz-adv-x="1032" 
d="M397 1124l225 289h260l-307 -289h-178zM201 -430l184 457l-391 972h268l252 -694l256 694h268l-571 -1429h-266z" />
    <glyph glyph-name="thorn" unicode="&#xfe;" horiz-adv-x="1176" 
d="M684 1020q101 0 183.5 -42.5t135 -114.5t81 -165t28.5 -198q0 -106 -28.5 -199.5t-81.5 -165t-136.5 -113.5t-185.5 -42q-183 0 -281 120v-514h-252v1827h252v-514q50 61 125.5 91t159.5 30zM623 795q-121 0 -183.5 -81.5t-62.5 -213.5q0 -133 62.5 -216t183.5 -83
q120 0 181.5 83.5t61.5 215.5t-61 213.5t-182 81.5z" />
    <glyph glyph-name="ydieresis" unicode="&#xff;" horiz-adv-x="1032" 
d="M215 1188v225h205v-225h-205zM611 1188v225h204v-225h-204zM201 -430l184 457l-391 972h268l252 -694l256 694h268l-571 -1429h-266z" />
    <glyph glyph-name="Amacron" unicode="&#x100;" horiz-adv-x="1343" 
d="M391 1559v143h559v-143h-559zM12 0l566 1413h190l563 -1413h-274l-113 307h-541l-114 -307h-277zM483 524h381l-190 516z" />
    <glyph glyph-name="amacron" unicode="&#x101;" horiz-adv-x="1061" 
d="M782 1290v-143h-559v143h559zM514 1020q201 0 316.5 -114t115.5 -300v-606h-201l-15 133q-46 -74 -133.5 -113.5t-178.5 -39.5q-159 0 -261 87t-102 240q0 64 20 113.5t55 82t86 54t109 30.5t128 9h271q-4 115 -48 163t-160 48q-80 0 -139.5 -39.5t-95.5 -101.5l-187 135
q160 219 420 219zM467 186q107 0 176.5 66t81.5 160v8h-258q-79 0 -120.5 -35t-41.5 -86t41.5 -82t120.5 -31z" />
    <glyph glyph-name="Abreve" unicode="&#x102;" horiz-adv-x="1343" 
d="M672 1555q-316 0 -316 270h172q0 -63 40 -95t104 -32t103.5 33t39.5 94h172q0 -270 -315 -270zM12 0l566 1413h190l563 -1413h-274l-113 307h-541l-114 -307h-277zM483 524h381l-190 516z" />
    <glyph glyph-name="abreve" unicode="&#x103;" horiz-adv-x="1061" 
d="M504 1143q-316 0 -316 270h172q0 -63 40 -95t104 -32t103.5 33t39.5 94h172q0 -270 -315 -270zM514 1020q201 0 316.5 -114t115.5 -300v-606h-201l-15 133q-46 -74 -133.5 -113.5t-178.5 -39.5q-159 0 -261 87t-102 240q0 64 20 113.5t55 82t86 54t109 30.5t128 9h271
q-4 115 -48 163t-160 48q-80 0 -139.5 -39.5t-95.5 -101.5l-187 135q160 219 420 219zM467 186q107 0 176.5 66t81.5 160v8h-258q-79 0 -120.5 -35t-41.5 -86t41.5 -82t120.5 -31z" />
    <glyph glyph-name="Aogonek" unicode="&#x104;" horiz-adv-x="1343" 
d="M1299 -244l122 -84q-81 -123 -219 -123q-98 0 -161.5 57t-63.5 148q0 45 17 87t41 70t48 49t41 30l17 10h-84l-113 307h-541l-114 -307h-277l566 1413h190l563 -1413q-14 -4 -42.5 -18.5t-68.5 -41t-69 -67.5t-29 -86q0 -88 74 -88q61 0 103 57zM483 524h381l-190 516z
" />
    <glyph glyph-name="aogonek" unicode="&#x105;" horiz-adv-x="1061" 
d="M914 -244l122 -84q-81 -123 -219 -123q-98 0 -161.5 57t-63.5 148q0 45 17 87t41 70t48 49t41 30l17 10h-11l-15 133q-46 -74 -133.5 -113.5t-178.5 -39.5q-159 0 -261 87t-102 240q0 64 20 113.5t55 82t86 54t109 30.5t128 9h271q-4 115 -48 163t-160 48
q-80 0 -139.5 -39.5t-95.5 -101.5l-187 135q160 219 420 219q201 0 316.5 -114t115.5 -300v-606q-14 -4 -42.5 -18.5t-68.5 -41t-69 -67.5t-29 -86q0 -88 74 -88q61 0 103 57zM467 186q107 0 176.5 66t81.5 160v8h-258q-79 0 -120.5 -35t-41.5 -86t41.5 -82t120.5 -31z" />
    <glyph glyph-name="Cacute" unicode="&#x106;" horiz-adv-x="1432" 
d="M594 1536l225 289h260l-307 -289h-178zM766 -20q-169 0 -302 58.5t-215 160t-124.5 231t-42.5 277.5q0 118 26 224.5t80.5 199t134 160.5t192.5 106.5t249 38.5q211 0 372 -104.5t246 -301.5l-237 -94q-74 258 -383 258q-109 0 -192.5 -37.5t-134 -103.5t-76 -150.5
t-25.5 -185.5q0 -108 25.5 -196.5t76.5 -156.5t135 -105.5t195 -37.5q140 0 233.5 61.5t149.5 200.5l235 -96q-83 -197 -244.5 -302t-373.5 -105z" />
    <glyph glyph-name="cacute" unicode="&#x107;" horiz-adv-x="1004" 
d="M420 1124l225 289h260l-307 -289h-178zM541 -20q-118 0 -212.5 43.5t-152.5 116.5t-88.5 165t-30.5 193t30 192.5t88 166t152 119t212 44.5q152 0 264 -74.5t168 -220.5l-232 -90q-20 74 -73.5 119t-126.5 45q-49 0 -89 -17t-66.5 -46t-44.5 -68t-26 -81.5t-8 -88.5
q0 -59 13 -110.5t40 -94.5t73.5 -67.5t107.5 -24.5q72 0 126 43.5t74 115.5l222 -84q-50 -140 -161 -218t-259 -78z" />
    <glyph glyph-name="Cdotaccent" unicode="&#x10a;" horiz-adv-x="1432" 
d="M584 1600v225h256v-225h-256zM766 -20q-169 0 -302 58.5t-215 160t-124.5 231t-42.5 277.5q0 118 26 224.5t80.5 199t134 160.5t192.5 106.5t249 38.5q211 0 372 -104.5t246 -301.5l-237 -94q-74 258 -383 258q-109 0 -192.5 -37.5t-134 -103.5t-76 -150.5t-25.5 -185.5
q0 -108 25.5 -196.5t76.5 -156.5t135 -105.5t195 -37.5q140 0 233.5 61.5t149.5 200.5l235 -96q-83 -197 -244.5 -302t-373.5 -105z" />
    <glyph glyph-name="cdotaccent" unicode="&#x10b;" horiz-adv-x="1004" 
d="M410 1188v225h256v-225h-256zM541 -20q-118 0 -212.5 43.5t-152.5 116.5t-88.5 165t-30.5 193t30 192.5t88 166t152 119t212 44.5q152 0 264 -74.5t168 -220.5l-232 -90q-20 74 -73.5 119t-126.5 45q-49 0 -89 -17t-66.5 -46t-44.5 -68t-26 -81.5t-8 -88.5
q0 -59 13 -110.5t40 -94.5t73.5 -67.5t107.5 -24.5q72 0 126 43.5t74 115.5l222 -84q-50 -140 -161 -218t-259 -78z" />
    <glyph glyph-name="Ccaron" unicode="&#x10c;" horiz-adv-x="1432" 
d="M711 1493l-316 332h189l127 -135l129 135h188zM766 -20q-169 0 -302 58.5t-215 160t-124.5 231t-42.5 277.5q0 118 26 224.5t80.5 199t134 160.5t192.5 106.5t249 38.5q211 0 372 -104.5t246 -301.5l-237 -94q-74 258 -383 258q-109 0 -192.5 -37.5t-134 -103.5
t-76 -150.5t-25.5 -185.5q0 -108 25.5 -196.5t76.5 -156.5t135 -105.5t195 -37.5q140 0 233.5 61.5t149.5 200.5l235 -96q-83 -197 -244.5 -302t-373.5 -105z" />
    <glyph glyph-name="ccaron" unicode="&#x10d;" horiz-adv-x="1004" 
d="M537 1081l-316 332h189l127 -135l129 135h188zM541 -20q-118 0 -212.5 43.5t-152.5 116.5t-88.5 165t-30.5 193t30 192.5t88 166t152 119t212 44.5q152 0 264 -74.5t168 -220.5l-232 -90q-20 74 -73.5 119t-126.5 45q-49 0 -89 -17t-66.5 -46t-44.5 -68t-26 -81.5
t-8 -88.5q0 -59 13 -110.5t40 -94.5t73.5 -67.5t107.5 -24.5q72 0 126 43.5t74 115.5l222 -84q-50 -140 -161 -218t-259 -78z" />
    <glyph glyph-name="Dcaron" unicode="&#x10e;" horiz-adv-x="1409" 
d="M719 1493l-316 332h189l127 -135l129 135h188zM182 0v1413h410q359 0 547 -185.5t188 -531.5q0 -332 -191 -514t-546 -182h-408zM436 233h129q121 0 211.5 25t158.5 79.5t103 147t35 222.5q0 252 -112.5 362.5t-372.5 110.5h-152v-947z" />
    <glyph glyph-name="dcaron" unicode="&#x10f;" horiz-adv-x="1171" 
d="M496 -20q-136 0 -236 72.5t-148.5 189t-48.5 258.5q0 141 48.5 257.5t147.5 189.5t233 73q84 0 159.5 -30t124.5 -91v514h248v-1413h-227l-11 113q-97 -133 -290 -133zM1130 958l115 455h256l-228 -455h-143zM555 201q121 0 181.5 82t60.5 217q0 134 -61 216.5t-181 82.5
t-182 -83.5t-62 -215.5q0 -133 61.5 -216t182.5 -83z" />
    <glyph glyph-name="Dcroat" unicode="&#x110;" horiz-adv-x="1409" 
d="M592 1413q359 0 547 -185.5t188 -531.5q0 -332 -191 -514t-546 -182h-408v625h-146v164h146v624h410zM565 233q121 0 211.5 25t158.5 79.5t103 147t35 222.5q0 252 -112.5 362.5t-372.5 110.5h-152v-391h235v-164h-235v-392h129z" />
    <glyph glyph-name="dcroat" unicode="&#x111;" horiz-adv-x="1171" 
d="M1155 1303v-164h-131v-1139h-227l-11 113q-97 -133 -290 -133q-136 0 -236 72.5t-148.5 189t-48.5 258.5q0 141 48.5 257.5t147.5 189.5t233 73q84 0 159.5 -30t124.5 -91v240h-256v164h256v110h248v-110h131zM555 201q121 0 181.5 82t60.5 217q0 134 -61 216.5
t-181 82.5t-182 -83.5t-62 -215.5q0 -133 61.5 -216t182.5 -83z" />
    <glyph glyph-name="Emacron" unicode="&#x112;" horiz-adv-x="1245" 
d="M372 1559v143h559v-143h-559zM182 0v1413h940v-233h-686v-357h639v-233h-639v-350h686v-240h-940z" />
    <glyph glyph-name="emacron" unicode="&#x113;" horiz-adv-x="1069" 
d="M247 1147v143h559v-143h-559zM563 -20q-125 0 -223.5 42.5t-159 115t-92 164t-31.5 194.5q0 100 30 192t87.5 167t154 120t218.5 45q101 0 182 -31.5t132.5 -81.5t86 -117.5t48.5 -135t14 -138.5t-9 -96h-686q35 -219 250 -219q145 0 240 106l168 -147
q-162 -180 -410 -180zM315 596h455q0 36 -8 63q-18 75 -76.5 115.5t-140.5 40.5q-190 0 -230 -219z" />
    <glyph glyph-name="Edotaccent" unicode="&#x116;" horiz-adv-x="1245" 
d="M524 1600v225h256v-225h-256zM182 0v1413h940v-233h-686v-357h639v-233h-639v-350h686v-240h-940z" />
    <glyph glyph-name="edotaccent" unicode="&#x117;" horiz-adv-x="1069" 
d="M399 1188v225h256v-225h-256zM563 -20q-125 0 -223.5 42.5t-159 115t-92 164t-31.5 194.5q0 100 30 192t87.5 167t154 120t218.5 45q101 0 182 -31.5t132.5 -81.5t86 -117.5t48.5 -135t14 -138.5t-9 -96h-686q35 -219 250 -219q145 0 240 106l168 -147
q-162 -180 -410 -180zM315 596h455q0 36 -8 63q-18 75 -76.5 115.5t-140.5 40.5q-190 0 -230 -219z" />
    <glyph glyph-name="Eogonek" unicode="&#x118;" horiz-adv-x="1245" 
d="M1090 -244l122 -84q-81 -123 -219 -123q-98 0 -161.5 57t-63.5 148q0 45 17 87t41 70t48 49t41 30l17 10h-750v1413h940v-233h-686v-357h639v-233h-639v-350h686v-240q-14 -4 -42.5 -18.5t-68.5 -41t-69 -67.5t-29 -86q0 -88 74 -88q61 0 103 57z" />
    <glyph glyph-name="eogonek" unicode="&#x119;" horiz-adv-x="1069" 
d="M1010 516q0 -71 -9 -96h-686q35 -219 250 -219q145 0 240 106l168 -147q-101 -111 -230 -153q-127 -77 -127 -173q0 -88 74 -88q61 0 103 57l122 -84q-81 -123 -219 -123q-98 0 -161.5 57t-63.5 148q0 99 78 179q-98 2 -179.5 31t-138.5 77.5t-97 113.5t-58.5 139
t-18.5 155q0 100 30 192t87.5 167t154 120t218.5 45q101 0 182 -31.5t132.5 -81.5t86 -117.5t48.5 -135t14 -138.5zM315 596h455q0 36 -8 63q-18 75 -76.5 115.5t-140.5 40.5q-190 0 -230 -219z" />
    <glyph glyph-name="Ecaron" unicode="&#x11a;" horiz-adv-x="1245" 
d="M651 1493l-316 332h189l127 -135l129 135h188zM182 0v1413h940v-233h-686v-357h639v-233h-639v-350h686v-240h-940z" />
    <glyph glyph-name="ecaron" unicode="&#x11b;" horiz-adv-x="1069" 
d="M526 1081l-316 332h189l127 -135l129 135h188zM563 -20q-125 0 -223.5 42.5t-159 115t-92 164t-31.5 194.5q0 100 30 192t87.5 167t154 120t218.5 45q101 0 182 -31.5t132.5 -81.5t86 -117.5t48.5 -135t14 -138.5t-9 -96h-686q35 -219 250 -219q145 0 240 106l168 -147
q-162 -180 -410 -180zM315 596h455q0 36 -8 63q-18 75 -76.5 115.5t-140.5 40.5q-190 0 -230 -219z" />
    <glyph glyph-name="Gbreve" unicode="&#x11e;" horiz-adv-x="1534" 
d="M762 1555q-316 0 -316 270h172q0 -63 40 -95t104 -32t103.5 33t39.5 94h172q0 -270 -315 -270zM840 764h567v-764h-201l-22 199q-58 -101 -168.5 -160t-249.5 -59q-169 0 -302 58.5t-215 160t-124.5 231t-42.5 277.5q0 118 25.5 224.5t80.5 199t134 160.5t192.5 106.5
t249.5 38.5q210 0 370.5 -104.5t245.5 -301.5l-225 -94q-47 140 -150 209t-243 69q-108 0 -192 -40.5t-134.5 -110.5t-76 -157.5t-25.5 -188.5q0 -108 25.5 -198.5t76.5 -161.5t135.5 -110.5t194.5 -39.5q170 0 274.5 91.5t110.5 260.5h-311v205z" />
    <glyph glyph-name="gbreve" unicode="&#x11f;" horiz-adv-x="1071" 
d="M537 1143q-316 0 -316 270h172q0 -63 40 -95t104 -32t103.5 33t39.5 94h172q0 -270 -315 -270zM653 172q51 0 97.5 -7.5t95.5 -28t85 -52.5t58.5 -85t22.5 -122q0 -156 -115 -246t-342 -90q-138 0 -249.5 33t-185 108.5t-73.5 184.5q0 52 16 92l137 54q-132 83 -132 223
q0 139 123 215q-60 90 -60 202q0 161 117 264t291 103q129 0 232 -61l153 131l125 -156l-146 -117q41 -79 41 -172q0 -162 -116.5 -262t-288.5 -100q-115 0 -209 47q-35 -25 -35 -70q0 -25 11.5 -43t26.5 -26.5t39 -13t37 -5t33 -0.5h211zM543 827q-79 0 -123.5 -50.5
t-44.5 -127.5q0 -76 44.5 -124t123.5 -48q78 0 122 48t44 124q0 77 -44.5 127.5t-121.5 50.5zM539 -272q239 0 239 129q0 27 -8.5 46.5t-28 31t-37 18.5t-48.5 10t-49 3.5t-52 0.5h-195l-86 -73v-23q0 -17 1.5 -29t15.5 -35.5t39.5 -39t79.5 -27.5t129 -12z" />
    <glyph glyph-name="Gdotaccent" unicode="&#x120;" horiz-adv-x="1534" 
d="M889 1825v-225h-256v225h256zM840 764h567v-764h-201l-22 199q-58 -101 -168.5 -160t-249.5 -59q-169 0 -302 58.5t-215 160t-124.5 231t-42.5 277.5q0 118 25.5 224.5t80.5 199t134 160.5t192.5 106.5t249.5 38.5q210 0 370.5 -104.5t245.5 -301.5l-225 -94
q-47 140 -150 209t-243 69q-108 0 -192 -40.5t-134.5 -110.5t-76 -157.5t-25.5 -188.5q0 -108 25.5 -198.5t76.5 -161.5t135.5 -110.5t194.5 -39.5q170 0 274.5 91.5t110.5 260.5h-311v205z" />
    <glyph glyph-name="gdotaccent" unicode="&#x121;" horiz-adv-x="1071" 
d="M664 1413v-225h-256v225h256zM653 172q51 0 97.5 -7.5t95.5 -28t85 -52.5t58.5 -85t22.5 -122q0 -156 -115 -246t-342 -90q-138 0 -249.5 33t-185 108.5t-73.5 184.5q0 52 16 92l137 54q-132 83 -132 223q0 139 123 215q-60 90 -60 202q0 161 117 264t291 103
q129 0 232 -61l153 131l125 -156l-146 -117q41 -79 41 -172q0 -162 -116.5 -262t-288.5 -100q-115 0 -209 47q-35 -25 -35 -70q0 -25 11.5 -43t26.5 -26.5t39 -13t37 -5t33 -0.5h211zM543 827q-79 0 -123.5 -50.5t-44.5 -127.5q0 -76 44.5 -124t123.5 -48q78 0 122 48
t44 124q0 77 -44.5 127.5t-121.5 50.5zM539 -272q239 0 239 129q0 27 -8.5 46.5t-28 31t-37 18.5t-48.5 10t-49 3.5t-52 0.5h-195l-86 -73v-23q0 -17 1.5 -29t15.5 -35.5t39.5 -39t79.5 -27.5t129 -12z" />
    <glyph glyph-name="uni0122" unicode="&#x122;" horiz-adv-x="1534" 
d="M840 764h567v-764h-201l-22 199q-58 -101 -168.5 -160t-249.5 -59q-169 0 -302 58.5t-215 160t-124.5 231t-42.5 277.5q0 118 25.5 224.5t80.5 199t134 160.5t192.5 106.5t249.5 38.5q210 0 370.5 -104.5t245.5 -301.5l-225 -94q-47 140 -150 209t-243 69
q-108 0 -192 -40.5t-134.5 -110.5t-76 -157.5t-25.5 -188.5q0 -108 25.5 -198.5t76.5 -161.5t135.5 -110.5t194.5 -39.5q170 0 274.5 91.5t110.5 260.5h-311v205zM521 -459l135 353h254l-248 -353h-141z" />
    <glyph glyph-name="uni0123" unicode="&#x123;" horiz-adv-x="1071" 
d="M751 1434l-135 -315h-254l248 315h141zM653 172q51 0 97.5 -7.5t95.5 -28t85 -52.5t58.5 -85t22.5 -122q0 -156 -115 -246t-342 -90q-138 0 -249.5 33t-185 108.5t-73.5 184.5q0 52 16 92l137 54q-132 83 -132 223q0 139 123 215q-60 90 -60 202q0 161 117 264t291 103
q129 0 232 -61l153 131l125 -156l-146 -117q41 -79 41 -172q0 -162 -116.5 -262t-288.5 -100q-115 0 -209 47q-35 -25 -35 -70q0 -25 11.5 -43t26.5 -26.5t39 -13t37 -5t33 -0.5h211zM543 827q-79 0 -123.5 -50.5t-44.5 -127.5q0 -76 44.5 -124t123.5 -48q78 0 122 48
t44 124q0 77 -44.5 127.5t-121.5 50.5zM539 -272q239 0 239 129q0 27 -8.5 46.5t-28 31t-37 18.5t-48.5 10t-49 3.5t-52 0.5h-195l-86 -73v-23q0 -17 1.5 -29t15.5 -35.5t39.5 -39t79.5 -27.5t129 -12z" />
    <glyph glyph-name="Hbar" unicode="&#x126;" horiz-adv-x="1491" 
d="M1410 1186v-143h-101v-1043h-254v590h-619v-590h-254v1043h-103v143h103v227h254v-227h619v227h254v-227h101zM1055 823v220h-619v-220h619z" />
    <glyph glyph-name="hbar" unicode="&#x127;" horiz-adv-x="1169" 
d="M684 1020q76 0 138.5 -23.5t104.5 -64t71 -94.5t42 -114t13 -124v-600h-248v569q0 50 -8 88.5t-26.5 72t-55.5 51.5t-90 18q-113 0 -171.5 -81t-58.5 -212v-506h-248v1108h-146v164h146v141h248v-141h241v-164h-241v-225q57 70 133.5 103.5t155.5 33.5z" />
    <glyph glyph-name="Itilde" unicode="&#x128;" horiz-adv-x="618" 
d="M436 1517q-44 0 -80 15t-59 36t-42 42t-39 36t-40 15q-31 0 -48 -35.5t-17 -101.5h-140q0 137 57 211.5t156 74.5q48 0 89.5 -22t65 -48.5t50.5 -48.5t49 -22q27 0 44.5 35.5t17.5 99.5h145q0 -137 -55.5 -212t-153.5 -75zM182 0v1413h254v-1413h-254z" />
    <glyph glyph-name="itilde" unicode="&#x129;" horiz-adv-x="535" 
d="M395 1105q-44 0 -80 15t-59 36t-42 42t-39 36t-40 15q-31 0 -48 -35.5t-17 -101.5h-140q0 137 57 211.5t156 74.5q48 0 89.5 -22t65 -48.5t50.5 -48.5t49 -22q27 0 44.5 35.5t17.5 99.5h145q0 -137 -55.5 -212t-153.5 -75zM145 0v999h244v-999h-244z" />
    <glyph glyph-name="Imacron" unicode="&#x12a;" horiz-adv-x="618" 
d="M28 1559v143h559v-143h-559zM182 0v1413h254v-1413h-254z" />
    <glyph glyph-name="imacron" unicode="&#x12b;" horiz-adv-x="535" 
d="M-13 1147v143h559v-143h-559zM145 0v999h244v-999h-244z" />
    <glyph glyph-name="Iogonek" unicode="&#x12e;" horiz-adv-x="618" 
d="M404 -244l122 -84q-81 -123 -219 -123q-98 0 -161.5 57t-63.5 148q0 45 17 87t41 70t48 49t41 30l17 10h-64v1413h254v-1413q-14 -4 -42.5 -18.5t-68.5 -41t-69 -67.5t-29 -86q0 -88 74 -88q61 0 103 57z" />
    <glyph glyph-name="iogonek" unicode="&#x12f;" horiz-adv-x="535" 
d="M395 1413v-225h-256v225h256zM357 -244l122 -84q-81 -123 -219 -123q-98 0 -161.5 57t-63.5 148q0 45 17 87t41 70t48 49t41 30l17 10h-54v999h244v-999q-14 -4 -42.5 -18.5t-68.5 -41t-69 -67.5t-29 -86q0 -88 74 -88q61 0 103 57z" />
    <glyph glyph-name="Idotaccent" unicode="&#x130;" horiz-adv-x="618" 
d="M180 1600v225h256v-225h-256zM182 0v1413h254v-1413h-254z" />
    <glyph glyph-name="dotlessi" unicode="&#x131;" horiz-adv-x="535" 
d="M145 0v999h244v-999h-244z" />
    <glyph glyph-name="IJ" unicode="&#x132;" horiz-adv-x="1757" 
d="M182 0v1413h254v-1413h-254zM1126 -20q-140 0 -247 63.5t-164 166.5t-66 230l250 29q8 -113 64 -183.5t163 -70.5q130 0 176.5 70.5t46.5 220.5v674h-532v233h786v-903q0 -116 -26.5 -210t-81.5 -167t-149 -113t-220 -40z" />
    <glyph glyph-name="uni0136" unicode="&#x136;" horiz-adv-x="1491" 
d="M182 0v1413h254v-737l688 737h340l-565 -579l576 -834h-316l-436 664l-287 -297v-367h-254zM496 -459l135 353h254l-248 -353h-141z" />
    <glyph glyph-name="uni0137" unicode="&#x137;" horiz-adv-x="1118" 
d="M147 0v1413h244v-829l377 415h317l-374 -387l415 -612h-288l-293 463l-154 -170v-293h-244zM373 -459l135 353h254l-248 -353h-141z" />
    <glyph glyph-name="kgreenlandic" unicode="&#x138;" horiz-adv-x="1118" 
d="M147 0v999h244v-415l377 415h317l-374 -387l415 -612h-288l-293 463l-154 -170v-293h-244z" />
    <glyph glyph-name="Lacute" unicode="&#x139;" horiz-adv-x="1063" 
d="M192 1536l225 289h260l-307 -289h-178zM182 0v1413h254v-1173h604v-240h-858z" />
    <glyph glyph-name="lacute" unicode="&#x13a;" horiz-adv-x="573" 
d="M160 1536l225 289h260l-307 -289h-178zM348 -20q-97 0 -153 48.5t-56 170.5v1214h244v-1147q0 -67 80 -67q28 0 67 6v-205q-102 -20 -182 -20z" />
    <glyph glyph-name="uni013B" unicode="&#x13b;" horiz-adv-x="1063" 
d="M182 0v1413h254v-1173h604v-240h-858zM371 -459l135 353h254l-248 -353h-141z" />
    <glyph glyph-name="uni013C" unicode="&#x13c;" horiz-adv-x="573" 
d="M348 -20q-97 0 -153 48.5t-56 170.5v1214h244v-1147q0 -67 80 -67q28 0 67 6v-205q-102 -20 -182 -20zM113 -459l135 353h254l-248 -353h-141z" />
    <glyph glyph-name="Lcaron" unicode="&#x13d;" horiz-adv-x="1063" 
d="M182 0v1413h254v-1173h604v-240h-858zM630 958l115 455h256l-228 -455h-143z" />
    <glyph glyph-name="lcaron" unicode="&#x13e;" horiz-adv-x="573" 
d="M348 -20q-97 0 -153 48.5t-56 170.5v1214h244v-1147q0 -67 80 -67q28 0 67 6v-205q-102 -20 -182 -20zM456 958l115 455h256l-228 -455h-143z" />
    <glyph glyph-name="Lslash" unicode="&#x141;" horiz-adv-x="1063" 
d="M436 240h604v-240h-858v332l-145 -164v270l145 163v812h254v-525l199 224v-269l-199 -225v-378z" />
    <glyph glyph-name="lslash" unicode="&#x142;" horiz-adv-x="573" 
d="M530 782l-147 -144v-372q0 -67 80 -67q28 0 67 6v-205q-102 -20 -182 -20q-97 0 -153 48.5t-56 170.5v200l-88 -86v230l88 86v784h244v-545l147 144v-230z" />
    <glyph glyph-name="Nacute" unicode="&#x143;" horiz-adv-x="1454" 
d="M1093 1825l-307 -289h-178l225 289h260zM1028 1413h244v-1413h-254l-592 993v-993h-244v1413h252l594 -988v988z" />
    <glyph glyph-name="nacute" unicode="&#x144;" horiz-adv-x="1163" 
d="M469 1124l225 289h260l-307 -289h-178zM145 0v999h244v-116q57 69 135 103t158 34q94 0 166.5 -35.5t114.5 -96.5t63 -133.5t21 -154.5v-600h-244v569q0 101 -50 163.5t-141 62.5q-106 0 -164.5 -60.5t-58.5 -187.5v-547h-244z" />
    <glyph glyph-name="uni0145" unicode="&#x145;" horiz-adv-x="1454" 
d="M1028 1413h244v-1413h-254l-592 993v-993h-244v1413h252l594 -988v988zM486 -459l135 353h254l-248 -353h-141z" />
    <glyph glyph-name="uni0146" unicode="&#x146;" horiz-adv-x="1163" 
d="M145 0v999h244v-116q57 69 135 103t158 34q94 0 166.5 -35.5t114.5 -96.5t63 -133.5t21 -154.5v-600h-244v569q0 101 -50 163.5t-141 62.5q-106 0 -164.5 -60.5t-58.5 -187.5v-547h-244zM347 -459l135 353h254l-248 -353h-141z" />
    <glyph glyph-name="Ncaron" unicode="&#x147;" horiz-adv-x="1454" 
d="M1042 1825l-317 -332l-316 332h189l127 -135l129 135h188zM1028 1413h244v-1413h-254l-592 993v-993h-244v1413h252l594 -988v988z" />
    <glyph glyph-name="ncaron" unicode="&#x148;" horiz-adv-x="1163" 
d="M586 1081l-316 332h189l127 -135l129 135h188zM145 0v999h244v-116q57 69 135 103t158 34q94 0 166.5 -35.5t114.5 -96.5t63 -133.5t21 -154.5v-600h-244v569q0 101 -50 163.5t-141 62.5q-106 0 -164.5 -60.5t-58.5 -187.5v-547h-244z" />
    <glyph glyph-name="Eng" unicode="&#x14a;" horiz-adv-x="1454" 
d="M1028 1413h242v-1413q0 -76 -15.5 -138t-50.5 -116t-101 -84.5t-159 -30.5q-78 0 -141 13v159q39 -6 76 -6q77 0 124.5 28t47.5 83q0 29 -11 45l-614 1047v-1000h-244v1413h252l594 -999v999z" />
    <glyph glyph-name="eng" unicode="&#x14b;" horiz-adv-x="1229" 
d="M750 -438q-81 0 -166 32l55 181q62 -15 104 -15q39 0 49.5 21.5t10.5 75.5v712q0 101 -50 163.5t-141 62.5q-107 0 -166 -61t-59 -187v-547h-242v999h242v-116q57 69 136 103t159 34q94 0 166 -35.5t113.5 -96.5t62 -133.5t20.5 -154.5v-715q0 -143 -74.5 -233
t-219.5 -90z" />
    <glyph glyph-name="Omacron" unicode="&#x14c;" horiz-adv-x="1528" 
d="M483 1559v143h559v-143h-559zM764 -20q-136 0 -249.5 38.5t-192.5 106t-134 160t-80.5 199t-25.5 223.5t25.5 223.5t80.5 199t134 160t192.5 106t249.5 38.5t249.5 -38.5t192.5 -106t134 -160t80.5 -199t25.5 -223.5t-25.5 -223.5t-80.5 -199t-134 -160t-192.5 -106
t-249.5 -38.5zM764 205q88 0 159 27t118 73t78.5 110.5t45 136.5t13.5 155q0 82 -13.5 154.5t-45 136.5t-78.5 110t-118 73t-159 27t-159 -27t-118 -73t-78.5 -110t-45 -136.5t-13.5 -154.5q0 -83 13.5 -155t45 -136.5t78.5 -110.5t118 -73t159 -27z" />
    <glyph glyph-name="omacron" unicode="&#x14d;" horiz-adv-x="1128" 
d="M282 1147v143h559v-143h-559zM563 -20q-113 0 -210 42t-162.5 113t-102.5 166t-37 201q0 141 62.5 258.5t181 188.5t268.5 71t268.5 -71t181 -188.5t62.5 -258.5q0 -106 -37 -201t-102.5 -166t-162.5 -113t-210 -42zM563 190q130 0 194 88.5t64 223.5q0 86 -25 153
t-84.5 110.5t-148.5 43.5q-130 0 -194 -86.5t-64 -220.5q0 -86 25 -154t85 -113t148 -45z" />
    <glyph glyph-name="Ohungarumlaut" unicode="&#x150;" horiz-adv-x="1528" 
d="M443 1495l225 330h219l-266 -330h-178zM832 1495l225 330h260l-307 -330h-178zM764 -20q-136 0 -249.5 38.5t-192.5 106t-134 160t-80.5 199t-25.5 223.5t25.5 223.5t80.5 199t134 160t192.5 106t249.5 38.5t249.5 -38.5t192.5 -106t134 -160t80.5 -199t25.5 -223.5
t-25.5 -223.5t-80.5 -199t-134 -160t-192.5 -106t-249.5 -38.5zM764 205q88 0 159 27t118 73t78.5 110.5t45 136.5t13.5 155q0 82 -13.5 154.5t-45 136.5t-78.5 110t-118 73t-159 27t-159 -27t-118 -73t-78.5 -110t-45 -136.5t-13.5 -154.5q0 -83 13.5 -155t45 -136.5
t78.5 -110.5t118 -73t159 -27z" />
    <glyph glyph-name="ohungarumlaut" unicode="&#x151;" horiz-adv-x="1128" 
d="M242 1083l225 330h219l-266 -330h-178zM631 1083l225 330h260l-307 -330h-178zM563 -20q-113 0 -210 42t-162.5 113t-102.5 166t-37 201q0 141 62.5 258.5t181 188.5t268.5 71t268.5 -71t181 -188.5t62.5 -258.5q0 -106 -37 -201t-102.5 -166t-162.5 -113t-210 -42z
M563 190q130 0 194 88.5t64 223.5q0 86 -25 153t-84.5 110.5t-148.5 43.5q-130 0 -194 -86.5t-64 -220.5q0 -86 25 -154t85 -113t148 -45z" />
    <glyph glyph-name="OE" unicode="&#x152;" horiz-adv-x="2251" 
d="M2128 1180h-686v-357h639v-233h-639v-350h686v-240h-940v111q-171 -131 -424 -131q-136 0 -249.5 38.5t-192.5 106t-134 160t-80.5 199t-25.5 223.5t25.5 223.5t80.5 199t134 160t192.5 106t249.5 38.5q253 0 424 -131v110h940v-233zM764 205q88 0 159 27t118 73
t78.5 110.5t45 136.5t13.5 155q0 82 -13.5 154.5t-45 136.5t-78.5 110t-118 73t-159 27t-159 -27t-118 -73t-78.5 -110t-45 -136.5t-13.5 -154.5q0 -83 13.5 -155t45 -136.5t78.5 -110.5t118 -73t159 -27z" />
    <glyph glyph-name="oe" unicode="&#x153;" horiz-adv-x="1833" 
d="M1774 516q0 -71 -9 -96h-686q35 -219 250 -219q145 0 240 106l168 -147q-162 -180 -410 -180q-247 0 -386 162q-147 -162 -378 -162q-113 0 -210 42t-162.5 113t-102.5 166t-37 201q0 141 62.5 258.5t181 188.5t268.5 71q233 0 379 -161q133 161 369 161q101 0 182 -31.5
t132.5 -81.5t86 -117.5t48.5 -135t14 -138.5zM1079 596h455q0 36 -8 63q-18 75 -76.5 115.5t-140.5 40.5q-190 0 -230 -219zM563 190q130 0 194 88.5t64 223.5q0 86 -25 153t-84.5 110.5t-148.5 43.5q-130 0 -194 -86.5t-64 -220.5q0 -86 25 -154t85 -113t148 -45z" />
    <glyph glyph-name="Racute" unicode="&#x154;" horiz-adv-x="1268" 
d="M504 1536l225 289h260l-307 -289h-178zM182 0v1413h457q100 0 188 -28t155.5 -80t106.5 -131.5t39 -176.5q0 -130 -76 -227.5t-200 -140.5l393 -629h-291l-348 604h-82h-88v-604h-254zM438 811h224q101 4 158 53t57 129q0 88 -64 140.5t-172 52.5h-203v-375z" />
    <glyph glyph-name="racute" unicode="&#x155;" horiz-adv-x="815" 
d="M336 1124l225 289h260l-307 -289h-178zM145 0v999h238v-168q31 88 106 138.5t162 50.5q112 0 183 -72l-111 -200q-51 34 -109 34q-95 0 -164 -91t-69 -269v-422h-236z" />
    <glyph glyph-name="uni0156" unicode="&#x156;" horiz-adv-x="1268" 
d="M182 0v1413h457q100 0 188 -28t155.5 -80t106.5 -131.5t39 -176.5q0 -130 -76 -227.5t-200 -140.5l393 -629h-291l-348 604h-82h-88v-604h-254zM438 811h224q101 4 158 53t57 129q0 88 -64 140.5t-172 52.5h-203v-375zM447 -459l135 353h254l-248 -353h-141z" />
    <glyph glyph-name="uni0157" unicode="&#x157;" horiz-adv-x="815" 
d="M145 0v999h238v-168q31 88 106 138.5t162 50.5q112 0 183 -72l-111 -200q-51 34 -109 34q-95 0 -164 -91t-69 -269v-422h-236zM167 -459l135 353h254l-248 -353h-141z" />
    <glyph glyph-name="Rcaron" unicode="&#x158;" horiz-adv-x="1268" 
d="M621 1493l-316 332h189l127 -135l129 135h188zM182 0v1413h457q100 0 188 -28t155.5 -80t106.5 -131.5t39 -176.5q0 -130 -76 -227.5t-200 -140.5l393 -629h-291l-348 604h-82h-88v-604h-254zM438 811h224q101 4 158 53t57 129q0 88 -64 140.5t-172 52.5h-203v-375z" />
    <glyph glyph-name="rcaron" unicode="&#x159;" horiz-adv-x="815" 
d="M453 1081l-316 332h189l127 -135l129 135h188zM145 0v999h238v-168q31 88 106 138.5t162 50.5q112 0 183 -72l-111 -200q-51 34 -109 34q-95 0 -164 -91t-69 -269v-422h-236z" />
    <glyph glyph-name="Sacute" unicode="&#x15a;" horiz-adv-x="1137" 
d="M446 1536l225 289h260l-307 -289h-178zM586 -16q-95 0 -184 26.5t-163 76.5t-126 130.5t-68 181.5l252 64q13 -126 93.5 -190t199.5 -64q110 0 171.5 51t61.5 129q0 52 -29.5 93.5t-77.5 68t-109.5 53.5t-125.5 50t-125.5 58t-109.5 76.5t-77.5 107.5t-29.5 148
q0 121 61 211t160 134.5t220 44.5q136 0 248 -61.5t182 -186.5l-211 -129q-37 72 -97 111.5t-131 39.5q-76 0 -127 -42t-51 -109q0 -42 23.5 -76.5t63 -58.5t91 -46t108 -43.5t113 -46t108 -58.5t91 -76t63 -103.5t23.5 -136.5q0 -130 -66.5 -228.5t-177.5 -149t-247 -50.5z
" />
    <glyph glyph-name="sacute" unicode="&#x15b;" horiz-adv-x="909" 
d="M311 1124l225 289h260l-307 -289h-178zM446 -20q-153 0 -267 80t-152 200l194 86q61 -164 213 -164q78 0 120 36.5t42 82.5q0 34 -27.5 56.5t-72 36.5t-98 26.5t-107 33t-98 49.5t-72 81.5t-27.5 124.5q0 101 53.5 173.5t135.5 105t182 32.5q127 0 224 -57t155 -160
l-189 -103q-70 127 -198 127q-58 0 -93.5 -25t-35.5 -61q0 -30 28 -51.5t73 -35.5t99 -28.5t108 -37.5t99 -55.5t73 -88.5t28 -131q0 -67 -22.5 -123t-60.5 -94t-88.5 -65t-105.5 -39t-113 -12z" />
    <glyph glyph-name="Scedilla" unicode="&#x15e;" horiz-adv-x="1137" 
d="M1077 412q0 -184 -127.5 -299.5t-322.5 -127.5l-66 -85q33 -3 55 -13q66 -21 100.5 -68.5t34.5 -115.5q0 -96 -65.5 -160.5t-163.5 -64.5q-63 0 -117.5 36t-79.5 93l136 57q8 -20 26 -33.5t41 -13.5q35 0 57.5 22t22.5 56q0 48 -47 79t-121 31h-70l119 186
q-170 25 -293 130t-151 278l252 64q13 -126 93.5 -190t199.5 -64q110 0 171.5 51t61.5 129q0 52 -29.5 93.5t-77.5 68t-109.5 53.5t-125.5 50t-125.5 58t-109.5 76.5t-77.5 107.5t-29.5 148q0 121 61 211t160 134.5t220 44.5q136 0 248 -61.5t182 -186.5l-211 -129
q-37 72 -97 111.5t-131 39.5q-76 0 -127 -42t-51 -109q0 -42 23.5 -76.5t63 -58.5t91 -46t108 -43.5t113 -46t108 -58.5t91 -76t63 -103.5t23.5 -136.5z" />
    <glyph glyph-name="scedilla" unicode="&#x15f;" horiz-adv-x="909" 
d="M328 741q0 -30 28 -51.5t73 -35.5t99 -28.5t108 -37.5t99 -55.5t73 -88.5t28 -131q0 -131 -77.5 -212t-198.5 -108l-72 -93q33 -3 55 -13q66 -21 100.5 -68.5t34.5 -115.5q0 -96 -65.5 -160.5t-163.5 -64.5q-63 0 -117.5 36t-79.5 93l136 57q8 -20 26 -33.5t41 -13.5
q35 0 57.5 22t22.5 56q0 48 -47 79t-121 31h-70l112 176q-140 10 -243 88.5t-139 190.5l194 86q61 -164 213 -164q78 0 120 36.5t42 82.5q0 34 -27.5 56.5t-72 36.5t-98 26.5t-107 33t-98 49.5t-72 81.5t-27.5 124.5q0 101 53.5 173.5t135.5 105t182 32.5q127 0 224 -57
t155 -160l-189 -103q-70 127 -198 127q-58 0 -93.5 -25t-35.5 -61z" />
    <glyph glyph-name="Scaron" unicode="&#x160;" horiz-adv-x="1137" 
d="M563 1493l-316 332h189l127 -135l129 135h188zM586 -16q-95 0 -184 26.5t-163 76.5t-126 130.5t-68 181.5l252 64q13 -126 93.5 -190t199.5 -64q110 0 171.5 51t61.5 129q0 52 -29.5 93.5t-77.5 68t-109.5 53.5t-125.5 50t-125.5 58t-109.5 76.5t-77.5 107.5t-29.5 148
q0 121 61 211t160 134.5t220 44.5q136 0 248 -61.5t182 -186.5l-211 -129q-37 72 -97 111.5t-131 39.5q-76 0 -127 -42t-51 -109q0 -42 23.5 -76.5t63 -58.5t91 -46t108 -43.5t113 -46t108 -58.5t91 -76t63 -103.5t23.5 -136.5q0 -130 -66.5 -228.5t-177.5 -149t-247 -50.5z
" />
    <glyph glyph-name="scaron" unicode="&#x161;" horiz-adv-x="909" 
d="M428 1081l-316 332h189l127 -135l129 135h188zM446 -20q-153 0 -267 80t-152 200l194 86q61 -164 213 -164q78 0 120 36.5t42 82.5q0 34 -27.5 56.5t-72 36.5t-98 26.5t-107 33t-98 49.5t-72 81.5t-27.5 124.5q0 101 53.5 173.5t135.5 105t182 32.5q127 0 224 -57
t155 -160l-189 -103q-70 127 -198 127q-58 0 -93.5 -25t-35.5 -61q0 -30 28 -51.5t73 -35.5t99 -28.5t108 -37.5t99 -55.5t73 -88.5t28 -131q0 -67 -22.5 -123t-60.5 -94t-88.5 -65t-105.5 -39t-113 -12z" />
    <glyph glyph-name="uni0162" unicode="&#x162;" horiz-adv-x="1180" 
d="M463 0v1186h-443v227h1139v-227h-442v-1186h-254zM547 -522q-63 0 -117.5 36t-79.5 93l136 57q8 -20 26 -33.5t41 -13.5q35 0 57.5 22t22.5 56q0 48 -47 79t-121 31h-70l123 193h144l-76 -98q33 -3 55 -13q66 -21 100.5 -68.5t34.5 -115.5q0 -96 -65.5 -160.5
t-163.5 -64.5z" />
    <glyph glyph-name="uni0163" unicode="&#x163;" horiz-adv-x="754" 
d="M680 795h-250v-476q0 -124 111 -124q65 0 139 36v-221q-54 -20 -126 -27l-64 -83q33 -3 55 -13q66 -21 100.5 -68.5t34.5 -115.5q0 -96 -65.5 -160.5t-163.5 -64.5q-63 0 -117.5 36t-79.5 93l136 57q8 -20 26 -33.5t41 -13.5q35 0 57.5 22t22.5 56q0 48 -47 79t-121 31
h-70l116 183q-109 21 -169 96.5t-60 191.5v519h-161v204h165v248l240 174v-422h250v-204z" />
    <glyph glyph-name="Tcaron" unicode="&#x164;" horiz-adv-x="1180" 
d="M588 1493l-316 332h189l127 -135l129 135h188zM463 0v1186h-443v227h1139v-227h-442v-1186h-254z" />
    <glyph glyph-name="tcaron" unicode="&#x165;" horiz-adv-x="754" 
d="M540 1135l115 455h256l-228 -455h-143zM498 -20q-146 0 -229 79.5t-83 216.5v519h-161v204h165v248l240 174v-422h250v-204h-250v-476q0 -124 111 -124q65 0 139 36v-221q-79 -30 -182 -30z" />
    <glyph glyph-name="Tbar" unicode="&#x166;" horiz-adv-x="1180" 
d="M1159 1186h-442v-397h190v-164h-190v-625h-254v625h-191v164h191v397h-443v227h1139v-227z" />
    <glyph glyph-name="tbar" unicode="&#x167;" horiz-adv-x="754" 
d="M680 795h-250v-213h245v-164h-245v-99q0 -124 111 -124q65 0 139 36v-221q-79 -30 -182 -30q-146 0 -229 79.5t-83 216.5v142h-146v164h146v213h-161v204h165v248l240 174v-422h250v-204z" />
    <glyph glyph-name="Utilde" unicode="&#x168;" horiz-adv-x="1380" 
d="M813 1517q-44 0 -80 15t-59 36t-42 42t-39 36t-40 15q-31 0 -48 -35.5t-17 -101.5h-140q0 137 57 211.5t156 74.5q48 0 89.5 -22t65 -48.5t50.5 -48.5t49 -22q27 0 44.5 35.5t17.5 99.5h145q0 -137 -55.5 -212t-153.5 -75zM690 -20q-275 0 -407.5 150.5t-132.5 420.5v862
h253v-833q0 -182 62.5 -268.5t224.5 -86.5q163 0 225 86.5t62 268.5v833h254v-852q0 -277 -132.5 -429t-408.5 -152z" />
    <glyph glyph-name="utilde" unicode="&#x169;" horiz-adv-x="1161" 
d="M709 1105q-44 0 -80 15t-59 36t-42 42t-39 36t-40 15q-31 0 -48 -35.5t-17 -101.5h-140q0 137 57 211.5t156 74.5q48 0 89.5 -22t65 -48.5t50.5 -48.5t49 -22q27 0 44.5 35.5t17.5 99.5h145q0 -137 -55.5 -212t-153.5 -75zM479 -20q-94 0 -166 35.5t-113.5 96t-62 133
t-20.5 154.5v600h241v-569q0 -101 50 -163t141 -62q107 0 166 61t59 187v546h242v-999h-242v117q-56 -70 -135 -103.5t-160 -33.5z" />
    <glyph glyph-name="Umacron" unicode="&#x16a;" horiz-adv-x="1380" 
d="M405 1559v143h559v-143h-559zM690 -20q-275 0 -407.5 150.5t-132.5 420.5v862h253v-833q0 -182 62.5 -268.5t224.5 -86.5q163 0 225 86.5t62 268.5v833h254v-852q0 -277 -132.5 -429t-408.5 -152z" />
    <glyph glyph-name="umacron" unicode="&#x16b;" horiz-adv-x="1161" 
d="M301 1147v143h559v-143h-559zM479 -20q-94 0 -166 35.5t-113.5 96t-62 133t-20.5 154.5v600h241v-569q0 -101 50 -163t141 -62q107 0 166 61t59 187v546h242v-999h-242v117q-56 -70 -135 -103.5t-160 -33.5z" />
    <glyph glyph-name="Uring" unicode="&#x16e;" horiz-adv-x="1380" 
d="M684 1481q-96 0 -162.5 68.5t-66.5 162.5q0 95 67 162.5t162 67.5t163.5 -67t68.5 -163q0 -97 -67.5 -164t-164.5 -67zM684 1612q45 0 73 29t28 74q0 42 -27 69t-74 27q-44 0 -71 -27t-27 -69q0 -45 28 -74t70 -29zM690 -20q-275 0 -407.5 150.5t-132.5 420.5v862h253
v-833q0 -182 62.5 -268.5t224.5 -86.5q163 0 225 86.5t62 268.5v833h254v-852q0 -277 -132.5 -429t-408.5 -152z" />
    <glyph glyph-name="uring" unicode="&#x16f;" horiz-adv-x="1161" 
d="M580 1069q-96 0 -162.5 68.5t-66.5 162.5q0 95 67 162.5t162 67.5t163.5 -67t68.5 -163q0 -97 -67.5 -164t-164.5 -67zM580 1200q45 0 73 29t28 74q0 42 -27 69t-74 27q-44 0 -71 -27t-27 -69q0 -45 28 -74t70 -29zM479 -20q-94 0 -166 35.5t-113.5 96t-62 133
t-20.5 154.5v600h241v-569q0 -101 50 -163t141 -62q107 0 166 61t59 187v546h242v-999h-242v117q-56 -70 -135 -103.5t-160 -33.5z" />
    <glyph glyph-name="Uhungarumlaut" unicode="&#x170;" horiz-adv-x="1380" 
d="M365 1495l225 330h219l-266 -330h-178zM754 1495l225 330h260l-307 -330h-178zM690 -20q-275 0 -407.5 150.5t-132.5 420.5v862h253v-833q0 -182 62.5 -268.5t224.5 -86.5q163 0 225 86.5t62 268.5v833h254v-852q0 -277 -132.5 -429t-408.5 -152z" />
    <glyph glyph-name="uhungarumlaut" unicode="&#x171;" horiz-adv-x="1161" 
d="M261 1083l225 330h219l-266 -330h-178zM650 1083l225 330h260l-307 -330h-178zM479 -20q-94 0 -166 35.5t-113.5 96t-62 133t-20.5 154.5v600h241v-569q0 -101 50 -163t141 -62q107 0 166 61t59 187v546h242v-999h-242v117q-56 -70 -135 -103.5t-160 -33.5z" />
    <glyph glyph-name="Uogonek" unicode="&#x172;" horiz-adv-x="1380" 
d="M927 18q-139 -80 -139 -180q0 -88 74 -88q61 0 103 57l122 -84q-81 -123 -219 -123q-98 0 -161.5 57t-63.5 148q0 95 74 175h-27q-275 0 -407.5 150.5t-132.5 420.5v862h253v-833q0 -182 62.5 -268.5t224.5 -86.5q163 0 225 86.5t62 268.5v833h254v-852q0 -431 -304 -543
z" />
    <glyph glyph-name="uogonek" unicode="&#x173;" horiz-adv-x="1161" 
d="M984 -244l122 -84q-81 -123 -219 -123q-98 0 -161.5 57t-63.5 148q0 45 17 87t41 70t48 49t41 30l17 10h-52v117q-56 -70 -135 -103.5t-160 -33.5q-94 0 -166 35.5t-113.5 96t-62 133t-20.5 154.5v600h241v-569q0 -101 50 -163t141 -62q107 0 166 61t59 187v546h242v-999
q-14 -4 -42.5 -18.5t-68.5 -41t-69 -67.5t-29 -86q0 -88 74 -88q61 0 103 57z" />
    <glyph glyph-name="Wcircumflex" unicode="&#x174;" horiz-adv-x="2003" 
d="M683 1510l316 352l317 -352h-188l-129 145l-127 -145h-189zM449 0l-424 1413h264l301 -1040l313 958h197l313 -958l301 1040h264l-424 -1413h-245l-308 930l-307 -930h-245z" />
    <glyph glyph-name="wcircumflex" unicode="&#x175;" horiz-adv-x="1466" 
d="M417 1098l316 352l317 -352h-188l-129 145l-127 -145h-189zM317 0l-307 999h260l170 -626l189 626h209l188 -624l172 624h260l-309 -999h-219l-197 655l-196 -655h-220z" />
    <glyph glyph-name="Ycircumflex" unicode="&#x176;" horiz-adv-x="1319" 
d="M339 1512l316 352l317 -352h-188l-129 145l-127 -145h-189zM528 0v551l-530 862h307l352 -618l355 618h309l-528 -862v-551h-265z" />
    <glyph glyph-name="ycircumflex" unicode="&#x177;" horiz-adv-x="1032" 
d="M198 1098l316 352l317 -352h-188l-129 145l-127 -145h-189zM201 -430l184 457l-391 972h268l252 -694l256 694h268l-571 -1429h-266z" />
    <glyph glyph-name="Ydieresis" unicode="&#x178;" horiz-adv-x="1319" 
d="M356 1602v225h205v-225h-205zM752 1602v225h204v-225h-204zM528 0v551l-530 862h307l352 -618l355 618h309l-528 -862v-551h-265z" />
    <glyph glyph-name="Zacute" unicode="&#x179;" horiz-adv-x="1272" 
d="M995 1825l-307 -289h-178l225 289h260zM1198 1413v-184l-785 -1000h785v-229h-1139v176l788 1004h-743v233h1094z" />
    <glyph glyph-name="zacute" unicode="&#x17a;" horiz-adv-x="1004" 
d="M860 1413l-307 -289h-178l225 289h260zM934 999v-174l-542 -620h542v-205h-881v162l565 633h-536v204h852z" />
    <glyph glyph-name="Zdotaccent" unicode="&#x17b;" horiz-adv-x="1272" 
d="M756 1825v-225h-256v225h256zM1198 1413v-184l-785 -1000h785v-229h-1139v176l788 1004h-743v233h1094z" />
    <glyph glyph-name="zdotaccent" unicode="&#x17c;" horiz-adv-x="1004" 
d="M621 1413v-225h-256v225h256zM934 999v-174l-542 -620h542v-205h-881v162l565 633h-536v204h852z" />
    <glyph glyph-name="Zcaron" unicode="&#x17d;" horiz-adv-x="1272" 
d="M944 1825l-317 -332l-316 332h189l127 -135l129 135h188zM1198 1413v-184l-785 -1000h785v-229h-1139v176l788 1004h-743v233h1094z" />
    <glyph glyph-name="zcaron" unicode="&#x17e;" horiz-adv-x="1004" 
d="M809 1413l-317 -332l-316 332h189l127 -135l129 135h188zM934 999v-174l-542 -620h542v-205h-881v162l565 633h-536v204h852z" />
    <glyph glyph-name="florin" unicode="&#x192;" horiz-adv-x="942" 
d="M78 -436v184q146 0 201 59.5t55 223.5v786h-178v182h178v125q0 140 87.5 232t213.5 92q68 0 126 -26t122 -81l-133 -155q-40 34 -61.5 45.5t-53.5 11.5q-40 0 -68 -29t-28 -90v-125h229v-182h-229v-807q0 -230 -117 -338t-344 -108z" />
    <glyph glyph-name="uni01C3" unicode="&#x1c3;" horiz-adv-x="594" 
d="M205 428l-29 985h242l-29 -985h-184zM164 0v264h266v-264h-266z" />
    <glyph glyph-name="uni01C4" unicode="&#x1c4;" horiz-adv-x="2661" 
d="M2333 1825l-317 -332l-316 332h189l127 -135l129 135h188zM592 1413q359 0 547 -185.5t188 -531.5q0 -332 -191 -514t-546 -182h-408v1413h410zM2587 1413v-184l-785 -1000h785v-229h-1139v176l788 1004h-743v233h1094zM565 233q121 0 211.5 25t158.5 79.5t103 147
t35 222.5q0 252 -112.5 362.5t-372.5 110.5h-152v-947h129z" />
    <glyph glyph-name="uni01C5" unicode="&#x1c5;" horiz-adv-x="2419" 
d="M592 1413q359 0 547 -185.5t188 -531.5q0 -332 -191 -514t-546 -182h-408v1413h410zM2224 1413l-317 -332l-316 332h189l127 -135l129 135h188zM565 233q121 0 211.5 25t158.5 79.5t103 147t35 222.5q0 252 -112.5 362.5t-372.5 110.5h-152v-947h129zM2349 999v-174
l-542 -620h542v-205h-881v162l565 633h-536v204h852z" />
    <glyph glyph-name="uni01C6" unicode="&#x1c6;" horiz-adv-x="2175" 
d="M776 899v514h248v-1413h-227l-11 113q-97 -133 -290 -133q-136 0 -236 72.5t-148.5 189t-48.5 258.5q0 141 48.5 257.5t147.5 189.5t233 73q84 0 159.5 -30t124.5 -91zM1980 1413l-317 -332l-316 332h189l127 -135l129 135h188zM2105 999v-174l-542 -620h542v-205h-881
v162l565 633h-536v204h852zM555 201q121 0 181.5 82t60.5 217q0 134 -61 216.5t-181 82.5t-182 -83.5t-62 -215.5q0 -133 61.5 -216t182.5 -83z" />
    <glyph glyph-name="uni01C7" unicode="&#x1c7;" horiz-adv-x="2237" 
d="M182 0v1413h254v-1173h604v-240h-858zM1606 -20q-140 0 -247 63.5t-164 166.5t-66 230l250 29q8 -113 64 -183.5t163 -70.5q130 0 176.5 70.5t46.5 220.5v674h-532v233h786v-903q0 -116 -26.5 -210t-81.5 -167t-149 -113t-220 -40z" />
    <glyph glyph-name="uni01C8" unicode="&#x1c8;" horiz-adv-x="1618" 
d="M182 0v1413h254v-1173h604v-240h-858zM1218 1188v225h258v-225h-258zM1179 -438q-92 0 -174 32l62 211q55 -22 88 -22q70 0 70 94v1122h245v-1103q0 -146 -73.5 -240t-217.5 -94z" />
    <glyph glyph-name="uni01C9" unicode="&#x1c9;" horiz-adv-x="1116" 
d="M348 -20q-97 0 -153 48.5t-56 170.5v1214h244v-1147q0 -67 80 -67q28 0 67 6v-205q-102 -20 -182 -20zM716 1188v225h258v-225h-258zM677 -438q-92 0 -174 32l62 211q55 -22 88 -22q70 0 70 94v1122h245v-1103q0 -146 -73.5 -240t-217.5 -94z" />
    <glyph glyph-name="uni01CA" unicode="&#x1ca;" horiz-adv-x="2593" 
d="M1028 425v988h244v-1413h-254l-592 993v-993h-244v1413h252zM1653 1413h786v-903q0 -116 -26.5 -210t-81.5 -167t-149 -113t-220 -40q-140 0 -247 63.5t-164 166.5t-66 230l250 29q8 -113 64 -183.5t163 -70.5q130 0 176.5 70.5t46.5 220.5v674h-532v233z" />
    <glyph glyph-name="uni01CB" unicode="&#x1cb;" horiz-adv-x="1997" 
d="M1028 425v988h244v-1413h-254l-592 993v-993h-244v1413h252zM1597 1413h258v-225h-258v225zM1604 -123v1122h245v-1103q0 -146 -73.5 -240t-217.5 -94q-92 0 -174 32l62 211q55 -22 88 -22q70 0 70 94z" />
    <glyph glyph-name="uni01CC" unicode="&#x1cc;" horiz-adv-x="1706" 
d="M1306 1188v225h258v-225h-258zM145 0v999h244v-116q57 69 135 103t158 34q94 0 166.5 -35.5t114.5 -96.5t63 -133.5t21 -154.5v-600h-244v569q0 101 -50 163.5t-141 62.5q-106 0 -164.5 -60.5t-58.5 -187.5v-547h-244zM1267 -438q-92 0 -174 32l62 211q55 -22 88 -22
q70 0 70 94v1122h245v-1103q0 -146 -73.5 -240t-217.5 -94z" />
    <glyph glyph-name="uni01CD" unicode="&#x1cd;" horiz-adv-x="1343" 
d="M670 1493l-316 332h189l127 -135l129 135h188zM12 0l566 1413h190l563 -1413h-274l-113 307h-541l-114 -307h-277zM483 524h381l-190 516z" />
    <glyph glyph-name="uni01CE" unicode="&#x1ce;" horiz-adv-x="1061" 
d="M819 1413l-317 -332l-316 332h189l127 -135l129 135h188zM514 1020q201 0 316.5 -114t115.5 -300v-606h-201l-15 133q-46 -74 -133.5 -113.5t-178.5 -39.5q-159 0 -261 87t-102 240q0 64 20 113.5t55 82t86 54t109 30.5t128 9h271q-4 115 -48 163t-160 48
q-80 0 -139.5 -39.5t-95.5 -101.5l-187 135q160 219 420 219zM467 186q107 0 176.5 66t81.5 160v8h-258q-79 0 -120.5 -35t-41.5 -86t41.5 -82t120.5 -31z" />
    <glyph glyph-name="uni01CF" unicode="&#x1cf;" horiz-adv-x="618" 
d="M307 1493l-316 332h189l127 -135l129 135h188zM182 0v1413h254v-1413h-254z" />
    <glyph glyph-name="uni01D0" unicode="&#x1d0;" horiz-adv-x="535" 
d="M266 1081l-316 332h189l127 -135l129 135h188zM145 0v999h244v-999h-244z" />
    <glyph glyph-name="uni01D1" unicode="&#x1d1;" horiz-adv-x="1528" 
d="M762 1493l-316 332h189l127 -135l129 135h188zM764 -20q-136 0 -249.5 38.5t-192.5 106t-134 160t-80.5 199t-25.5 223.5t25.5 223.5t80.5 199t134 160t192.5 106t249.5 38.5t249.5 -38.5t192.5 -106t134 -160t80.5 -199t25.5 -223.5t-25.5 -223.5t-80.5 -199t-134 -160
t-192.5 -106t-249.5 -38.5zM764 205q88 0 159 27t118 73t78.5 110.5t45 136.5t13.5 155q0 82 -13.5 154.5t-45 136.5t-78.5 110t-118 73t-159 27t-159 -27t-118 -73t-78.5 -110t-45 -136.5t-13.5 -154.5q0 -83 13.5 -155t45 -136.5t78.5 -110.5t118 -73t159 -27z" />
    <glyph glyph-name="uni01D2" unicode="&#x1d2;" horiz-adv-x="1128" 
d="M561 1081l-316 332h189l127 -135l129 135h188zM563 -20q-113 0 -210 42t-162.5 113t-102.5 166t-37 201q0 141 62.5 258.5t181 188.5t268.5 71t268.5 -71t181 -188.5t62.5 -258.5q0 -106 -37 -201t-102.5 -166t-162.5 -113t-210 -42zM563 190q130 0 194 88.5t64 223.5
q0 86 -25 153t-84.5 110.5t-148.5 43.5q-130 0 -194 -86.5t-64 -220.5q0 -86 25 -154t85 -113t148 -45z" />
    <glyph glyph-name="uni01D3" unicode="&#x1d3;" horiz-adv-x="1380" 
d="M684 1493l-316 332h189l127 -135l129 135h188zM690 -20q-275 0 -407.5 150.5t-132.5 420.5v862h253v-833q0 -182 62.5 -268.5t224.5 -86.5q163 0 225 86.5t62 268.5v833h254v-852q0 -277 -132.5 -429t-408.5 -152z" />
    <glyph glyph-name="uni01D4" unicode="&#x1d4;" horiz-adv-x="1161" 
d="M580 1081l-316 332h189l127 -135l129 135h188zM479 -20q-94 0 -166 35.5t-113.5 96t-62 133t-20.5 154.5v600h241v-569q0 -101 50 -163t141 -62q107 0 166 61t59 187v546h242v-999h-242v117q-56 -70 -135 -103.5t-160 -33.5z" />
    <glyph glyph-name="uni01D5" unicode="&#x1d5;" horiz-adv-x="1380" 
d="M405 1973v143h559v-143h-559zM385 1600v225h205v-225h-205zM781 1600v225h204v-225h-204zM690 -20q-275 0 -407.5 150.5t-132.5 420.5v862h253v-833q0 -182 62.5 -268.5t224.5 -86.5q163 0 225 86.5t62 268.5v833h254v-852q0 -277 -132.5 -429t-408.5 -152z" />
    <glyph glyph-name="uni01D6" unicode="&#x1d6;" horiz-adv-x="1161" 
d="M301 1561v143h559v-143h-559zM281 1188v225h205v-225h-205zM677 1188v225h204v-225h-204zM479 -20q-94 0 -166 35.5t-113.5 96t-62 133t-20.5 154.5v600h241v-569q0 -101 50 -163t141 -62q107 0 166 61t59 187v546h242v-999h-242v117q-56 -70 -135 -103.5t-160 -33.5z
" />
    <glyph glyph-name="uni01D7" unicode="&#x1d7;" horiz-adv-x="1380" 
d="M567 1950l225 289h260l-307 -289h-178zM385 1600v225h205v-225h-205zM781 1600v225h204v-225h-204zM690 -20q-275 0 -407.5 150.5t-132.5 420.5v862h253v-833q0 -182 62.5 -268.5t224.5 -86.5q163 0 225 86.5t62 268.5v833h254v-852q0 -277 -132.5 -429t-408.5 -152z" />
    <glyph glyph-name="uni01D8" unicode="&#x1d8;" horiz-adv-x="1161" 
d="M463 1538l225 289h260l-307 -289h-178zM281 1188v225h205v-225h-205zM677 1188v225h204v-225h-204zM479 -20q-94 0 -166 35.5t-113.5 96t-62 133t-20.5 154.5v600h241v-569q0 -101 50 -163t141 -62q107 0 166 61t59 187v546h242v-999h-242v117q-56 -70 -135 -103.5
t-160 -33.5z" />
    <glyph glyph-name="uni01D9" unicode="&#x1d9;" horiz-adv-x="1380" 
d="M684 1907l-316 332h189l127 -135l129 135h188zM385 1600v225h205v-225h-205zM781 1600v225h204v-225h-204zM690 -20q-275 0 -407.5 150.5t-132.5 420.5v862h253v-833q0 -182 62.5 -268.5t224.5 -86.5q163 0 225 86.5t62 268.5v833h254v-852q0 -277 -132.5 -429
t-408.5 -152z" />
    <glyph glyph-name="uni01DA" unicode="&#x1da;" horiz-adv-x="1161" 
d="M580 1495l-316 332h189l127 -135l129 135h188zM281 1188v225h205v-225h-205zM677 1188v225h204v-225h-204zM479 -20q-94 0 -166 35.5t-113.5 96t-62 133t-20.5 154.5v600h241v-569q0 -101 50 -163t141 -62q107 0 166 61t59 187v546h242v-999h-242v117
q-56 -70 -135 -103.5t-160 -33.5z" />
    <glyph glyph-name="uni01DB" unicode="&#x1db;" horiz-adv-x="1380" 
d="M596 1950l-308 289h260l226 -289h-178zM385 1600v225h205v-225h-205zM781 1600v225h204v-225h-204zM690 -20q-275 0 -407.5 150.5t-132.5 420.5v862h253v-833q0 -182 62.5 -268.5t224.5 -86.5q163 0 225 86.5t62 268.5v833h254v-852q0 -277 -132.5 -429t-408.5 -152z" />
    <glyph glyph-name="uni01DC" unicode="&#x1dc;" horiz-adv-x="1161" 
d="M492 1538l-308 289h260l226 -289h-178zM281 1188v225h205v-225h-205zM677 1188v225h204v-225h-204zM479 -20q-94 0 -166 35.5t-113.5 96t-62 133t-20.5 154.5v600h241v-569q0 -101 50 -163t141 -62q107 0 166 61t59 187v546h242v-999h-242v117q-56 -70 -135 -103.5
t-160 -33.5z" />
    <glyph glyph-name="uni01DD" unicode="&#x1dd;" horiz-adv-x="1069" 
d="M506 1019q125 0 223.5 -42.5t159 -115t92 -164t31.5 -194.5q0 -100 -30 -192t-87.5 -167t-154 -120t-218.5 -45q-101 0 -182 31.5t-132.5 81.5t-86 117.5t-48.5 135t-14 138.5t9 96h686q-35 219 -250 219q-145 0 -240 -106l-168 147q162 180 410 180zM754 403h-455
q0 -36 8 -63q18 -75 76.5 -115.5t140.5 -40.5q190 0 230 219z" />
    <glyph glyph-name="uni01EB" unicode="&#x1eb;" horiz-adv-x="1128" 
d="M695 -4q-18 -7 -38.5 -17.5t-50.5 -31t-52.5 -42.5t-39 -53.5t-16.5 -64.5q0 -88 74 -88q61 0 103 57l122 -84q-81 -123 -219 -123q-98 0 -161.5 57t-63.5 148q0 43 14.5 82t38 68t43.5 47t42 33q-198 25 -319 172t-121 346q0 141 62.5 258.5t181 188.5t268.5 71
t268.5 -71t181 -188.5t62.5 -258.5q0 -183 -103.5 -323.5t-276.5 -182.5zM305 502q0 -86 25 -154t85 -113t148 -45q130 0 194 88.5t64 223.5q0 86 -25 153t-84.5 110.5t-148.5 43.5q-130 0 -194 -86.5t-64 -220.5z" />
    <glyph glyph-name="uni01F1" unicode="&#x1f1;" horiz-adv-x="2661" 
d="M592 1413q359 0 547 -185.5t188 -531.5q0 -332 -191 -514t-546 -182h-408v1413h410zM2587 1413v-184l-785 -1000h785v-229h-1139v176l788 1004h-743v233h1094zM565 233q121 0 211.5 25t158.5 79.5t103 147t35 222.5q0 252 -112.5 362.5t-372.5 110.5h-152v-947h129z" />
    <glyph glyph-name="uni01F2" unicode="&#x1f2;" horiz-adv-x="2419" 
d="M592 1413q359 0 547 -185.5t188 -531.5q0 -332 -191 -514t-546 -182h-408v1413h410zM565 233q121 0 211.5 25t158.5 79.5t103 147t35 222.5q0 252 -112.5 362.5t-372.5 110.5h-152v-947h129zM2349 999v-174l-542 -620h542v-205h-881v162l565 633h-536v204h852z" />
    <glyph glyph-name="uni01F3" unicode="&#x1f3;" horiz-adv-x="2175" 
d="M776 899v514h248v-1413h-227l-11 113q-97 -133 -290 -133q-136 0 -236 72.5t-148.5 189t-48.5 258.5q0 141 48.5 257.5t147.5 189.5t233 73q84 0 159.5 -30t124.5 -91zM2105 999v-174l-542 -620h542v-205h-881v162l565 633h-536v204h852zM555 201q121 0 181.5 82
t60.5 217q0 134 -61 216.5t-181 82.5t-182 -83.5t-62 -215.5q0 -133 61.5 -216t182.5 -83z" />
    <glyph glyph-name="Oslashacute" unicode="&#x1fe;" horiz-adv-x="1528" 
d="M1130 1825l-307 -289h-178l225 289h260zM1207 1288q118 -99 178.5 -250.5t60.5 -330.5q0 -117 -25.5 -223.5t-80.5 -199t-134 -160t-192.5 -106t-249.5 -38.5q-173 0 -312 63l-26 -43h-182l77 126q-118 99 -178.5 251t-60.5 330q0 117 25.5 223.5t80.5 199t134 160
t192.5 106t249.5 38.5q172 0 311 -63l25 42h182zM350 707q0 -231 102 -363l500 825q-81 39 -188 39q-88 0 -159 -27t-118 -73t-78.5 -110t-45 -136.5t-13.5 -154.5zM764 205q88 0 159 27t118 73t78.5 110.5t45 136.5t13.5 155q0 231 -103 364l-501 -826q82 -40 190 -40z" />
    <glyph glyph-name="oslashacute" unicode="&#x1ff;" horiz-adv-x="1128" 
d="M929 1413l-307 -289h-178l225 289h260zM879 917q93 -71 144.5 -180t51.5 -235q0 -106 -37 -201t-102.5 -166t-162.5 -113t-210 -42q-120 0 -223 47l-17 -28h-129l52 86q-92 72 -143.5 181.5t-51.5 235.5q0 141 62.5 258.5t181 188.5t268.5 71q117 0 222 -46l15 25h129z
M305 502q0 -135 61 -219l306 505q-46 21 -109 21q-130 0 -194 -86.5t-64 -220.5zM563 190q130 0 194 88.5t64 223.5q0 136 -61 217l-308 -507q50 -22 111 -22z" />
    <glyph glyph-name="uni0218" unicode="&#x218;" horiz-adv-x="1137" 
d="M586 -16q-95 0 -184 26.5t-163 76.5t-126 130.5t-68 181.5l252 64q13 -126 93.5 -190t199.5 -64q110 0 171.5 51t61.5 129q0 52 -29.5 93.5t-77.5 68t-109.5 53.5t-125.5 50t-125.5 58t-109.5 76.5t-77.5 107.5t-29.5 148q0 121 61 211t160 134.5t220 44.5
q136 0 248 -61.5t182 -186.5l-211 -129q-37 72 -97 111.5t-131 39.5q-76 0 -127 -42t-51 -109q0 -42 23.5 -76.5t63 -58.5t91 -46t108 -43.5t113 -46t108 -58.5t91 -76t63 -103.5t23.5 -136.5q0 -130 -66.5 -228.5t-177.5 -149t-247 -50.5zM324 -459l135 353h254l-248 -353
h-141z" />
    <glyph glyph-name="uni0219" unicode="&#x219;" horiz-adv-x="909" 
d="M446 -20q-153 0 -267 80t-152 200l194 86q61 -164 213 -164q78 0 120 36.5t42 82.5q0 34 -27.5 56.5t-72 36.5t-98 26.5t-107 33t-98 49.5t-72 81.5t-27.5 124.5q0 101 53.5 173.5t135.5 105t182 32.5q127 0 224 -57t155 -160l-189 -103q-70 127 -198 127
q-58 0 -93.5 -25t-35.5 -61q0 -30 28 -51.5t73 -35.5t99 -28.5t108 -37.5t99 -55.5t73 -88.5t28 -131q0 -67 -22.5 -123t-60.5 -94t-88.5 -65t-105.5 -39t-113 -12zM251 -459l135 353h254l-248 -353h-141z" />
    <glyph glyph-name="uni021A" unicode="&#x21a;" horiz-adv-x="1180" 
d="M463 0v1186h-443v227h1139v-227h-442v-1186h-254zM349 -459l135 353h254l-248 -353h-141z" />
    <glyph glyph-name="uni021B" unicode="&#x21b;" horiz-adv-x="754" 
d="M498 -20q-146 0 -229 79.5t-83 216.5v519h-161v204h165v248l240 174v-422h250v-204h-250v-476q0 -124 111 -124q65 0 139 36v-221q-79 -30 -182 -30zM253 -459l135 353h254l-248 -353h-141z" />
    <glyph glyph-name="uni0237" unicode="&#x237;" horiz-adv-x="543" 
d="M104 -438q-92 0 -174 32l62 211q55 -22 88 -22q70 0 70 94v1122h245v-1103q0 -146 -73.5 -240t-217.5 -94z" />
    <glyph glyph-name="uni0250" unicode="&#x250;" horiz-adv-x="1061" 
d="M545 192q80 0 139.5 39.5t95.5 101.5l187 -135q-160 -219 -420 -219q-201 0 -316.5 114t-115.5 300v606h201l15 -133q46 74 133.5 113.5t178.5 39.5q159 0 261 -87t102 -240q0 -64 -20 -113.5t-55 -82t-86 -54t-109 -30.5t-128 -9h-271q4 -115 48 -163t160 -48zM594 813
q-107 0 -176.5 -66t-81.5 -160v-8h258q79 0 120.5 35t41.5 86t-41.5 82t-120.5 31z" />
    <glyph glyph-name="uni0254" unicode="&#x254;" horiz-adv-x="1004" 
d="M463 -20q-148 0 -259 78t-161 218l222 84q20 -72 74 -115.5t126 -43.5q61 0 107.5 24.5t73.5 67.5t40 94.5t13 110.5q0 46 -8 88.5t-26 81.5t-44.5 68t-66.5 46t-89 17q-73 0 -126.5 -45t-73.5 -119l-232 90q56 146 168 220.5t264 74.5q118 0 212 -44.5t152 -119t88 -166
t30 -192.5t-30.5 -193t-88.5 -165t-152.5 -116.5t-212.5 -43.5z" />
    <glyph glyph-name="uni0258" unicode="&#x258;" horiz-adv-x="1069" 
d="M506 -20q-248 0 -410 180l168 147q95 -106 240 -106q215 0 250 219h-686q-9 25 -9 96t14 138.5t48.5 135t86 117.5t132.5 81.5t182 31.5q122 0 218.5 -45t154 -120t87.5 -167t30 -192q0 -103 -31.5 -194.5t-92 -164t-159 -115t-223.5 -42.5zM754 596q-40 219 -230 219
q-82 0 -140.5 -40.5t-76.5 -115.5q-8 -27 -8 -63h455z" />
    <glyph glyph-name="uni0259" unicode="&#x259;" horiz-adv-x="1069" 
d="M506 1019q125 0 223.5 -42.5t159 -115t92 -164t31.5 -194.5q0 -100 -30 -192t-87.5 -167t-154 -120t-218.5 -45q-101 0 -182 31.5t-132.5 81.5t-86 117.5t-48.5 135t-14 138.5t9 96h686q-35 219 -250 219q-145 0 -240 -106l-168 147q162 180 410 180zM754 403h-455
q0 -36 8 -63q18 -75 76.5 -115.5t140.5 -40.5q190 0 230 219z" />
    <glyph glyph-name="uni0261" unicode="&#x261;" horiz-adv-x="1155" 
d="M541 -479q-291 0 -445 215l187 135q32 -58 99.5 -97.5t162.5 -39.5q109 0 164 61.5t55 204.5v121q-98 -121 -281 -121q-135 0 -235 72.5t-148.5 186.5t-48.5 251q0 101 28.5 192t81.5 162.5t135.5 113.5t182.5 42q84 0 159.5 -30t125.5 -91v100h246v-999
q0 -233 -122 -356t-347 -123zM543 225q120 0 180.5 79t60.5 206t-60.5 208t-180.5 81t-182 -82t-62 -207q0 -126 62 -205.5t182 -79.5z" />
    <glyph glyph-name="circumflex" unicode="&#x2c6;" horiz-adv-x="653" 
d="M10 1098l316 352l317 -352h-188l-129 145l-127 -145h-189z" />
    <glyph glyph-name="caron" unicode="&#x2c7;" horiz-adv-x="659" 
d="M330 1081l-316 332h189l127 -135l129 135h188z" />
    <glyph glyph-name="uni02D0" unicode="&#x2d0;" horiz-adv-x="561" 
d="M281 522l-252 477h503zM29 0l252 477l251 -477h-503z" />
    <glyph glyph-name="uni02D1" unicode="&#x2d1;" horiz-adv-x="561" 
d="M281 211l-252 479h503z" />
    <glyph glyph-name="breve" unicode="&#x2d8;" horiz-adv-x="811" 
d="M406 1143q-316 0 -316 270h172q0 -63 40 -95t104 -32t103.5 33t39.5 94h172q0 -270 -315 -270z" />
    <glyph glyph-name="dotaccent" unicode="&#x2d9;" horiz-adv-x="539" 
d="M151 1188v225h256v-225h-256z" />
    <glyph glyph-name="ring" unicode="&#x2da;" horiz-adv-x="633" 
d="M315 1069q-96 0 -162.5 68.5t-66.5 162.5q0 95 67 162.5t162 67.5t163.5 -67t68.5 -163q0 -97 -67.5 -164t-164.5 -67zM315 1200q45 0 73 29t28 74q0 42 -27 69t-74 27q-44 0 -71 -27t-27 -69q0 -45 28 -74t70 -29z" />
    <glyph glyph-name="ogonek" unicode="&#x2db;" horiz-adv-x="573" 
d="M311 -451q-98 0 -161.5 57t-63.5 148q0 45 17 87t41 70t48 49t41 30l17 10h190q-14 -4 -42.5 -18.5t-68.5 -41t-69 -67.5t-29 -86q0 -88 74 -88q61 0 103 57l122 -84q-81 -123 -219 -123z" />
    <glyph glyph-name="tilde" unicode="&#x2dc;" horiz-adv-x="872" 
d="M598 1126q-44 0 -80 15t-59 36t-42 42t-39 36t-40 15q-31 0 -48 -35.5t-17 -101.5h-140q0 137 57 211.5t156 74.5q48 0 89.5 -22t65 -48.5t50.5 -48.5t49 -22q27 0 44.5 35.5t17.5 99.5h145q0 -137 -55.5 -212t-153.5 -75z" />
    <glyph glyph-name="hungarumlaut" unicode="&#x2dd;" horiz-adv-x="883" 
d="M35 1083l225 330h219l-266 -330h-178zM424 1083l225 330h260l-307 -330h-178z" />
    <glyph glyph-name="uni02F5" unicode="&#x2f5;" horiz-adv-x="1110" 
d="M395 670l-307 329h260l225 -329h-178zM825 670l-307 329h260l226 -329h-179z" />
    <glyph glyph-name="uni02F6" unicode="&#x2f6;" horiz-adv-x="1110" 
d="M285 670h-179l226 329h260zM715 670h-178l225 329h260z" />
    <glyph glyph-name="gravecomb" unicode="&#x300;" 
d="M-210 1124l-308 289h260l226 -289h-178z" />
    <glyph glyph-name="acutecomb" unicode="&#x301;" 
d="M-504 1124l225 289h260l-307 -289h-178z" />
    <glyph glyph-name="uni0302" unicode="&#x302;" 
d="M-643 1098l316 352l317 -352h-188l-129 145l-127 -145h-189z" />
    <glyph glyph-name="tildecomb" unicode="&#x303;" 
d="M-309 1126q-44 0 -80 15t-59 36t-42 42t-39 36t-40 15q-31 0 -48 -35.5t-17 -101.5h-140q0 137 57 211.5t156 74.5q48 0 89.5 -22t65 -48.5t50.5 -48.5t49 -22q27 0 44.5 35.5t17.5 99.5h145q0 -137 -55.5 -212t-153.5 -75z" />
    <glyph glyph-name="uni0304" unicode="&#x304;" 
d="M-699 1147v143h559v-143h-559z" />
    <glyph glyph-name="uni0306" unicode="&#x306;" 
d="M-405 1143q-316 0 -316 270h172q0 -63 40 -95t104 -32t103.5 33t39.5 94h172q0 -270 -315 -270z" />
    <glyph glyph-name="uni0307" unicode="&#x307;" 
d="M-398 1188v225h256v-225h-256z" />
    <glyph glyph-name="uni0308" unicode="&#x308;" 
d="M-742 1188v225h205v-225h-205zM-346 1188v225h204v-225h-204z" />
    <glyph glyph-name="uni030A" unicode="&#x30a;" 
d="M-318 1069q-96 0 -162.5 68.5t-66.5 162.5q0 95 67 162.5t162 67.5t163.5 -67t68.5 -163q0 -97 -67.5 -164t-164.5 -67zM-318 1200q45 0 73 29t28 74q0 42 -27 69t-74 27q-44 0 -71 -27t-27 -69q0 -45 28 -74t70 -29z" />
    <glyph glyph-name="uni030B" unicode="&#x30b;" 
d="M-889 1083l225 330h219l-266 -330h-178zM-500 1083l225 330h260l-307 -330h-178z" />
    <glyph glyph-name="uni030C" unicode="&#x30c;" 
d="M-329 1081l-316 332h189l127 -135l129 135h188z" />
    <glyph glyph-name="uni030F" unicode="&#x30f;" 
d="M-424 1083h-178l-307 330h260zM-35 1083h-178l-266 330h219z" />
    <glyph glyph-name="uni0312" unicode="&#x312;" 
d="M-78 1434l-135 -315h-254l248 315h141z" />
    <glyph glyph-name="uni031B" unicode="&#x31b;" 
d="M-410 999v160q38 0 65.5 15t41 39.5t19 49.5t5.5 52v98h184v-80q0 -70 -18 -129t-54.5 -106t-98.5 -73t-144 -26z" />
    <glyph glyph-name="uni0326" unicode="&#x326;" 
d="M-418 -459l135 353h254l-248 -353h-141z" />
    <glyph glyph-name="uni0327" unicode="&#x327;" 
d="M-305 -522q-63 0 -117.5 36t-79.5 93l136 57q8 -20 26 -33.5t41 -13.5q35 0 57.5 22t22.5 56q0 48 -47 79t-121 31h-70l123 193h144l-76 -98q33 -3 55 -13q66 -21 100.5 -68.5t34.5 -115.5q0 -96 -65.5 -160.5t-163.5 -64.5z" />
    <glyph glyph-name="uni0328" unicode="&#x328;" 
d="M-262 -451q-98 0 -161.5 57t-63.5 148q0 45 17 87t41 70t48 49t41 30l17 10h190q-14 -4 -42.5 -18.5t-68.5 -41t-69 -67.5t-29 -86q0 -88 74 -88q61 0 103 57l122 -84q-81 -123 -219 -123z" />
    <glyph glyph-name="uni0337" unicode="&#x337;" 
d="M-986 238v270l598 674v-269z" />
    <glyph glyph-name="tonos" unicode="&#x384;" horiz-adv-x="442" 
d="M121 1124l41 289h198l-122 -289h-117z" />
    <glyph glyph-name="dieresistonos" unicode="&#x385;" horiz-adv-x="758" 
d="M283 1538l41 289h198l-122 -289h-117zM41 1188v225h205v-225h-205zM437 1188v225h204v-225h-204z" />
    <glyph glyph-name="uni03BC" unicode="&#x3bc;" horiz-adv-x="1298" 
d="M219 -328v1327h242v-569q0 -101 49.5 -163t140.5 -62q107 0 166.5 61t59.5 187v546h241v-999h-241v117q-56 -70 -135.5 -103.5t-159.5 -33.5q-96 0 -166 34v-342h-197z" />
    <glyph glyph-name="pi" unicode="&#x3c0;" horiz-adv-x="1004" 
d="M834 -20q-109 0 -171.5 70t-62.5 188v557h-227v-795h-205v795h-82v204h801v-204h-82v-525q0 -110 45 -110q21 0 41 14l65 -160q-51 -34 -122 -34z" />
    <glyph glyph-name="uni0483" unicode="&#x483;" 
d="M-975 1577v354h604v125h250v-356h-611v-123h-243z" />
    <glyph glyph-name="Wgrave" unicode="&#x1e80;" horiz-adv-x="2003" 
d="M911 1536l-308 289h260l226 -289h-178zM449 0l-424 1413h264l301 -1040l313 958h197l313 -958l301 1040h264l-424 -1413h-245l-308 930l-307 -930h-245z" />
    <glyph glyph-name="wgrave" unicode="&#x1e81;" horiz-adv-x="1466" 
d="M645 1124l-308 289h260l226 -289h-178zM317 0l-307 999h260l170 -626l189 626h209l188 -624l172 624h260l-309 -999h-219l-197 655l-196 -655h-220z" />
    <glyph glyph-name="Wacute" unicode="&#x1e82;" horiz-adv-x="2003" 
d="M882 1536l225 289h260l-307 -289h-178zM449 0l-424 1413h264l301 -1040l313 958h197l313 -958l301 1040h264l-424 -1413h-245l-308 930l-307 -930h-245z" />
    <glyph glyph-name="wacute" unicode="&#x1e83;" horiz-adv-x="1466" 
d="M616 1124l225 289h260l-307 -289h-178zM317 0l-307 999h260l170 -626l189 626h209l188 -624l172 624h260l-309 -999h-219l-197 655l-196 -655h-220z" />
    <glyph glyph-name="Wdieresis" unicode="&#x1e84;" horiz-adv-x="2003" 
d="M700 1600v225h205v-225h-205zM1096 1600v225h204v-225h-204zM449 0l-424 1413h264l301 -1040l313 958h197l313 -958l301 1040h264l-424 -1413h-245l-308 930l-307 -930h-245z" />
    <glyph glyph-name="wdieresis" unicode="&#x1e85;" horiz-adv-x="1466" 
d="M434 1188v225h205v-225h-205zM830 1188v225h204v-225h-204zM317 0l-307 999h260l170 -626l189 626h209l188 -624l172 624h260l-309 -999h-219l-197 655l-196 -655h-220z" />
    <glyph glyph-name="uni1EA4" unicode="&#x1ea4;" horiz-adv-x="1343" 
d="M553 1948l225 289h260l-307 -289h-178zM354 1510l316 352l317 -352h-188l-129 145l-127 -145h-189zM12 0l566 1413h190l563 -1413h-274l-113 307h-541l-114 -307h-277zM483 524h381l-190 516z" />
    <glyph glyph-name="uni1EA5" unicode="&#x1ea5;" horiz-adv-x="1061" 
d="M870 1825l-307 -289h-178l225 289h260zM502 1243l-127 -145h-189l316 352l317 -352h-188zM514 1020q201 0 316.5 -114t115.5 -300v-606h-201l-15 133q-46 -74 -133.5 -113.5t-178.5 -39.5q-159 0 -261 87t-102 240q0 64 20 113.5t55 82t86 54t109 30.5t128 9h271
q-4 115 -48 163t-160 48q-80 0 -139.5 -39.5t-95.5 -101.5l-187 135q160 219 420 219zM467 186q107 0 176.5 66t81.5 160v8h-258q-79 0 -120.5 -35t-41.5 -86t41.5 -82t120.5 -31z" />
    <glyph glyph-name="uni1EA6" unicode="&#x1ea6;" horiz-adv-x="1343" 
d="M582 1948l-308 289h260l226 -289h-178zM354 1510l316 352l317 -352h-188l-129 145l-127 -145h-189zM12 0l566 1413h190l563 -1413h-274l-113 307h-541l-114 -307h-277zM483 524h381l-190 516z" />
    <glyph glyph-name="uni1EA7" unicode="&#x1ea7;" horiz-adv-x="1061" 
d="M592 1536h-178l-308 289h260zM186 1098l316 352l317 -352h-188l-129 145l-127 -145h-189zM514 1020q201 0 316.5 -114t115.5 -300v-606h-201l-15 133q-46 -74 -133.5 -113.5t-178.5 -39.5q-159 0 -261 87t-102 240q0 64 20 113.5t55 82t86 54t109 30.5t128 9h271
q-4 115 -48 163t-160 48q-80 0 -139.5 -39.5t-95.5 -101.5l-187 135q160 219 420 219zM467 186q107 0 176.5 66t81.5 160v8h-258q-79 0 -120.5 -35t-41.5 -86t41.5 -82t120.5 -31z" />
    <glyph glyph-name="uni1EAA" unicode="&#x1eaa;" horiz-adv-x="1343" 
d="M799 1929q-44 0 -80 15t-59 36t-42 42t-39 36t-40 15q-31 0 -48 -35.5t-17 -101.5h-140q0 137 57 211.5t156 74.5q48 0 89.5 -22t65 -48.5t50.5 -48.5t49 -22q27 0 44.5 35.5t17.5 99.5h145q0 -137 -55.5 -212t-153.5 -75zM354 1510l316 352l317 -352h-188l-129 145
l-127 -145h-189zM12 0l566 1413h190l563 -1413h-274l-113 307h-541l-114 -307h-277zM483 524h381l-190 516z" />
    <glyph glyph-name="uni1EAB" unicode="&#x1eab;" horiz-adv-x="1061" 
d="M371 1661q-31 0 -48 -35.5t-17 -101.5h-140q0 137 57 211.5t156 74.5q48 0 89.5 -22t65 -48.5t50.5 -48.5t49 -22q27 0 44.5 35.5t17.5 99.5h145q0 -137 -55.5 -212t-153.5 -75q-44 0 -80 15t-59 36t-42 42t-39 36t-40 15zM186 1098l316 352l317 -352h-188l-129 145
l-127 -145h-189zM514 1020q201 0 316.5 -114t115.5 -300v-606h-201l-15 133q-46 -74 -133.5 -113.5t-178.5 -39.5q-159 0 -261 87t-102 240q0 64 20 113.5t55 82t86 54t109 30.5t128 9h271q-4 115 -48 163t-160 48q-80 0 -139.5 -39.5t-95.5 -101.5l-187 135
q160 219 420 219zM467 186q107 0 176.5 66t81.5 160v8h-258q-79 0 -120.5 -35t-41.5 -86t41.5 -82t120.5 -31z" />
    <glyph glyph-name="uni1EAE" unicode="&#x1eae;" horiz-adv-x="1343" 
d="M553 1950l225 289h260l-307 -289h-178zM672 1555q-316 0 -316 270h172q0 -63 40 -95t104 -32t103.5 33t39.5 94h172q0 -270 -315 -270zM12 0l566 1413h190l563 -1413h-274l-113 307h-541l-114 -307h-277zM483 524h381l-190 516z" />
    <glyph glyph-name="uni1EAF" unicode="&#x1eaf;" horiz-adv-x="1061" 
d="M870 1827l-307 -289h-178l225 289h260zM504 1143q-316 0 -316 270h172q0 -63 40 -95t104 -32t103.5 33t39.5 94h172q0 -270 -315 -270zM514 1020q201 0 316.5 -114t115.5 -300v-606h-201l-15 133q-46 -74 -133.5 -113.5t-178.5 -39.5q-159 0 -261 87t-102 240
q0 64 20 113.5t55 82t86 54t109 30.5t128 9h271q-4 115 -48 163t-160 48q-80 0 -139.5 -39.5t-95.5 -101.5l-187 135q160 219 420 219zM467 186q107 0 176.5 66t81.5 160v8h-258q-79 0 -120.5 -35t-41.5 -86t41.5 -82t120.5 -31z" />
    <glyph glyph-name="uni1EB0" unicode="&#x1eb0;" horiz-adv-x="1343" 
d="M582 1950l-308 289h260l226 -289h-178zM672 1555q-316 0 -316 270h172q0 -63 40 -95t104 -32t103.5 33t39.5 94h172q0 -270 -315 -270zM12 0l566 1413h190l563 -1413h-274l-113 307h-541l-114 -307h-277zM483 524h381l-190 516z" />
    <glyph glyph-name="uni1EB1" unicode="&#x1eb1;" horiz-adv-x="1061" 
d="M592 1538h-178l-308 289h260zM360 1413q0 -63 40 -95t104 -32t103.5 33t39.5 94h172q0 -270 -315 -270q-316 0 -316 270h172zM514 1020q201 0 316.5 -114t115.5 -300v-606h-201l-15 133q-46 -74 -133.5 -113.5t-178.5 -39.5q-159 0 -261 87t-102 240q0 64 20 113.5t55 82
t86 54t109 30.5t128 9h271q-4 115 -48 163t-160 48q-80 0 -139.5 -39.5t-95.5 -101.5l-187 135q160 219 420 219zM467 186q107 0 176.5 66t81.5 160v8h-258q-79 0 -120.5 -35t-41.5 -86t41.5 -82t120.5 -31z" />
    <glyph glyph-name="uni1EB4" unicode="&#x1eb4;" horiz-adv-x="1343" 
d="M799 1931q-44 0 -80 15t-59 36t-42 42t-39 36t-40 15q-31 0 -48 -35.5t-17 -101.5h-140q0 137 57 211.5t156 74.5q48 0 89.5 -22t65 -48.5t50.5 -48.5t49 -22q27 0 44.5 35.5t17.5 99.5h145q0 -137 -55.5 -212t-153.5 -75zM672 1555q-316 0 -316 270h172q0 -63 40 -95
t104 -32t103.5 33t39.5 94h172q0 -270 -315 -270zM12 0l566 1413h190l563 -1413h-274l-113 307h-541l-114 -307h-277zM483 524h381l-190 516z" />
    <glyph glyph-name="uni1EB5" unicode="&#x1eb5;" horiz-adv-x="1061" 
d="M371 1663q-31 0 -48 -35.5t-17 -101.5h-140q0 137 57 211.5t156 74.5q48 0 89.5 -22t65 -48.5t50.5 -48.5t49 -22q27 0 44.5 35.5t17.5 99.5h145q0 -137 -55.5 -212t-153.5 -75q-44 0 -80 15t-59 36t-42 42t-39 36t-40 15zM504 1286q64 0 103.5 33t39.5 94h172
q0 -270 -315 -270q-316 0 -316 270h172q0 -63 40 -95t104 -32zM514 1020q201 0 316.5 -114t115.5 -300v-606h-201l-15 133q-46 -74 -133.5 -113.5t-178.5 -39.5q-159 0 -261 87t-102 240q0 64 20 113.5t55 82t86 54t109 30.5t128 9h271q-4 115 -48 163t-160 48
q-80 0 -139.5 -39.5t-95.5 -101.5l-187 135q160 219 420 219zM467 186q107 0 176.5 66t81.5 160v8h-258q-79 0 -120.5 -35t-41.5 -86t41.5 -82t120.5 -31z" />
    <glyph glyph-name="uni1EBC" unicode="&#x1ebc;" horiz-adv-x="1245" 
d="M780 1517q-44 0 -80 15t-59 36t-42 42t-39 36t-40 15q-31 0 -48 -35.5t-17 -101.5h-140q0 137 57 211.5t156 74.5q48 0 89.5 -22t65 -48.5t50.5 -48.5t49 -22q27 0 44.5 35.5t17.5 99.5h145q0 -137 -55.5 -212t-153.5 -75zM182 0v1413h940v-233h-686v-357h639v-233h-639
v-350h686v-240h-940z" />
    <glyph glyph-name="uni1EBD" unicode="&#x1ebd;" horiz-adv-x="1069" 
d="M655 1105q-44 0 -80 15t-59 36t-42 42t-39 36t-40 15q-31 0 -48 -35.5t-17 -101.5h-140q0 137 57 211.5t156 74.5q48 0 89.5 -22t65 -48.5t50.5 -48.5t49 -22q27 0 44.5 35.5t17.5 99.5h145q0 -137 -55.5 -212t-153.5 -75zM563 -20q-125 0 -223.5 42.5t-159 115t-92 164
t-31.5 194.5q0 100 30 192t87.5 167t154 120t218.5 45q101 0 182 -31.5t132.5 -81.5t86 -117.5t48.5 -135t14 -138.5t-9 -96h-686q35 -219 250 -219q145 0 240 106l168 -147q-162 -180 -410 -180zM315 596h455q0 36 -8 63q-18 75 -76.5 115.5t-140.5 40.5q-190 0 -230 -219z
" />
    <glyph glyph-name="uni1EBE" unicode="&#x1ebe;" horiz-adv-x="1245" 
d="M534 1948l225 289h260l-307 -289h-178zM335 1510l316 352l317 -352h-188l-129 145l-127 -145h-189zM182 0v1413h940v-233h-686v-357h639v-233h-639v-350h686v-240h-940z" />
    <glyph glyph-name="uni1EBF" unicode="&#x1ebf;" horiz-adv-x="1069" 
d="M409 1536l225 289h260l-307 -289h-178zM210 1098l316 352l317 -352h-188l-129 145l-127 -145h-189zM563 -20q-125 0 -223.5 42.5t-159 115t-92 164t-31.5 194.5q0 100 30 192t87.5 167t154 120t218.5 45q101 0 182 -31.5t132.5 -81.5t86 -117.5t48.5 -135t14 -138.5
t-9 -96h-686q35 -219 250 -219q145 0 240 106l168 -147q-162 -180 -410 -180zM315 596h455q0 36 -8 63q-18 75 -76.5 115.5t-140.5 40.5q-190 0 -230 -219z" />
    <glyph glyph-name="uni1EC0" unicode="&#x1ec0;" horiz-adv-x="1245" 
d="M563 1948l-308 289h260l226 -289h-178zM335 1510l316 352l317 -352h-188l-129 145l-127 -145h-189zM182 0v1413h940v-233h-686v-357h639v-233h-639v-350h686v-240h-940z" />
    <glyph glyph-name="uni1EC1" unicode="&#x1ec1;" horiz-adv-x="1069" 
d="M438 1536l-308 289h260l226 -289h-178zM210 1098l316 352l317 -352h-188l-129 145l-127 -145h-189zM563 -20q-125 0 -223.5 42.5t-159 115t-92 164t-31.5 194.5q0 100 30 192t87.5 167t154 120t218.5 45q101 0 182 -31.5t132.5 -81.5t86 -117.5t48.5 -135t14 -138.5
t-9 -96h-686q35 -219 250 -219q145 0 240 106l168 -147q-162 -180 -410 -180zM315 596h455q0 36 -8 63q-18 75 -76.5 115.5t-140.5 40.5q-190 0 -230 -219z" />
    <glyph glyph-name="uni1EC4" unicode="&#x1ec4;" horiz-adv-x="1245" 
d="M780 1929q-44 0 -80 15t-59 36t-42 42t-39 36t-40 15q-31 0 -48 -35.5t-17 -101.5h-140q0 137 57 211.5t156 74.5q48 0 89.5 -22t65 -48.5t50.5 -48.5t49 -22q27 0 44.5 35.5t17.5 99.5h145q0 -137 -55.5 -212t-153.5 -75zM335 1510l316 352l317 -352h-188l-129 145
l-127 -145h-189zM182 0v1413h940v-233h-686v-357h639v-233h-639v-350h686v-240h-940z" />
    <glyph glyph-name="uni1EC5" unicode="&#x1ec5;" horiz-adv-x="1069" 
d="M655 1517q-44 0 -80 15t-59 36t-42 42t-39 36t-40 15q-31 0 -48 -35.5t-17 -101.5h-140q0 137 57 211.5t156 74.5q48 0 89.5 -22t65 -48.5t50.5 -48.5t49 -22q27 0 44.5 35.5t17.5 99.5h145q0 -137 -55.5 -212t-153.5 -75zM210 1098l316 352l317 -352h-188l-129 145
l-127 -145h-189zM563 -20q-125 0 -223.5 42.5t-159 115t-92 164t-31.5 194.5q0 100 30 192t87.5 167t154 120t218.5 45q101 0 182 -31.5t132.5 -81.5t86 -117.5t48.5 -135t14 -138.5t-9 -96h-686q35 -219 250 -219q145 0 240 106l168 -147q-162 -180 -410 -180zM315 596h455
q0 36 -8 63q-18 75 -76.5 115.5t-140.5 40.5q-190 0 -230 -219z" />
    <glyph glyph-name="uni1ED0" unicode="&#x1ed0;" horiz-adv-x="1528" 
d="M645 1948l225 289h260l-307 -289h-178zM446 1510l316 352l317 -352h-188l-129 145l-127 -145h-189zM764 -20q-136 0 -249.5 38.5t-192.5 106t-134 160t-80.5 199t-25.5 223.5t25.5 223.5t80.5 199t134 160t192.5 106t249.5 38.5t249.5 -38.5t192.5 -106t134 -160
t80.5 -199t25.5 -223.5t-25.5 -223.5t-80.5 -199t-134 -160t-192.5 -106t-249.5 -38.5zM764 205q88 0 159 27t118 73t78.5 110.5t45 136.5t13.5 155q0 82 -13.5 154.5t-45 136.5t-78.5 110t-118 73t-159 27t-159 -27t-118 -73t-78.5 -110t-45 -136.5t-13.5 -154.5
q0 -83 13.5 -155t45 -136.5t78.5 -110.5t118 -73t159 -27z" />
    <glyph glyph-name="uni1ED1" unicode="&#x1ed1;" horiz-adv-x="1128" 
d="M444 1536l225 289h260l-307 -289h-178zM245 1098l316 352l317 -352h-188l-129 145l-127 -145h-189zM563 -20q-113 0 -210 42t-162.5 113t-102.5 166t-37 201q0 141 62.5 258.5t181 188.5t268.5 71t268.5 -71t181 -188.5t62.5 -258.5q0 -106 -37 -201t-102.5 -166
t-162.5 -113t-210 -42zM563 190q130 0 194 88.5t64 223.5q0 86 -25 153t-84.5 110.5t-148.5 43.5q-130 0 -194 -86.5t-64 -220.5q0 -86 25 -154t85 -113t148 -45z" />
    <glyph glyph-name="uni1ED2" unicode="&#x1ed2;" horiz-adv-x="1528" 
d="M674 1948l-308 289h260l226 -289h-178zM446 1510l316 352l317 -352h-188l-129 145l-127 -145h-189zM764 -20q-136 0 -249.5 38.5t-192.5 106t-134 160t-80.5 199t-25.5 223.5t25.5 223.5t80.5 199t134 160t192.5 106t249.5 38.5t249.5 -38.5t192.5 -106t134 -160
t80.5 -199t25.5 -223.5t-25.5 -223.5t-80.5 -199t-134 -160t-192.5 -106t-249.5 -38.5zM764 205q88 0 159 27t118 73t78.5 110.5t45 136.5t13.5 155q0 82 -13.5 154.5t-45 136.5t-78.5 110t-118 73t-159 27t-159 -27t-118 -73t-78.5 -110t-45 -136.5t-13.5 -154.5
q0 -83 13.5 -155t45 -136.5t78.5 -110.5t118 -73t159 -27z" />
    <glyph glyph-name="uni1ED3" unicode="&#x1ed3;" horiz-adv-x="1128" 
d="M473 1536l-308 289h260l226 -289h-178zM245 1098l316 352l317 -352h-188l-129 145l-127 -145h-189zM563 -20q-113 0 -210 42t-162.5 113t-102.5 166t-37 201q0 141 62.5 258.5t181 188.5t268.5 71t268.5 -71t181 -188.5t62.5 -258.5q0 -106 -37 -201t-102.5 -166
t-162.5 -113t-210 -42zM563 190q130 0 194 88.5t64 223.5q0 86 -25 153t-84.5 110.5t-148.5 43.5q-130 0 -194 -86.5t-64 -220.5q0 -86 25 -154t85 -113t148 -45z" />
    <glyph glyph-name="uni1ED6" unicode="&#x1ed6;" horiz-adv-x="1528" 
d="M891 1929q-44 0 -80 15t-59 36t-42 42t-39 36t-40 15q-31 0 -48 -35.5t-17 -101.5h-140q0 137 57 211.5t156 74.5q48 0 89.5 -22t65 -48.5t50.5 -48.5t49 -22q27 0 44.5 35.5t17.5 99.5h145q0 -137 -55.5 -212t-153.5 -75zM446 1510l316 352l317 -352h-188l-129 145
l-127 -145h-189zM764 -20q-136 0 -249.5 38.5t-192.5 106t-134 160t-80.5 199t-25.5 223.5t25.5 223.5t80.5 199t134 160t192.5 106t249.5 38.5t249.5 -38.5t192.5 -106t134 -160t80.5 -199t25.5 -223.5t-25.5 -223.5t-80.5 -199t-134 -160t-192.5 -106t-249.5 -38.5z
M764 205q88 0 159 27t118 73t78.5 110.5t45 136.5t13.5 155q0 82 -13.5 154.5t-45 136.5t-78.5 110t-118 73t-159 27t-159 -27t-118 -73t-78.5 -110t-45 -136.5t-13.5 -154.5q0 -83 13.5 -155t45 -136.5t78.5 -110.5t118 -73t159 -27z" />
    <glyph glyph-name="uni1ED7" unicode="&#x1ed7;" horiz-adv-x="1128" 
d="M690 1517q-44 0 -80 15t-59 36t-42 42t-39 36t-40 15q-31 0 -48 -35.5t-17 -101.5h-140q0 137 57 211.5t156 74.5q48 0 89.5 -22t65 -48.5t50.5 -48.5t49 -22q27 0 44.5 35.5t17.5 99.5h145q0 -137 -55.5 -212t-153.5 -75zM245 1098l316 352l317 -352h-188l-129 145
l-127 -145h-189zM563 -20q-113 0 -210 42t-162.5 113t-102.5 166t-37 201q0 141 62.5 258.5t181 188.5t268.5 71t268.5 -71t181 -188.5t62.5 -258.5q0 -106 -37 -201t-102.5 -166t-162.5 -113t-210 -42zM563 190q130 0 194 88.5t64 223.5q0 86 -25 153t-84.5 110.5
t-148.5 43.5q-130 0 -194 -86.5t-64 -220.5q0 -86 25 -154t85 -113t148 -45z" />
    <glyph glyph-name="Ygrave" unicode="&#x1ef2;" horiz-adv-x="1319" 
d="M567 1538l-308 289h260l226 -289h-178zM528 0v551l-530 862h307l352 -618l355 618h309l-528 -862v-551h-265z" />
    <glyph glyph-name="ygrave" unicode="&#x1ef3;" horiz-adv-x="1032" 
d="M426 1124l-308 289h260l226 -289h-178zM201 -430l184 457l-391 972h268l252 -694l256 694h268l-571 -1429h-266z" />
    <glyph glyph-name="uni1EF8" unicode="&#x1ef8;" horiz-adv-x="1319" 
d="M784 1519q-44 0 -80 15t-59 36t-42 42t-39 36t-40 15q-31 0 -48 -35.5t-17 -101.5h-140q0 137 57 211.5t156 74.5q48 0 89.5 -22t65 -48.5t50.5 -48.5t49 -22q27 0 44.5 35.5t17.5 99.5h145q0 -137 -55.5 -212t-153.5 -75zM528 0v551l-530 862h307l352 -618l355 618h309
l-528 -862v-551h-265z" />
    <glyph glyph-name="uni1EF9" unicode="&#x1ef9;" horiz-adv-x="1032" 
d="M643 1105q-44 0 -80 15t-59 36t-42 42t-39 36t-40 15q-31 0 -48 -35.5t-17 -101.5h-140q0 137 57 211.5t156 74.5q48 0 89.5 -22t65 -48.5t50.5 -48.5t49 -22q27 0 44.5 35.5t17.5 99.5h145q0 -137 -55.5 -212t-153.5 -75zM201 -430l184 457l-391 972h268l252 -694
l256 694h268l-571 -1429h-266z" />
    <glyph glyph-name="endash" unicode="&#x2013;" horiz-adv-x="1051" 
d="M141 508v184h768v-184h-768z" />
    <glyph glyph-name="emdash" unicode="&#x2014;" horiz-adv-x="2048" 
d="M0 508v184h2048v-184h-2048z" />
    <glyph glyph-name="uni2015" unicode="&#x2015;" horiz-adv-x="1542" 
d="M141 508v184h1260v-184h-1260z" />
    <glyph glyph-name="quoteleft" unicode="&#x2018;" horiz-adv-x="578" 
d="M472 846h-162l-254 567h281z" />
    <glyph glyph-name="quoteright" unicode="&#x2019;" horiz-adv-x="578" 
d="M106 846l135 567h281l-254 -567h-162z" />
    <glyph glyph-name="quotesinglbase" unicode="&#x201a;" horiz-adv-x="553" 
d="M135 -303l135 567h281l-254 -567h-162z" />
    <glyph glyph-name="quotedblleft" unicode="&#x201c;" horiz-adv-x="967" 
d="M472 846h-162l-254 567h281zM861 846h-162l-254 567h281z" />
    <glyph glyph-name="quotedblright" unicode="&#x201d;" horiz-adv-x="967" 
d="M106 846l135 567h281l-254 -567h-162zM495 846l135 567h281l-254 -567h-162z" />
    <glyph glyph-name="quotedblbase" unicode="&#x201e;" horiz-adv-x="987" 
d="M106 -303l135 567h281l-254 -567h-162zM516 -303l135 567h281l-254 -567h-162z" />
    <glyph glyph-name="dagger" unicode="&#x2020;" horiz-adv-x="778" 
d="M279 -205v1014h-222v221h222v383h221v-383h221v-221h-221v-1014h-221z" />
    <glyph glyph-name="daggerdbl" unicode="&#x2021;" horiz-adv-x="893" 
d="M336 -205v383h-221v221h221v410h-221v221h221v383h221v-383h221v-221h-221v-410h221v-221h-221v-383h-221z" />
    <glyph glyph-name="bullet" unicode="&#x2022;" horiz-adv-x="758" 
d="M379 244q-98 0 -168 69.5t-70 167.5t70 168t168 70t167.5 -70t69.5 -168t-69.5 -167.5t-167.5 -69.5z" />
    <glyph glyph-name="uni2023" unicode="&#x2023;" horiz-adv-x="915" 
d="M205 143v779l665 -390z" />
    <glyph glyph-name="twodotenleader" unicode="&#x2025;" horiz-adv-x="1061" 
d="M201 0v264h245v-264h-245zM614 0v264h246v-264h-246z" />
    <glyph glyph-name="ellipsis" unicode="&#x2026;" horiz-adv-x="1475" 
d="M201 0v264h245v-264h-245zM614 0v264h246v-264h-246zM1028 0v264h246v-264h-246z" />
    <glyph glyph-name="perthousand" unicode="&#x2030;" horiz-adv-x="2079" 
d="M375 780q-130 0 -211.5 92.5t-81.5 235.5q0 142 80 234t207 92q125 0 207.5 -94t82.5 -234q0 -139 -81 -232.5t-203 -93.5zM203 0l852 1413h172l-852 -1413h-172zM375 944q52 0 86.5 46t34.5 116q0 73 -35.5 118.5t-91.5 45.5q-57 0 -90 -44t-33 -118q0 -75 34.5 -119.5
t94.5 -44.5zM1061 -20q-130 0 -211.5 92t-81.5 235q0 142 80 234t207 92q126 0 208.5 -93.5t82.5 -234.5q0 -139 -81 -232t-204 -93zM1712 -20q-130 0 -211.5 92t-81.5 235q0 142 80 234t207 92q126 0 208.5 -93.5t82.5 -234.5q0 -139 -81 -232t-204 -93zM1061 143
q52 0 86.5 46t34.5 116q0 73 -35.5 118.5t-91.5 45.5q-57 0 -90 -44t-33 -118q0 -75 34.5 -119.5t94.5 -44.5zM1712 143q53 0 87 46t34 116q0 74 -35 119t-92 45t-90 -44t-33 -118q0 -75 34.5 -119.5t94.5 -44.5z" />
    <glyph glyph-name="uni2031" unicode="&#x2031;" horiz-adv-x="2730" 
d="M375 780q-130 0 -211.5 92.5t-81.5 235.5q0 142 80 234t207 92q125 0 207.5 -94t82.5 -234q0 -139 -81 -232.5t-203 -93.5zM203 0l852 1413h172l-852 -1413h-172zM375 944q52 0 86.5 46t34.5 116q0 73 -35.5 118.5t-91.5 45.5q-57 0 -90 -44t-33 -118q0 -75 34.5 -119.5
t94.5 -44.5zM1061 -20q-130 0 -211.5 92t-81.5 235q0 142 80 234t207 92q126 0 208.5 -93.5t82.5 -234.5q0 -139 -81 -232t-204 -93zM1712 -20q-130 0 -211.5 92t-81.5 235q0 142 80 234t207 92q126 0 208.5 -93.5t82.5 -234.5q0 -139 -81 -232t-204 -93zM2363 -20
q-130 0 -211 92t-81 235t79.5 234.5t206.5 91.5q126 0 208.5 -93.5t82.5 -234.5q0 -139 -81 -232t-204 -93zM1061 143q52 0 86.5 46t34.5 116q0 73 -35.5 118.5t-91.5 45.5q-57 0 -90 -44t-33 -118q0 -75 34.5 -119.5t94.5 -44.5zM1712 143q53 0 87 46t34 116q0 74 -35 119
t-92 45t-90 -44t-33 -118q0 -75 34.5 -119.5t94.5 -44.5zM2363 143q53 0 87 46t34 116q0 74 -35 119t-92 45t-90 -44t-33 -118q0 -75 35 -119.5t94 -44.5z" />
    <glyph glyph-name="guilsinglleft" unicode="&#x2039;" horiz-adv-x="594" 
d="M449 156l-428 354l428 356v-211l-181 -145l181 -143v-211z" />
    <glyph glyph-name="guilsinglright" unicode="&#x203a;" horiz-adv-x="594" 
d="M145 156v211l181 143l-181 145v211l428 -356z" />
    <glyph glyph-name="fraction" unicode="&#x2044;" horiz-adv-x="328" 
d="M-348 0l852 1413h172l-852 -1413h-172z" />
    <glyph glyph-name="Euro" unicode="&#x20ac;" horiz-adv-x="1266" 
d="M788 -20q-207 0 -338 129t-180 344h-174l78 180h72q-2 26 -2 74q0 14 1 44t1 42h-150l78 186h98q25 101 68.5 183t106 144t149 96t190.5 34q246 0 396 -205l-156 -123q-82 109 -240 109q-117 0 -191.5 -64t-102.5 -174h516l-78 -182h-471q-4 -54 -4 -74q0 -32 4 -82h549
l-78 -180h-438q28 -124 103 -193t193 -69q151 0 234 112l147 -145q-148 -186 -381 -186z" />
    <glyph glyph-name="uni20B1" unicode="&#x20b1;" horiz-adv-x="1350" 
d="M1284 1053v-103h-92q-17 -172 -153 -268t-344 -96h-191v-586h-252v950h-119v103h119v360h443q204 0 339.5 -95t156.5 -265h93zM504 1176v-123h430q-36 123 -239 123h-191zM695 823q214 0 242 127h-433v-127h191z" />
    <glyph glyph-name="uni20B3" unicode="&#x20b3;" horiz-adv-x="1651" 
d="M166 0l98 246h-119v217h205l53 133h-258v217h347l239 600h191l239 -600h344v-217h-258l53 -133h205v-217h-119l99 -246h-275l-90 246h-588l-90 -246h-276zM743 813h168l-84 227zM614 463h426l-49 133h-327z" />
    <glyph glyph-name="uni20B4" unicode="&#x20b4;" horiz-adv-x="1454" 
d="M1163 983h164v-176h-1198v176h762q22 33 22 74q0 67 -50.5 109t-127.5 42q-71 0 -130.5 -39.5t-96.5 -111.5l-211 129q70 125 182 186.5t248 61.5q121 0 219.5 -44.5t159.5 -134.5t61 -211q0 -36 -4 -61zM129 522v176h1198v-176h-777q-67 -57 -67 -143q0 -81 67.5 -125.5
t178.5 -44.5q101 0 172.5 49.5t97.5 144.5l250 -57q-47 -176 -195.5 -269t-340.5 -93q-133 0 -242.5 44t-175.5 128t-66 192q0 98 58 174h-158z" />
    <glyph glyph-name="uni20B8" unicode="&#x20b8;" horiz-adv-x="1376" 
d="M119 1206v207h1138v-207h-1138zM561 0v854h-442v207h1138v-207h-442v-854h-254z" />
    <glyph glyph-name="uni20BD" unicode="&#x20bd;" horiz-adv-x="1354" 
d="M317 0v262h-178v197h178v147h-178v217h178v590h443q222 0 361 -111t139 -307q0 -191 -137 -290t-363 -99h-191v-147h334v-197h-334v-262h-252zM569 823h191q128 0 188 43t60 129q0 181 -248 181h-191v-353z" />
    <glyph glyph-name="uni2116" unicode="&#x2116;" horiz-adv-x="2376" 
d="M1028 427v986h244v-1413h-254l-592 995v-995h-244v1413h252zM1872 332q-186 0 -303 125t-117 305q0 178 117 302t303 124t304 -124t118 -302q0 -180 -118 -305t-304 -125zM1872 1014q-107 0 -159 -71.5t-52 -180.5q0 -111 52 -183.5t159 -72.5t160 73t53 183
q0 109 -53 180.5t-160 71.5zM1452 0v184h827v-184h-827z" />
    <glyph glyph-name="trademark" unicode="&#x2122;" horiz-adv-x="1292" 
d="M197 877v397h-146v139h443v-139h-146v-397h-151zM600 877v536h248l74 -317l73 317h244v-536h-152v380l-116 -380h-97l-122 380v-380h-152z" />
    <glyph glyph-name="uni2126" unicode="&#x2126;" horiz-adv-x="1673" 
d="M1276 195h252v-195h-580v188q166 25 264.5 167.5t98.5 357.5q0 99 -30.5 187.5t-82.5 141.5q-69 74 -167 117t-195 43q-96 0 -194 -43.5t-169 -116.5q-52 -53 -82.5 -141.5t-30.5 -187.5q0 -217 98.5 -359.5t264.5 -165.5v-188h-580v203h272q-123 99 -195.5 239
t-72.5 279q0 129 49 256t132 213q97 100 234 158.5t274 58.5q136 0 273 -59.5t234 -159.5q83 -86 132 -213.5t49 -259.5q0 -145 -67 -285t-181 -235z" />
    <glyph glyph-name="arrowleft" unicode="&#x2190;" horiz-adv-x="2306" 
d="M1126 33l-1087 606l1087 602l82 -162l-624 -348l1652 -2v-184l-1654 2l626 -352z" />
    <glyph glyph-name="arrowright" unicode="&#x2192;" horiz-adv-x="2306" 
d="M1180 33l-82 162l626 352l-1654 -2v184l1652 2l-624 348l82 162l1087 -602z" />
    <glyph glyph-name="partialdiff" unicode="&#x2202;" horiz-adv-x="1282" 
d="M561 -12q-216 0 -339.5 128.5t-123.5 334.5q0 159 76.5 288t198 198t258.5 69q149 0 280 -88q0 86 -20 145q-28 93 -96.5 140.5t-159.5 47.5q-173 0 -238 -157l-178 55q54 134 169 207.5t269 73.5q129 0 226.5 -51.5t155.5 -143t87 -210t29 -261.5q0 -228 -69.5 -402.5
t-205 -274t-319.5 -99.5zM575 197q104 0 183.5 54.5t118 134t38.5 165.5q0 109 -64.5 182.5t-188.5 73.5q-82 0 -148.5 -32t-106.5 -83.5t-61.5 -113t-21.5 -125.5q0 -124 72.5 -190t178.5 -66z" />
    <glyph glyph-name="uni2206" unicode="&#x2206;" horiz-adv-x="1288" 
d="M45 0l598 1491l600 -1491h-1198zM344 205h600l-301 788z" />
    <glyph glyph-name="product" unicode="&#x220f;" horiz-adv-x="1343" 
d="M236 0v1208h-82v205h1036v-205h-82v-1208h-205v1208h-463v-1208h-204z" />
    <glyph glyph-name="summation" unicode="&#x2211;" horiz-adv-x="1257" 
d="M1159 1413v-231h-676l478 -475l-478 -476h676v-231h-1093v113l565 594l-565 593v113h1093z" />
    <glyph glyph-name="minus" unicode="&#x2212;" horiz-adv-x="1262" 
d="M215 537v184h832v-184h-832z" />
    <glyph glyph-name="radical" unicode="&#x221a;" horiz-adv-x="1202" 
d="M492 -242l-281 783h-158v204h305l146 -460l436 1128h219z" />
    <glyph glyph-name="infinity" unicode="&#x221e;" horiz-adv-x="1880" 
d="M535 354q-184 0 -291 105.5t-107 275.5t107 275.5t291 105.5q107 0 214.5 -55.5t190.5 -159.5q84 104 191.5 159.5t214.5 55.5q184 0 290.5 -105.5t106.5 -275.5t-106.5 -275.5t-290.5 -105.5q-107 0 -215 55.5t-191 159.5q-84 -104 -191.5 -159.5t-213.5 -55.5zM565 551
q64 0 138.5 48t127.5 136q-54 90 -128 137.5t-138 47.5q-98 0 -154.5 -48.5t-56.5 -136.5t56.5 -136t154.5 -48zM1315 551q98 0 154.5 48t56.5 136t-56.5 136.5t-154.5 48.5q-64 0 -138.5 -48.5t-127.5 -136.5q54 -90 128 -137t138 -47z" />
    <glyph glyph-name="integral" unicode="&#x222b;" horiz-adv-x="899" 
d="M41 -457v205q169 0 238 61t69 211v1117q0 134 87.5 222.5t213.5 88.5q125 0 223 -86l-131 -156q-43 37 -92 37q-40 0 -68 -27.5t-28 -87.5v-1114q0 -226 -138 -348.5t-374 -122.5z" />
    <glyph glyph-name="approxequal" unicode="&#x2248;" horiz-adv-x="1225" 
d="M788 702q-57 0 -101 17t-68.5 42.5t-48 55.5t-40 55.5t-42 42.5t-56.5 17q-42 0 -66 -46.5t-24 -125.5h-184q0 151 75 243.5t199 92.5q58 0 103.5 -17t71.5 -42.5t49.5 -55.5t39.5 -55.5t39.5 -42.5t52.5 -17q42 0 68.5 55t26.5 140h184q0 -159 -77 -259t-202 -100z
M788 209q-67 0 -115.5 23.5t-76 57.5t-49.5 67.5t-50 57t-65 23.5q-42 0 -66 -46.5t-24 -125.5h-184q0 151 75 243.5t199 92.5q58 0 103.5 -17t71.5 -42.5t49.5 -55t39.5 -55t39.5 -42.5t52.5 -17q42 0 68.5 55t26.5 139h184q0 -159 -77 -258.5t-202 -99.5z" />
    <glyph glyph-name="notequal" unicode="&#x2260;" horiz-adv-x="1194" 
d="M88 0l207 344h-117v207h242l145 242h-387v206h512l250 414h172l-250 -414h146v-206h-271l-145 -242h416v-207h-541l-207 -344h-172z" />
    <glyph glyph-name="lessequal" unicode="&#x2264;" horiz-adv-x="1356" 
d="M1151 155l-1087 621l1087 620l93 -159l-807 -461l807 -461zM109 0h1135v-184h-1135v184z" />
    <glyph glyph-name="greaterequal" unicode="&#x2265;" horiz-adv-x="1356" 
d="M205 155l-93 160l807 461l-807 461l93 159l1087 -620zM1247 0v-184h-1135v184h1135z" />
    <glyph glyph-name="lozenge" unicode="&#x25ca;" horiz-adv-x="1208" 
d="M442 0l-381 707l381 706h324l381 -706l-381 -707h-324zM592 127h24l291 580l-291 579h-24l-291 -579z" />
    <glyph glyph-name="uniF8FF" unicode="&#xf8ff;" horiz-adv-x="1712" 
d="M856 -61q-158 0 -301 61t-247 165t-165 247t-61 301t61 301t165 247t247 165t301 61t301 -61t247 -165t165 -247t61 -301t-61 -301t-165 -247t-247 -165t-301 -61zM856 10q191 0 353 94t256 256t94 353q0 143 -55.5 273t-149.5 224t-224.5 149.5t-273.5 55.5t-273 -55.5
t-224 -149.5t-149.5 -224t-55.5 -273t55.5 -273.5t149.5 -224.5t224 -149.5t273 -55.5zM453 410q-15 0 -25 9.5t-10 24.5v537q0 15 10.5 26t24.5 11q15 0 25.5 -11t10.5 -26v-537q0 -15 -10.5 -24.5t-25.5 -9.5zM856 410q-15 0 -25 9.5t-10 24.5v537q0 15 10 26t25 11
t25 -11t10 -26v-537q0 -15 -9.5 -24.5t-25.5 -9.5zM1257 410q-15 0 -22 10l-270 268q-9 10 -9 25q0 16 9 24l270 269q9 12 22 12q14 0 25.5 -11.5t11.5 -25.5t-10 -25l-244 -243l244 -244q10 -10 10 -25q0 -13 -11.5 -23.5t-25.5 -10.5zM588 678q-16 0 -25.5 9.5t-9.5 25.5
q0 15 9.5 25t25.5 10h133q15 0 26 -10t11 -25t-11 -25t-26 -10h-133z" />
    <glyph glyph-name="g.ss01" horiz-adv-x="1155" 
d="M541 -479q-291 0 -445 215l187 135q32 -58 99.5 -97.5t162.5 -39.5q109 0 164 61.5t55 204.5v121q-98 -121 -281 -121q-135 0 -235 72.5t-148.5 186.5t-48.5 251q0 101 28.5 192t81.5 162.5t135.5 113.5t182.5 42q84 0 159.5 -30t125.5 -91v100h246v-999
q0 -233 -122 -356t-347 -123zM543 225q120 0 180.5 79t60.5 206t-60.5 208t-180.5 81t-182 -82t-62 -207q0 -126 62 -205.5t182 -79.5z" />
    <glyph glyph-name="gbreve.ss01" horiz-adv-x="1155" 
d="M578 1143q-316 0 -316 270h172q0 -63 40 -95t104 -32t103.5 33t39.5 94h172q0 -270 -315 -270zM541 -479q-291 0 -445 215l187 135q32 -58 99.5 -97.5t162.5 -39.5q109 0 164 61.5t55 204.5v121q-98 -121 -281 -121q-135 0 -235 72.5t-148.5 186.5t-48.5 251
q0 101 28.5 192t81.5 162.5t135.5 113.5t182.5 42q84 0 159.5 -30t125.5 -91v100h246v-999q0 -233 -122 -356t-347 -123zM543 225q120 0 180.5 79t60.5 206t-60.5 208t-180.5 81t-182 -82t-62 -207q0 -126 62 -205.5t182 -79.5z" />
    <glyph glyph-name="uni0123.ss01" horiz-adv-x="1155" 
d="M819 1409l-135 -315h-254l248 315h141zM541 -479q-291 0 -445 215l187 135q32 -58 99.5 -97.5t162.5 -39.5q109 0 164 61.5t55 204.5v121q-98 -121 -281 -121q-135 0 -235 72.5t-148.5 186.5t-48.5 251q0 101 28.5 192t81.5 162.5t135.5 113.5t182.5 42q84 0 159.5 -30
t125.5 -91v100h246v-999q0 -233 -122 -356t-347 -123zM543 225q120 0 180.5 79t60.5 206t-60.5 208t-180.5 81t-182 -82t-62 -207q0 -126 62 -205.5t182 -79.5z" />
    <glyph glyph-name="gdotaccent.ss01" horiz-adv-x="1155" 
d="M449 1188v225h256v-225h-256zM541 -479q-291 0 -445 215l187 135q32 -58 99.5 -97.5t162.5 -39.5q109 0 164 61.5t55 204.5v121q-98 -121 -281 -121q-135 0 -235 72.5t-148.5 186.5t-48.5 251q0 101 28.5 192t81.5 162.5t135.5 113.5t182.5 42q84 0 159.5 -30t125.5 -91
v100h246v-999q0 -233 -122 -356t-347 -123zM543 225q120 0 180.5 79t60.5 206t-60.5 208t-180.5 81t-182 -82t-62 -207q0 -126 62 -205.5t182 -79.5z" />
    <glyph glyph-name="i.loclTRK" horiz-adv-x="535" 
d="M139 1188v225h256v-225h-256zM145 0v999h244v-999h-244z" />
    <glyph glyph-name="T_h" horiz-adv-x="2128" 
d="M463 0v1186h-443v227h1334v-530q57 70 133 103.5t155 33.5q95 0 168 -35.5t115.5 -96.5t64 -134t21.5 -154v-600h-248v569q0 50 -7.5 88.5t-26.5 72t-56 51.5t-90 18q-112 0 -170.5 -81t-58.5 -212v-506h-248v1186h-389v-1186h-254z" />
    <glyph glyph-name="f_t" horiz-adv-x="1309" 
d="M1055 -20q-147 0 -230.5 79.5t-83.5 216.5v519h-313v-795h-244v795h-164v204h164v72q0 111 59 195t154 126t209 42q229 0 377 -74v-361h252v-204h-252v-476q0 -124 113 -124q65 0 139 36v-221q-79 -30 -180 -30zM428 999h317v222q-45 16 -127 16q-95 0 -142.5 -46
t-47.5 -124v-68z" />
    <glyph glyph-name="t_t" horiz-adv-x="1405" 
d="M500 -20q-147 0 -230.5 79.5t-83.5 216.5v519h-161v204h165v248l238 174v-422h414v248l237 174v-422h252v-204h-252v-476q0 -124 113 -124q65 0 139 36v-221q-79 -30 -180 -30q-147 0 -230 79.5t-83 216.5v519h-410v-476q0 -124 113 -124q65 0 139 36v-221
q-79 -30 -180 -30z" />
    <glyph glyph-name="caroncomb.alt" 
d="M-408 958l115 455h256l-228 -455h-143z" />
    </font>
</defs>
</svg>
